<svg xmlns="http://www.w3.org/2000/svg" viewBox="0 0 2880 2880"><title>specimen-work-sans-light</title><rect width="2880" height="2880"/><path d="M1187.88,1431.95a5.13,5.13,0,0,0-1.48-1.77,6.17,6.17,0,0,0-2.12-1,9.75,9.75,0,0,0-2.55-.33,10.33,10.33,0,0,0-2.12.23,6.52,6.52,0,0,0-2,.75,4.25,4.25,0,0,0-1.45,1.38,3.78,3.78,0,0,0-.55,2.1,2.94,2.94,0,0,0,.52,1.78,4.67,4.67,0,0,0,1.33,1.22,8.41,8.41,0,0,0,1.75.83q0.95,0.33,1.75.53l4.2,0.95a12,12,0,0,1,2.68.73,8.64,8.64,0,0,1,2.35,1.38,6.73,6.73,0,0,1,1.68,2.1,6.34,6.34,0,0,1,.65,3,6.47,6.47,0,0,1-1,3.58,7.74,7.74,0,0,1-2.42,2.4,10.29,10.29,0,0,1-3.33,1.33,17.24,17.24,0,0,1-3.65.4,11.85,11.85,0,0,1-7.37-2.15q-2.82-2.15-3.22-6.9h3.15a6.22,6.22,0,0,0,2.32,4.82,8.43,8.43,0,0,0,5.28,1.63,11.77,11.77,0,0,0,2.38-.25,7.61,7.61,0,0,0,2.28-.85,5.45,5.45,0,0,0,1.72-1.53,3.75,3.75,0,0,0,.68-2.27,3.62,3.62,0,0,0-.48-1.92,4.15,4.15,0,0,0-1.27-1.3,8.14,8.14,0,0,0-1.83-.87q-1-.35-2.07-0.6l-4.05-.9a22.66,22.66,0,0,1-2.85-.92,9.07,9.07,0,0,1-2.28-1.3,5.46,5.46,0,0,1-1.52-1.9,6.28,6.28,0,0,1-.55-2.77,6.19,6.19,0,0,1,.88-3.35,6.83,6.83,0,0,1,2.28-2.25,10.59,10.59,0,0,1,3.13-1.25,15.17,15.17,0,0,1,3.42-.4,12.63,12.63,0,0,1,3.63.5,8.33,8.33,0,0,1,3,1.55,7.63,7.63,0,0,1,2,2.6,9.37,9.37,0,0,1,.85,3.65h-3.15A6,6,0,0,0,1187.88,1431.95Z" fill="#505050"/><path d="M1201.94,1426.92v4.9h0.1a8.43,8.43,0,0,1,3.58-4.17,10.79,10.79,0,0,1,5.63-1.47,11.23,11.23,0,0,1,5.13,1.1,10.53,10.53,0,0,1,3.63,3,12.67,12.67,0,0,1,2.15,4.35,19.87,19.87,0,0,1,0,10.45,12.68,12.68,0,0,1-2.15,4.35,10.27,10.27,0,0,1-3.62,3,12.23,12.23,0,0,1-7.93.72,9.86,9.86,0,0,1-2.6-1,8.56,8.56,0,0,1-2.12-1.75,7.44,7.44,0,0,1-1.42-2.45h-0.1v14.4H1199v-35.3h2.9Zm17.28,8.92a11,11,0,0,0-1.5-3.53,8.27,8.27,0,0,0-2.62-2.52,7.25,7.25,0,0,0-3.85-1,9.45,9.45,0,0,0-4.35.9,7.57,7.57,0,0,0-2.8,2.4,9.47,9.47,0,0,0-1.47,3.5,20.17,20.17,0,0,0-.43,4.2,16.9,16.9,0,0,0,.48,4,10.35,10.35,0,0,0,1.55,3.52,8.35,8.35,0,0,0,2.8,2.53,8.46,8.46,0,0,0,4.22,1,7.25,7.25,0,0,0,3.85-1,8.26,8.26,0,0,0,2.63-2.53,11,11,0,0,0,1.5-3.52A16.88,16.88,0,0,0,1219.22,1435.85Z" fill="#505050"/><path d="M1232,1444.2a9.67,9.67,0,0,0,1.52,3.28,8.73,8.73,0,0,0,2.65,2.4,7.42,7.42,0,0,0,3.85.95,7.65,7.65,0,0,0,5.4-1.8,9.46,9.46,0,0,0,2.7-4.8h3.15a12.58,12.58,0,0,1-3.67,6.8q-2.67,2.4-7.58,2.4a12,12,0,0,1-5.27-1.08,9.69,9.69,0,0,1-3.62-3,12.85,12.85,0,0,1-2.08-4.35,19.81,19.81,0,0,1-.67-5.23,18.78,18.78,0,0,1,.67-5,13.46,13.46,0,0,1,2.08-4.37,10.4,10.4,0,0,1,3.63-3.1,11.14,11.14,0,0,1,5.27-1.17,10.2,10.2,0,0,1,8.88,4.52,13.58,13.58,0,0,1,2,4.65,20.44,20.44,0,0,1,.5,5.33h-19.85A13.89,13.89,0,0,0,1232,1444.2Zm15.6-9.62a9.48,9.48,0,0,0-1.62-2.92,8.08,8.08,0,0,0-2.55-2,7.3,7.3,0,0,0-3.4-.78,7.41,7.41,0,0,0-3.45.78,8.07,8.07,0,0,0-2.55,2,10.21,10.21,0,0,0-1.67,3,14.38,14.38,0,0,0-.83,3.42h16.7A11.4,11.4,0,0,0,1247.63,1434.57Z" fill="#505050"/><path d="M1273.7,1430.47a6.86,6.86,0,0,0-4.9-1.65,8,8,0,0,0-4,1,8.69,8.69,0,0,0-2.82,2.5,11.35,11.35,0,0,0-1.7,3.53,14.39,14.39,0,0,0,0,8,11.33,11.33,0,0,0,1.7,3.53,8.67,8.67,0,0,0,2.82,2.5,8,8,0,0,0,4,.95,7,7,0,0,0,2.75-.55,7.4,7.4,0,0,0,2.3-1.52,8.18,8.18,0,0,0,1.65-2.33,8.62,8.62,0,0,0,.8-3h3.15a11.9,11.9,0,0,1-3.45,7.33,10.11,10.11,0,0,1-7.2,2.63,12.1,12.1,0,0,1-5.23-1.08,11.11,11.11,0,0,1-3.82-2.92,12.75,12.75,0,0,1-2.35-4.33,17.77,17.77,0,0,1,0-10.55,12.75,12.75,0,0,1,2.35-4.33,11.39,11.39,0,0,1,3.82-3,11.88,11.88,0,0,1,5.23-1.1,11.21,11.21,0,0,1,7,2.2,9.39,9.39,0,0,1,3.43,6.65h-3.15A8.67,8.67,0,0,0,1273.7,1430.47Z" fill="#505050"/><path d="M1289,1417v5h-3.15v-5H1289Zm0,9.9v25.8h-3.15v-25.8H1289Z" fill="#505050"/><path d="M1299.75,1426.92v4.35h0.15a9.89,9.89,0,0,1,3.28-3.75,9.16,9.16,0,0,1,5.18-1.35,8.8,8.8,0,0,1,4.63,1.25,6.13,6.13,0,0,1,2.77,3.8,7.91,7.91,0,0,1,3.4-3.8,9.74,9.74,0,0,1,4.8-1.25q8.55,0,8.55,9v17.5h-3.15v-17.35a7.62,7.62,0,0,0-1.35-4.87q-1.35-1.68-4.75-1.68a6.75,6.75,0,0,0-3.4.78,6,6,0,0,0-2.15,2.08,8.84,8.84,0,0,0-1.12,3,18.21,18.21,0,0,0-.33,3.48v14.6h-3.15v-17.5a10.87,10.87,0,0,0-.28-2.47,5.76,5.76,0,0,0-.9-2.05,4.28,4.28,0,0,0-1.67-1.37,5.91,5.91,0,0,0-2.55-.5,7.79,7.79,0,0,0-3.47.73,6.38,6.38,0,0,0-2.4,2,8.84,8.84,0,0,0-1.37,3,14.89,14.89,0,0,0-.45,3.77v14.4h-3.15v-25.8h2.9Z" fill="#505050"/><path d="M1342.8,1444.2a9.67,9.67,0,0,0,1.52,3.28,8.73,8.73,0,0,0,2.65,2.4,7.42,7.42,0,0,0,3.85.95,7.65,7.65,0,0,0,5.4-1.8,9.46,9.46,0,0,0,2.7-4.8h3.15a12.58,12.58,0,0,1-3.67,6.8q-2.67,2.4-7.58,2.4a12,12,0,0,1-5.27-1.08,9.69,9.69,0,0,1-3.62-3,12.85,12.85,0,0,1-2.08-4.35,19.81,19.81,0,0,1-.67-5.23,18.78,18.78,0,0,1,.67-5,13.46,13.46,0,0,1,2.08-4.37,10.4,10.4,0,0,1,3.63-3.1,11.14,11.14,0,0,1,5.27-1.17,10.2,10.2,0,0,1,8.88,4.52,13.58,13.58,0,0,1,2,4.65,20.44,20.44,0,0,1,.5,5.33h-19.85A13.89,13.89,0,0,0,1342.8,1444.2Zm15.6-9.62a9.48,9.48,0,0,0-1.62-2.92,8.08,8.08,0,0,0-2.55-2,7.3,7.3,0,0,0-3.4-.78,7.41,7.41,0,0,0-3.45.78,8.07,8.07,0,0,0-2.55,2,10.21,10.21,0,0,0-1.67,3,14.38,14.38,0,0,0-.83,3.42H1359A11.4,11.4,0,0,0,1358.4,1434.57Z" fill="#505050"/><path d="M1371.71,1426.92v4.45h0.1a7.56,7.56,0,0,1,3.2-3.78,9.4,9.4,0,0,1,5.05-1.42,12.72,12.72,0,0,1,4.52.7,7.17,7.17,0,0,1,2.92,2,7.38,7.38,0,0,1,1.55,3.13,17.66,17.66,0,0,1,.45,4.15v16.6h-3.15v-16.1a15,15,0,0,0-.3-3.08,6.53,6.53,0,0,0-1.05-2.48,5.09,5.09,0,0,0-2-1.65,7.43,7.43,0,0,0-3.17-.6,8,8,0,0,0-3.37.68,7.27,7.27,0,0,0-2.5,1.85,8.53,8.53,0,0,0-1.6,2.8,11.37,11.37,0,0,0-.62,3.53v15h-3.15v-25.8h3.15Z" fill="#505050"/><path d="M1430.16,1430.47a6.86,6.86,0,0,0-4.9-1.65,8,8,0,0,0-4,1,8.69,8.69,0,0,0-2.82,2.5,11.35,11.35,0,0,0-1.7,3.53,14.39,14.39,0,0,0,0,8,11.33,11.33,0,0,0,1.7,3.53,8.67,8.67,0,0,0,2.82,2.5,8,8,0,0,0,4,.95,7,7,0,0,0,2.75-.55,7.4,7.4,0,0,0,2.3-1.52,8.18,8.18,0,0,0,1.65-2.33,8.62,8.62,0,0,0,.8-3h3.15a11.9,11.9,0,0,1-3.45,7.33,10.11,10.11,0,0,1-7.2,2.63,12.1,12.1,0,0,1-5.23-1.08,11.11,11.11,0,0,1-3.82-2.92,12.75,12.75,0,0,1-2.35-4.33,17.77,17.77,0,0,1,0-10.55,12.75,12.75,0,0,1,2.35-4.33,11.39,11.39,0,0,1,3.82-3,11.88,11.88,0,0,1,5.23-1.1,11.21,11.21,0,0,1,7,2.2,9.39,9.39,0,0,1,3.43,6.65h-3.15A8.67,8.67,0,0,0,1430.16,1430.47Z" fill="#505050"/><path d="M1458.47,1427.27a11.4,11.4,0,0,1,3.83,3,12.78,12.78,0,0,1,2.35,4.33,17.79,17.79,0,0,1,0,10.55,12.78,12.78,0,0,1-2.35,4.33,11.12,11.12,0,0,1-3.83,2.92,13.23,13.23,0,0,1-10.45,0,11.11,11.11,0,0,1-3.83-2.92,12.77,12.77,0,0,1-2.35-4.33,17.79,17.79,0,0,1,0-10.55,12.77,12.77,0,0,1,2.35-4.33,11.4,11.4,0,0,1,3.83-3A13,13,0,0,1,1458.47,1427.27Zm-9.17,2.5a8.69,8.69,0,0,0-2.83,2.5,11.35,11.35,0,0,0-1.7,3.53,14.37,14.37,0,0,0,0,8,11.32,11.32,0,0,0,1.7,3.53,8.66,8.66,0,0,0,2.83,2.5,8.69,8.69,0,0,0,7.9,0,8.67,8.67,0,0,0,2.83-2.5,11.35,11.35,0,0,0,1.7-3.53,14.37,14.37,0,0,0,0-8,11.37,11.37,0,0,0-1.7-3.53,8.7,8.7,0,0,0-2.83-2.5A8.68,8.68,0,0,0,1449.3,1429.77Z" fill="#505050"/><path d="M1475,1426.92v4.35h0.15a9.88,9.88,0,0,1,3.28-3.75,9.15,9.15,0,0,1,5.17-1.35,8.79,8.79,0,0,1,4.63,1.25,6.13,6.13,0,0,1,2.78,3.8,7.91,7.91,0,0,1,3.4-3.8,9.74,9.74,0,0,1,4.8-1.25q8.55,0,8.55,9v17.5h-3.15v-17.35a7.62,7.62,0,0,0-1.35-4.87q-1.35-1.68-4.75-1.68a6.75,6.75,0,0,0-3.4.78,6,6,0,0,0-2.15,2.08,8.84,8.84,0,0,0-1.12,3,18.21,18.21,0,0,0-.32,3.48v14.6h-3.15v-17.5a10.81,10.81,0,0,0-.28-2.47,5.76,5.76,0,0,0-.9-2.05,4.29,4.29,0,0,0-1.67-1.37,5.92,5.92,0,0,0-2.55-.5,7.79,7.79,0,0,0-3.47.73,6.4,6.4,0,0,0-2.4,2,8.86,8.86,0,0,0-1.37,3,14.94,14.94,0,0,0-.45,3.77v14.4h-3.15v-25.8h2.9Z" fill="#505050"/><path d="M1518.78,1417v5h-3.15v-5h3.15Zm0,9.9v25.8h-3.15v-25.8h3.15Z" fill="#505050"/><path d="M1529.79,1426.92v4.45h0.1a7.56,7.56,0,0,1,3.2-3.78,9.4,9.4,0,0,1,5.05-1.42,12.72,12.72,0,0,1,4.52.7,7.17,7.17,0,0,1,2.92,2,7.38,7.38,0,0,1,1.55,3.13,17.66,17.66,0,0,1,.45,4.15v16.6h-3.15v-16.1a15,15,0,0,0-.3-3.08,6.53,6.53,0,0,0-1.05-2.48,5.09,5.09,0,0,0-2-1.65,7.43,7.43,0,0,0-3.17-.6,8,8,0,0,0-3.37.68,7.27,7.27,0,0,0-2.5,1.85,8.53,8.53,0,0,0-1.6,2.8,11.37,11.37,0,0,0-.62,3.53v15h-3.15v-25.8h3.15Z" fill="#505050"/><path d="M1576.61,1455.77a10.05,10.05,0,0,1-2,3.9,8.62,8.62,0,0,1-3.53,2.45,14.69,14.69,0,0,1-5.33.85,16,16,0,0,1-3.8-.45,10.81,10.81,0,0,1-3.33-1.4,8.28,8.28,0,0,1-2.45-2.43,7.23,7.23,0,0,1-1.12-3.52h3.15a5.59,5.59,0,0,0,1,2.42,5.83,5.83,0,0,0,1.75,1.58,7.79,7.79,0,0,0,2.27.88,11.87,11.87,0,0,0,2.55.27q4.4,0,6.35-2.5t2-7.2v-3.5H1574a9.22,9.22,0,0,1-3.22,3.85,8.61,8.61,0,0,1-5,1.45,12.47,12.47,0,0,1-5.3-1,9.83,9.83,0,0,1-3.62-2.83,11.51,11.51,0,0,1-2.08-4.22,19.91,19.91,0,0,1-.65-5.17,16.1,16.1,0,0,1,.77-5,12.47,12.47,0,0,1,2.25-4.15,10.49,10.49,0,0,1,3.65-2.8,11.55,11.55,0,0,1,5-1,9.09,9.09,0,0,1,2.73.4,8.65,8.65,0,0,1,2.33,1.13,10.1,10.1,0,0,1,1.88,1.68,7.63,7.63,0,0,1,1.27,2h0.1v-4.45h3.15v23.7A19.63,19.63,0,0,1,1576.61,1455.77Zm-7.22-6.87a8.21,8.21,0,0,0,2.6-2.3,10.11,10.11,0,0,0,1.58-3.28,13.86,13.86,0,0,0,.53-3.8,16.45,16.45,0,0,0-.45-3.8,11,11,0,0,0-1.45-3.45,7.87,7.87,0,0,0-2.58-2.5,7.28,7.28,0,0,0-3.83-1,7.56,7.56,0,0,0-3.85.93,8.21,8.21,0,0,0-2.65,2.42,10.16,10.16,0,0,0-1.52,3.42,16.29,16.29,0,0,0-.48,3.92,14.51,14.51,0,0,0,.5,3.8,9.73,9.73,0,0,0,1.55,3.28,8,8,0,0,0,2.65,2.3,7.8,7.8,0,0,0,3.8.88A7.19,7.19,0,0,0,1569.38,1448.9Z" fill="#505050"/><path d="M1617,1431.95a5.12,5.12,0,0,0-1.48-1.77,6.16,6.16,0,0,0-2.12-1,9.74,9.74,0,0,0-2.55-.33,10.31,10.31,0,0,0-2.12.23,6.52,6.52,0,0,0-2,.75,4.25,4.25,0,0,0-1.45,1.38,3.78,3.78,0,0,0-.55,2.1,3,3,0,0,0,.52,1.78,4.66,4.66,0,0,0,1.33,1.22,8.36,8.36,0,0,0,1.75.83q0.95,0.33,1.75.53l4.2,0.95a12,12,0,0,1,2.68.73,8.64,8.64,0,0,1,2.35,1.38,6.74,6.74,0,0,1,1.67,2.1,6.33,6.33,0,0,1,.65,3,6.47,6.47,0,0,1-.95,3.58,7.75,7.75,0,0,1-2.43,2.4,10.28,10.28,0,0,1-3.32,1.33,17.25,17.25,0,0,1-3.65.4,11.85,11.85,0,0,1-7.37-2.15q-2.82-2.15-3.22-6.9h3.15a6.21,6.21,0,0,0,2.32,4.82,8.43,8.43,0,0,0,5.28,1.63,11.79,11.79,0,0,0,2.38-.25,7.61,7.61,0,0,0,2.28-.85,5.46,5.46,0,0,0,1.72-1.53,3.76,3.76,0,0,0,.67-2.27,3.62,3.62,0,0,0-.48-1.92,4.14,4.14,0,0,0-1.27-1.3,8.13,8.13,0,0,0-1.83-.87q-1-.35-2.07-0.6l-4.05-.9a22.6,22.6,0,0,1-2.85-.92,9.07,9.07,0,0,1-2.28-1.3,5.46,5.46,0,0,1-1.53-1.9,6.28,6.28,0,0,1-.55-2.77,6.19,6.19,0,0,1,.88-3.35,6.83,6.83,0,0,1,2.27-2.25,10.61,10.61,0,0,1,3.13-1.25,15.18,15.18,0,0,1,3.42-.4,12.63,12.63,0,0,1,3.63.5,8.33,8.33,0,0,1,3,1.55,7.62,7.62,0,0,1,2,2.6,9.35,9.35,0,0,1,.85,3.65h-3.15A6,6,0,0,0,1617,1431.95Z" fill="#505050"/><path d="M1644.12,1427.27a11.4,11.4,0,0,1,3.83,3,12.78,12.78,0,0,1,2.35,4.33,17.79,17.79,0,0,1,0,10.55,12.78,12.78,0,0,1-2.35,4.33,11.11,11.11,0,0,1-3.83,2.92,13.23,13.23,0,0,1-10.45,0,11.09,11.09,0,0,1-3.83-2.92,12.75,12.75,0,0,1-2.35-4.33,17.82,17.82,0,0,1,0-10.55,12.75,12.75,0,0,1,2.35-4.33,11.38,11.38,0,0,1,3.83-3A13,13,0,0,1,1644.12,1427.27Zm-9.17,2.5a8.68,8.68,0,0,0-2.83,2.5,11.34,11.34,0,0,0-1.7,3.53,14.37,14.37,0,0,0,0,8,11.32,11.32,0,0,0,1.7,3.53,8.66,8.66,0,0,0,2.83,2.5,8.69,8.69,0,0,0,7.9,0,8.67,8.67,0,0,0,2.83-2.5,11.32,11.32,0,0,0,1.7-3.53,14.35,14.35,0,0,0,0-8,11.34,11.34,0,0,0-1.7-3.53,8.7,8.7,0,0,0-2.83-2.5A8.68,8.68,0,0,0,1635,1429.77Z" fill="#505050"/><path d="M1673.87,1427.27a11.4,11.4,0,0,1,3.83,3,12.78,12.78,0,0,1,2.35,4.33,17.79,17.79,0,0,1,0,10.55,12.78,12.78,0,0,1-2.35,4.33,11.11,11.11,0,0,1-3.83,2.92,13.23,13.23,0,0,1-10.45,0,11.09,11.09,0,0,1-3.83-2.92,12.75,12.75,0,0,1-2.35-4.33,17.82,17.82,0,0,1,0-10.55,12.75,12.75,0,0,1,2.35-4.33,11.38,11.38,0,0,1,3.83-3A13,13,0,0,1,1673.87,1427.27Zm-9.17,2.5a8.68,8.68,0,0,0-2.83,2.5,11.34,11.34,0,0,0-1.7,3.53,14.37,14.37,0,0,0,0,8,11.32,11.32,0,0,0,1.7,3.53,8.66,8.66,0,0,0,2.83,2.5,8.69,8.69,0,0,0,7.9,0,8.67,8.67,0,0,0,2.83-2.5,11.32,11.32,0,0,0,1.7-3.53,14.35,14.35,0,0,0,0-8,11.34,11.34,0,0,0-1.7-3.53,8.7,8.7,0,0,0-2.83-2.5A8.68,8.68,0,0,0,1664.7,1429.77Z" fill="#505050"/><path d="M1690.62,1426.92v4.45h0.1a7.55,7.55,0,0,1,3.2-3.78,9.4,9.4,0,0,1,5-1.42,12.71,12.71,0,0,1,4.53.7,7.16,7.16,0,0,1,2.92,2A7.36,7.36,0,0,1,1708,1432a17.55,17.55,0,0,1,.45,4.15v16.6h-3.15v-16.1a14.9,14.9,0,0,0-.3-3.08,6.5,6.5,0,0,0-1-2.48,5.1,5.1,0,0,0-2-1.65,7.44,7.44,0,0,0-3.18-.6,8,8,0,0,0-3.37.68,7.3,7.3,0,0,0-2.5,1.85,8.53,8.53,0,0,0-1.6,2.8,11.4,11.4,0,0,0-.62,3.53v15h-3.15v-25.8h3.15Z" fill="#505050"/><g opacity="0.76"><path d="M1440,1226.56a3.49,3.49,0,0,1-3.48-3.48V1204.7a3.48,3.48,0,1,1,7,0v18.38A3.49,3.49,0,0,1,1440,1226.56Z" fill="#fff" opacity="0.6"/><path d="M1440,1318.23a3.49,3.49,0,0,1-3.48-3.48v-18.38a3.48,3.48,0,0,1,7,0v18.38A3.49,3.49,0,0,1,1440,1318.23Z" fill="#fff"/><path d="M1385,1263.21a3.48,3.48,0,1,1,0-7h18.38a3.48,3.48,0,0,1,0,7H1385Z" fill="#fff" opacity="0.35"/><path d="M1476.65,1263.21a3.48,3.48,0,1,1,0-7H1495a3.48,3.48,0,0,1,0,7h-18.38Z" fill="#fff" opacity="0.8"/><path d="M1392.36,1290.74a3.49,3.49,0,0,1-3-1.74,3.48,3.48,0,0,1,1.27-4.76l15.91-9.19a3.48,3.48,0,1,1,3.48,6l-15.91,9.19A3.49,3.49,0,0,1,1392.36,1290.74Z" fill="#fff" opacity="0.3"/><path d="M1471.74,1244.87a3.48,3.48,0,0,1-1.75-6.5l15.91-9.19a3.48,3.48,0,0,1,3.49,6l-15.91,9.19A3.48,3.48,0,0,1,1471.74,1244.87Z" fill="#fff" opacity="0.7"/><path d="M1467.53,1310.86a3.5,3.5,0,0,1-3-1.74l-9.19-15.91a3.48,3.48,0,0,1,3-5.22,3.5,3.5,0,0,1,3,1.74l9.19,15.91A3.49,3.49,0,0,1,1467.53,1310.86Z" fill="#fff" opacity="0.9"/><path d="M1421.67,1231.48a3.5,3.5,0,0,1-3-1.74l-9.19-15.91a3.48,3.48,0,1,1,6-3.48l9.19,15.91A3.49,3.49,0,0,1,1421.67,1231.48Z" fill="#fff" opacity="0.5"/><path d="M1412.53,1310.89a3.48,3.48,0,0,1-3-5.22l9.17-15.92a3.5,3.5,0,0,1,3-1.75,3.48,3.48,0,0,1,3,5.22l-9.17,15.92A3.5,3.5,0,0,1,1412.53,1310.89Z" fill="#fff" opacity="0.2"/><path d="M1458.29,1231.45a3.48,3.48,0,0,1-3-5.22l9.17-15.92a3.48,3.48,0,0,1,4.76-1.28,3.48,3.48,0,0,1,1.28,4.75l-9.17,15.92A3.5,3.5,0,0,1,1458.29,1231.45Z" fill="#fff" opacity="0.65"/><path d="M1487.67,1290.68a3.48,3.48,0,0,1-1.73-.47L1470,1281a3.48,3.48,0,1,1,3.48-6l15.92,9.17A3.49,3.49,0,0,1,1487.67,1290.68Z" fill="#fff" opacity="0.85"/><path d="M1408.24,1244.92a3.48,3.48,0,0,1-1.73-.47l-15.92-9.17a3.48,3.48,0,1,1,3.48-6l15.92,9.17A3.49,3.49,0,0,1,1408.24,1244.92Z" fill="#fff" opacity="0.45"/></g></svg>