<?xml version="1.0" encoding="utf-8"?>
<!-- Generator: Adobe Illustrator 19.2.0, SVG Export Plug-In . SVG Version: 6.00 Build 0)  -->
<svg version="1.1" id="Layer_1" xmlns="http://www.w3.org/2000/svg" xmlns:xlink="http://www.w3.org/1999/xlink" x="0px" y="0px"
	 viewBox="0 0 595.3 841.9" enable-background="new 0 0 595.3 841.9" xml:space="preserve">
<rect fill="#FFED00" width="595.3" height="841.9"/>
<g>
	<path d="M151.1,823.6l-0.5,2h-1.4l2-8.2h1.9l2,8.2h-1.4l-0.5-2H151.1z M152.2,819.4l-0.7,2.9h1.4L152.2,819.4z"/>
	<path d="M173.5,823.2c0,1.3-1.1,2.4-2.5,2.4h-2.4v-8.2h2.4c1.4,0,2.5,1.1,2.5,2.5c0,0.7-0.3,1.2-0.7,1.6
		C173.2,822,173.5,822.5,173.5,823.2z M170,821h1c0.6,0,1-0.5,1-1c0-0.6-0.5-1-1-1h-1V821z M171,824.2c0.6,0,1-0.5,1-1s-0.5-1-1-1
		h-1v2H171z"/>
	<path d="M190.5,819.9c0-0.6-0.5-1-1-1c-0.5,0-1,0.5-1,1v3.4c0,0.6,0.5,1,1,1c0.6,0,1-0.5,1-1v-0.8h1.4v0.8c0,1.3-1.1,2.4-2.5,2.4
		c-1.3,0-2.4-1.1-2.4-2.4v-3.4c0-1.4,1.1-2.5,2.4-2.5c1.4,0,2.5,1.1,2.5,2.5v0.8h-1.4V819.9z"/>
	<path d="M209.5,821.7v1.4h-3.9v-1.4H209.5z"/>
	<path d="M228.3,825.7h-1.5l-1.1-2.6l-1.1,2.6h-1.5l1.9-4.2l-1.9-4h1.5l1.1,2.5l1.1-2.5h1.5l-1.9,4L228.3,825.7z"/>
	<path d="M244.6,822.4v3.3h-1.4v-3.3l-1.9-4.9h1.5l1.1,3l1.1-3h1.5L244.6,822.4z"/>
	<path d="M261.2,824.2h2.8v1.4h-4.4v-1.4l2.8-5.3h-2.8v-1.4h4.4v1.4L261.2,824.2z"/>
	<path d="M281.7,821.7v1.4h-3.9v-1.4H281.7z"/>
	<path d="M295.4,824.2h1.7v-5.3h-1.7v-1.4h3.2v6.7h1.7v1.4h-4.9V824.2z"/>
	<path d="M315.6,824.2h3.4v1.4h-4.9v-1.1c0-1.3,0.7-2.5,2.5-3.3c0.4-0.2,1-0.6,1-1.3c0-0.5-0.5-1-1-1c-0.5,0-1,0.5-1,1h-1.4
		c0-1.4,1.1-2.5,2.5-2.5c1.4,0,2.5,1.1,2.5,2.5c0,1.8-1.4,2.2-2,2.6C316.5,822.7,315.6,823.3,315.6,824.2z"/>
	<path d="M335.3,820.9c0.5,0,1-0.4,1-0.9c0-0.6-0.4-1-1-1c-0.6,0-0.9,0.5-0.9,1h-1.5c0-1.4,1.1-2.5,2.5-2.5c1.4,0,2.5,1.1,2.5,2.5
		c0,0.6-0.2,1.2-0.6,1.7c0.4,0.4,0.6,1,0.6,1.6c0,1.4-1.1,2.5-2.5,2.5c-1.4,0-2.5-1.1-2.5-2.5h1.4c0,0.5,0.5,1,1,1c0.6,0,1-0.4,1-1
		c0-0.5-0.5-0.9-1-0.9h-0.6v-1.4H335.3z"/>
	<path d="M355.3,821.7v1.4h-3.9v-1.4H355.3z"/>
	<path d="M370.7,822.7v3h-1.4v-8.2h2.4c1.4,0,2.5,1.1,2.5,2.5v0.3c0,0.9-0.5,1.8-1.4,2.2l1.4,3.2h-1.6l-1.3-3H370.7z M370.7,821.3h1
		c0.6,0,1-0.5,1-1V820c0-0.6-0.5-1-1-1h-1V821.3z"/>
	<path d="M389.4,820.9h2.8v1.4h-2.8v1.9h2.8v1.4H388v-8.2h4.2v1.4h-2.8V820.9z"/>
	<path d="M410.8,823.2c0,1.3-1.1,2.4-2.5,2.4c-1.3,0-2.4-1.1-2.4-2.4V820c0-1.4,1.1-2.5,2.4-2.5c1.4,0,2.5,1.1,2.5,2.5h-1.4
		c0-0.6-0.5-1-1-1c-0.6,0-1,0.5-1,1v3.3c0,0.5,0.5,1,1,1c0.6,0,1-0.5,1-1v-0.8h-1V821h2.5V823.2z"/>
	<path d="M428.8,825.7h-4.2v-8.2h1.4v6.7h2.8V825.7z"/>
	<path d="M447.2,819.9v3.4c0,1.3-1.1,2.4-2.5,2.4c-1.3,0-2.4-1.1-2.4-2.4v-3.4c0-1.4,1.1-2.5,2.4-2.5
		C446.1,817.4,447.2,818.5,447.2,819.9z M445.8,823.3v-3.4c0-0.6-0.5-1-1-1c-0.6,0-1,0.5-1,1v3.4c0,0.6,0.5,1,1,1
		C445.3,824.3,445.8,823.8,445.8,823.3z"/>
</g>
<g>
	<rect x="135.9" y="809.8" width="324.7" height="1"/>
</g>
<g>
	<path fill="#E30613" d="M557.8,778.4H388.2v-54.8c-40.4,39.1-93.9,60-144.8,60c-120,0-204.8-77-204.8-208.7
		c0-147.4,100.5-223.1,271.4-223.1h78.3v-57.4c0-49.6-33.9-83.5-84.8-83.5c-49.6,0-83.5,33.9-83.5,83.5H50.3
		C50.3,143,152.1,41.2,303.4,41.2s251.8,99.2,254.4,247.9V778.4z M388.2,530.5v-37.8h-31.3c-50.9,0-146.1-1.3-146.1,70.5
		c0,41.7,27.4,66.5,69.1,66.5C334.7,629.6,388.2,589.2,388.2,530.5z"/>
</g>
<g>
	<path d="M204.7,594.2l-44.8,184H30.7l180-737h175.1l180,737H436.5l-44.8-184H204.7z M298.2,212.3l-63.7,262.6h128.3L298.2,212.3z"
		/>
</g>
<g>
</g>
<g>
</g>
<g>
</g>
<g>
</g>
<g>
</g>
<g>
</g>
</svg>
