<?xml version="1.0" encoding="utf-8"?>
<!-- Generator: Adobe Illustrator 19.1.0, SVG Export Plug-In . SVG Version: 6.00 Build 0)  -->
<svg version="1.1" id="Layer_1" xmlns="http://www.w3.org/2000/svg" xmlns:xlink="http://www.w3.org/1999/xlink" x="0px" y="0px"
	 viewBox="0 0 1273.3 326.5" enable-background="new 0 0 1273.3 326.5" xml:space="preserve">
<path d="M110.6,225.5h10.3l-30.8,85H79.8L110.6,225.5z M62,303.5h13v-82H62V303.5z M162,263.5c3.5-1.6,6.4-3.9,8.7-7
	c2.2-3.1,3.4-6.4,3.4-9.9c0-7-2.2-12.4-6.7-16.4c-4.5-3.9-10.6-5.9-18.4-5.9c-4.7,0-9,0.9-12.8,2.8c-3.8,1.8-6.8,4.3-8.9,7.6
	c-2.1,3.3-3.2,6.8-3.2,10.8h13.1c0-3,1.1-5.8,3.4-7.8c2.3-2,5.1-3,8.6-3c4,0,7,1.1,8.9,3.1c2,2.1,2.9,5,2.9,8.7
	c0,3.9-1.2,6.8-3.5,8.8c-2.3,2-5.5,3.1-9.5,3.1h-8v10h7.7c4.8,0,8.4,1.3,10.8,3.5c2.4,2.2,3.7,5.5,3.7,9.6c0,4.1-1.2,7.2-3.5,9.4
	c-2.3,2.1-5.5,3.2-9.6,3.2c-3.9,0-7-1.1-9.3-3.3c-2.3-2.1-3.5-4.5-3.5-8.5h-13.1c0,7,2.4,12.1,7.2,16.1c4.8,4,11,6.1,18.5,6.1
	c7.8,0,14.2-2.1,19-6.2c4.8-4.2,7.2-9.7,7.2-16.7c0-4.4-1.1-8.1-3.4-11.3C169.6,267.3,166.3,265,162,263.5z M384.6,259.5
	c2.3-3.1,5.6-4.6,9.8-4.6c3.3,0,6,1.2,8.2,3.3s3.3,5.3,3.4,8.3h12.3c-0.2-7-2.5-11.9-6.8-16c-4.4-4-10-6.1-16.9-6.1
	c-8.2,0-14.7,2.6-19.4,8c-4.7,5.3-7.2,12.4-7.2,21.2v1.3c0,9.3,2.5,16.5,7.2,21.8c4.8,5.3,11.3,7.9,19.4,7.9c4.2,0,8.1-0.9,11.7-2.7
	s6.5-4.3,8.6-7.4c2.1-3.1,3.3-6.1,3.4-10.1h-12.3c-0.1,3-1.3,5.1-3.4,7c-2.1,1.9-4.9,2.8-8.1,2.8c-4.3,0-7.7-1.6-10-4.7
	c-2.3-3.1-3.5-7.8-3.5-14.1v-2.1C381,267.2,382.3,262.6,384.6,259.5z M181,235.5h40.5l-31.2,68H204l31-70.8v-7.2h-54V235.5z
	 M471,290.2c0,5.2,1,9.4,3,12.5v0.8h-13.8c-0.6-1-1.1-2.8-1.5-5.4c-4.2,4.3-9.2,6.6-15.3,6.6c-5.8,0-10.6-1.6-14.3-5
	s-5.5-7.4-5.5-12.3c0-6.2,2.3-10.9,6.9-14.2c4.6-3.3,11.2-4.8,19.7-4.8h7.7v-4.2c0-3-0.7-5.4-2.4-7.2c-1.7-1.8-4.1-2.7-7.5-2.7
	c-3,0-5.4,0.8-7.3,2.3c-1.9,1.5-2.8,2.8-2.8,5.8h-13.1c0-3,1-6.3,3.1-9.1c2.1-2.8,5-5.1,8.6-6.6c3.6-1.6,7.6-2.4,12.1-2.4
	c6.8,0,12.1,1.7,16.2,5.1c4,3.4,6.1,8.2,6.1,14.4V290.2z M458,276.5h-6.7c-4.8,0-8.5,0.8-10.9,2.4c-2.4,1.7-3.7,4-3.7,7.1
	c0,2.5,0.8,4.5,2.5,6c1.7,1.5,3.9,2.2,6.6,2.2c2.6,0,4.9-0.6,7.2-1.9c2.3-1.3,4-2.9,5-5V276.5z M39.5,245.5H51v56.3
	c0,7.6-2.3,13.6-7,18c-4.7,4.4-11,6.6-19.1,6.6c-4.3,0-8.4-0.9-12.5-2.7c-4.1-1.8-7.2-4.1-9.3-7l6.2-7.8c4,4.8,8.9,7.1,14.8,7.1
	c4.3,0,7.7-1.2,10.2-3.5c2.5-2.3,3.7-5.8,3.7-10.3v-3.9c-4,4.2-8.7,6.3-14.9,6.3c-6.8,0-12.3-2.7-16.6-8.1
	C2.2,291.2,0,283.7,0,274.1c0-9,2.1-16.2,6.4-21.6c4.2-5.4,9.9-8.1,16.9-8.1c6.6,0,11.8,2.3,15.6,6.9L39.5,245.5z M38,261.7
	c-2-4.4-6.2-6.6-11.5-6.6c-4.3,0-7.5,1.7-9.9,5.1c-2.4,3.4-3.6,8.4-3.6,15c0,5.8,1.2,10.4,3.5,13.8c2.4,3.3,5.6,5,9.9,5
	c5.3,0,9.6-2.3,11.6-6.8V261.7z M297.6,243.2c2.9,5.7,4.4,12.1,4.4,19.4v3.9c0,7.4-1.5,13.9-4.4,19.5c-3,5.6-7.2,9.9-12.6,13
	c-5.5,3-11.7,4.5-18.8,4.5H244v-78h22.8c6.9,0,13,1.5,18.4,4.6C290.5,233.2,294.7,237.5,297.6,243.2z M288,262.5
	c0-8.5-1.7-14.9-5.4-19.3c-3.7-4.5-8.9-6.6-15.9-6.6H257v56h9.1c7.1,0,12.4-2.1,16.2-6.6c3.8-4.5,5.6-10.8,5.6-19.1V262.5z
	 M348.2,245.5H360v80h-13v-26.8c-4,4-8.9,6-15,6c-6.9,0-12.6-2.7-16.8-8.1c-4.2-5.4-6.3-12.9-6.3-22.5c0-9.1,2.1-16.3,6.2-21.6
	c4.2-5.3,9.8-8,16.9-8c6.5,0,11.6,2.3,15.4,6.8L348.2,245.5z M347,261.3c-3-4.2-6.4-6.3-11.5-6.3c-4.2,0-7.5,1.7-9.9,5
	c-2.4,3.3-3.6,8.4-3.6,15.3c0,5.9,1.2,10.6,3.6,14c2.3,3.4,5.7,5.1,9.8,5.1c5.2,0,8.6-2.2,11.6-6.6V261.3z M62,156.5
	c0,7.4-1.5,13.9-4.5,19.5c-3,5.6-7.2,9.9-12.7,13c-5.5,3-11.7,4.5-18.8,4.5H4v-78h22.6c6.9,0,13,1.5,18.4,4.6
	c5.4,3.1,9.6,7.4,12.5,13.1c2.9,5.7,4.5,12.1,4.5,19.4V156.5z M48,152.5c0-8.5-1.7-14.9-5.4-19.3c-3.7-4.5-8.9-6.6-15.9-6.6H17v56h9
	c7.1,0,12.5-2.1,16.3-6.6c3.8-4.5,5.7-10.8,5.7-19.1V152.5z M266,193.5h13v-82h-13V193.5z M258,168.5h-37.9c0.4,5,2,8.7,4.8,11.5
	c2.8,2.8,6.3,4.3,10.6,4.3c6,0,10.9-2.4,14.6-7.3l7,6.7c-2.3,3.5-5.4,6.2-9.3,8.1c-3.9,1.9-8.2,2.9-13.1,2.9c-8.3,0-15-2.6-20.1-7.8
	c-5.1-5.2-7.7-12.1-7.7-20.8v-1.6c0-5.8,1.1-11,3.3-15.5c2.2-4.6,5.3-8.1,9.4-10.7c4-2.5,8.6-3.8,13.5-3.8c7.9,0,14,2.5,18.3,7.6
	c4.3,5,6.5,12.2,6.5,21.4V168.5z M245,158.2c0-4.4-1.4-7.6-3.4-9.9c-2-2.2-4.8-3.3-8.4-3.3c-3.6,0-6.5,1.3-8.7,3.9
	c-2.2,2.5-3.6,5.7-4.2,10.7H245V158.2z M410.9,138.3c4-2.5,8.6-3.8,13.5-3.8c7.9,0,14,2.5,18.3,7.6c4.3,5,6.3,12.2,6.3,21.4v5.1
	h-37.7c0.4,5,2,8.7,4.8,11.5c2.8,2.8,6.3,4.3,10.6,4.3c6,0,10.8-2.4,14.6-7.3l7,6.7c-2.3,3.5-5.4,6.2-9.3,8.1
	c-3.9,1.9-8.3,2.9-13.1,2.9c-8.3,0-15-2.6-20.2-7.8c-5.1-5.2-7.8-12.1-7.8-20.8v-1.6c0-5.8,1.2-11,3.4-15.5
	C403.7,144.3,406.8,140.8,410.9,138.3z M411.5,159.5H436v-1.3c0-4.4-1.2-7.6-3.3-9.9c-2-2.2-4.7-3.3-8.3-3.3c-3.6,0-6.5,1.3-8.7,3.9
	C413.5,151.4,412.1,154.5,411.5,159.5z M197.6,115.3c-1.3-1.3-3.1-2-5.5-2c-2.4,0-4.2,0.7-5.5,2c-1.3,1.3-1.9,3-1.9,5
	c0,2,0.6,3.6,1.9,5c1.3,1.3,3.1,2,5.5,2c2.4,0,4.2-0.7,5.5-2c1.3-1.3,1.9-3,1.9-5C199.5,118.3,198.9,116.7,197.6,115.3z M186,193.5
	h13v-58h-13V193.5z M103,158.5v-4.2c0-3-0.8-5.4-2.4-7.2c-1.7-1.8-4.2-2.7-7.6-2.7c-3,0-5.4,0.8-7.3,2.3c-1.9,1.5-2.8,2.8-2.8,5.8
	H69.7c0-3,1-6.3,3.2-9.1c2.1-2.8,5-5.1,8.6-6.6c3.6-1.6,7.7-2.4,12.1-2.4c6.8,0,12.2,1.7,16.2,5.1c4,3.4,6.1,8.2,6.1,14.4v26.2
	c0,5.2,1,9.4,2,12.5v0.8h-12.9c-0.6-1-1.1-2.8-1.5-5.4c-4.2,4.3-9.2,6.6-15.3,6.6c-5.8,0-10.6-1.6-14.3-5c-3.7-3.3-5.5-7.4-5.5-12.3
	c0-6.2,2.3-10.9,6.9-14.2c4.6-3.3,11.2-4.8,19.7-4.8H103z M103,166.5h-6.9c-4.8,0-8.5,0.8-10.9,2.4c-2.4,1.7-3.7,4-3.7,7.1
	c0,2.5,0.8,4.5,2.5,6s3.9,2.2,6.7,2.2c2.6,0,5-0.6,7.2-1.9c2.3-1.3,4.1-2.9,5.1-5V166.5z M175,193.5v-38.3
	c0-13.9-6.5-20.8-18.6-20.8c-7,0-12.7,2.6-17,7.8l-0.4-6.7h-12v58h13v-41.2c2-4.8,6.4-7.1,11.6-7.1c3.6,0,6.3,0.9,7.9,2.7
	c1.6,1.8,2.5,4.5,2.5,8.2v37.5H175z M377,193.5h13v-82h-13V193.5z M997.1,179.9c-2.4,0-4.3,0.7-5.6,2.1c-1.3,1.4-2,3.1-2,5.2
	c0,2.1,0.7,3.8,2,5.1c1.4,1.3,3.2,2,5.5,2c2.4,0,4.3-0.7,5.6-2c1.3-1.3,2-3,2-5.1c0-2.1-0.7-3.8-2-5.2
	C1001.4,180.6,999.6,179.9,997.1,179.9z M978.1,142.4c4,5.3,5.9,12.6,5.9,22v0.8c0,9-2,16.2-6.1,21.5c-4.1,5.4-9.5,8-16.4,8
	c-6.4,0-11.5-2.1-15.5-6.3v27.1h-13v-80h12.5l0.5,5.9c3.8-4.7,9-7,15.6-7C968.7,134.4,974.1,137.1,978.1,142.4z M971.3,164
	c0-5.8-1.2-10.4-3.5-13.8c-2.3-3.4-5.7-5.1-10-5.1c-5.3,0-8.7,2.2-11.7,6.6v25.8c3,4.5,6.5,6.8,11.8,6.8c4.2,0,7.6-1.7,10-5
	C970.2,175.9,971.3,170.8,971.3,164z M1039.6,115.5l-30.8,85h10.3l30.8-85H1039.6z M997.1,134.3c-2.4,0-4.3,0.7-5.6,2.1
	c-1.3,1.4-2,3.1-2,5.2c0,2.1,0.7,3.8,2,5.1c1.4,1.3,3.2,2,5.5,2c2.4,0,4.3-0.7,5.6-2c1.3-1.3,2-3,2-5.1c0-2.1-0.7-3.8-2-5.2
	C1001.4,135,999.6,134.3,997.1,134.3z M916,121.5h-13v14h-9v10h9v32.6c0,11.1,5.2,16.6,15.2,16.6c2.8,0,5.8-0.4,8.8-1.2v-10.1
	c-2,0.4-3.2,0.5-4.7,0.5c-2.3,0-3.9-0.5-4.8-1.5c-0.9-1-1.5-2.6-1.5-4.8v-32.1h11v-10h-11V121.5z M834.2,134.4
	c-6.5,0-11.2,2.5-16.2,7.4v-30.3h-13v82h13v-41.4c3-4.7,6.7-7,11.9-7c3.4,0,5.8,0.8,7.6,2.5c1.7,1.7,2.5,4.5,2.5,8.5v37.4h13v-37.9
	C853,141.5,846.5,134.4,834.2,134.4z M881.4,182.4c-0.9-1-1.4-2.6-1.4-4.8v-32.1h10v-10h-10v-14h-13v14h-9v10h9v32.6
	c0,11.1,5.2,16.6,15.2,16.6c2.8,0,5.8-0.4,8.8-1.2v-10.1c-2,0.4-3.2,0.5-4.7,0.5C884,183.9,882.3,183.4,881.4,182.4z M1251.7,162.1
	l0.1,3.1c0,5.7-1.1,10.8-3.3,15.4c-2.2,4.5-5.3,8-9.4,10.5c-4.1,2.5-8.8,3.7-14.2,3.7c-8.2,0-14.7-2.7-19.6-8.2
	c-4.9-5.5-7.2-12.7-7.2-21.8V164c0-5.7,1-10.8,3.2-15.4c2.3-4.6,5.3-8.1,9.3-10.5c4.1-2.5,8.8-3.7,14.1-3.7c7.8,0,14.2,2.5,19.1,7.6
	C1248.6,147.1,1251.3,153.8,1251.7,162.1z M1238.7,164c0-5.9-1.3-10.5-3.8-14c-2.5-3.4-6-5.2-10.3-5.2c-4.3,0-7.6,1.7-10.2,5.1
	c-2.5,3.4-3.8,8.4-3.8,15.2c0,6,1.2,10.7,3.7,14c2.5,3.4,5.9,5.1,10.3,5.1c4.4,0,7.8-1.7,10.3-5.2
	C1237.5,175.7,1238.7,170.7,1238.7,164z M1265.2,179.9c-2.4,0-4.3,0.7-5.6,2.1c-1.3,1.4-2,3.1-2,5.2c0,2.1,0.7,3.8,2,5.1
	c1.4,1.3,3.2,2,5.5,2c2.4,0,4.3-0.7,5.6-2c1.3-1.3,2-3,2-5.1c0-2.1-0.7-3.8-2-5.2C1269.5,180.6,1267.7,179.9,1265.2,179.9z
	 M1118.4,135.5h11.6v56.3c0,7.6-2.3,13.6-7,18c-4.7,4.4-11.1,6.6-19.1,6.6c-4.3,0-8.4-0.9-12.5-2.7c-4.1-1.8-7.2-4.1-9.3-7l6.2-7.8
	c4,4.8,8.9,7.1,14.8,7.1c4.3,0,7.7-1.2,10.2-3.5c2.5-2.3,3.7-5.8,3.7-10.3v-3.9c-4,4.2-8.7,6.3-15,6.3c-6.8,0-12.3-2.7-16.6-8.1
	c-4.3-5.4-6.5-12.9-6.5-22.5c0-9,2.1-16.2,6.4-21.6c4.2-5.4,9.9-8.1,16.9-8.1c6.6,0,11.8,2.3,15.6,6.9L1118.4,135.5z M1117,151.7
	c-2-4.4-6.3-6.6-11.5-6.6c-4.3,0-7.6,1.7-10,5.1c-2.4,3.4-3.6,8.4-3.6,15c0,5.8,1.2,10.4,3.6,13.8c2.4,3.3,5.7,5,9.9,5
	c5.3,0,9.7-2.3,11.7-6.8V151.7z M1071.1,115.5l-30.8,85h10.3l30.8-85H1071.1z M1192.1,162.1l0.1,3.1c0,5.7-1.1,10.8-3.3,15.4
	c-2.2,4.5-5.4,8-9.5,10.5c-4.1,2.5-8.8,3.7-14.2,3.7c-8.2,0-14.8-2.7-19.7-8.2c-4.9-5.5-7.4-12.7-7.4-21.8V164
	c0-5.7,1.2-10.8,3.4-15.4c2.3-4.6,5.5-8.1,9.6-10.5c4.1-2.5,8.8-3.7,14.1-3.7c7.8,0,14.2,2.5,19.1,7.6
	C1189.1,147.1,1191.7,153.8,1192.1,162.1z M1179.2,164c0-5.9-1.3-10.5-3.8-14c-2.5-3.4-6-5.2-10.3-5.2c-4.3,0-7.6,1.7-10.2,5.1
	c-2.5,3.4-3.8,8.4-3.8,15.2c0,6,1.2,10.7,3.7,14c2.5,3.4,5.9,5.1,10.3,5.1c4.4,0,7.8-1.7,10.3-5.2
	C1177.9,175.7,1179.2,170.7,1179.2,164z M573.2,134.4c-6.5,0-11.2,2.5-16.2,7.4v-30.3h-13v82h13v-41.4c3-4.7,6.7-7,11.9-7
	c3.4,0,5.8,0.8,7.6,2.5c1.7,1.7,2.5,4.5,2.5,8.5v37.4h13v-37.9C592,141.5,585.5,134.4,573.2,134.4z M473,121.5h-13v14h-9v10h9v32.6
	c0,11.1,5.2,16.6,15.2,16.6c2.8,0,5.8-0.4,8.8-1.2v-10.1c-2,0.4-3.2,0.5-4.7,0.5c-2.3,0-3.9-0.5-4.8-1.5c-0.9-1-1.5-2.6-1.5-4.8
	v-32.1h11v-10h-11V121.5z M672,142l-0.3-6.5H659v58h13v-39.6c2-4.6,6.2-6.9,12.2-6.9c1.8,0,3.7,0.1,5.4,0.4l0.1-12.2
	c-1.2-0.5-2.7-0.8-4.6-0.8C679.5,134.4,675.1,137,672,142z M723,147.3l33.2,12.2L723,171.9v12.8l47-20v-10.4l-47-20V147.3z
	 M503.5,149.5c2.3-3.1,5.5-4.6,9.8-4.6c3.3,0,6,1.2,8.1,3.3c2.1,2.1,3.3,5.3,3.4,8.3h12.3c-0.2-7-2.5-11.9-6.8-15.9
	c-4.4-4-10-6.1-16.9-6.1c-8.2,0-14.6,2.6-19.3,8c-4.7,5.3-7,12.4-7,21.2v1.3c0,9.3,2.3,16.5,7.1,21.8c4.8,5.3,11.2,7.9,19.3,7.9
	c4.2,0,8.1-0.9,11.7-2.7c3.6-1.8,6.5-4.3,8.6-7.4c2.1-3.1,3.2-6.1,3.4-10.1h-12.3c-0.1,3-1.3,5.1-3.4,7c-2.1,1.9-4.9,2.8-8.1,2.8
	c-4.3,0-7.6-1.6-9.8-4.7c-2.3-3.1-3.4-7.8-3.4-14.1v-2.1C500,157.2,501.2,152.6,503.5,149.5z M334,126.5h36v-11h-50v78h14v-33h31
	v-11h-31V126.5z M644.7,142c4.3,5,6.3,12.2,6.3,21.4v5.1h-37.5c0.4,5,2,8.7,4.8,11.5c2.8,2.8,6.3,4.3,10.6,4.3
	c6,0,10.8-2.4,14.6-7.3l7,6.7c-2.3,3.5-5.5,6.2-9.3,8.1c-3.9,1.9-8.3,2.9-13.1,2.9c-8.3,0-15.1-2.6-20.2-7.8
	c-5.1-5.2-7.9-12.1-7.9-20.8v-1.6c0-5.8,1.3-11,3.5-15.5c2.2-4.6,5.5-8.1,9.6-10.7c4-2.5,8.6-3.8,13.5-3.8
	C634.5,134.4,640.4,137,644.7,142z M639,158.2c-1-4.4-1.7-7.6-3.7-9.9c-2-2.2-5.1-3.3-8.7-3.3c-3.6,0-6.5,1.3-8.7,3.9
	c-2.2,2.5-3.6,5.7-4.2,10.7H639V158.2z M1127.6,49.7l21.6-24.2h-15.7l-16.2,18.1l-4.2,5.1V1.5h-13v82h13V64.7l6-6l17.4,24.9h15.1
	L1127.6,49.7z M431.5,76.5c-4.2-5.5-6.3-12.9-6.3-22.3c0-9,2.1-16.1,6.2-21.6c4.2-5.4,9.7-8.1,16.7-8.1c6.2,0,10.9,2.1,14.9,6.4V1.5
	h13v82h-11.7l-0.6-6c-3.9,4.7-9.1,7.1-15.6,7.1C441.3,84.7,435.7,82,431.5,76.5z M438.3,55.3c0,5.9,1.1,10.5,3.4,13.8
	c2.3,3.3,5.5,5,9.7,5c5.3,0,9.7-2.4,11.7-7.1V42.1c-2-4.7-6.2-7-11.6-7c-4.2,0-7.4,1.7-9.7,5C439.4,43.5,438.3,48.5,438.3,55.3z
	 M599.6,84.7c-6.8,0-12-2.5-15.8-7.4l-0.6,6.2H571v-82h13v29.6c4-4.4,8.9-6.7,15.3-6.7c7.1,0,12.8,2.6,16.8,7.9
	c4,5.3,5.9,12.6,5.9,22.1v0.8c0,9-1.8,16.2-5.8,21.5C612.1,82,606.7,84.7,599.6,84.7z M609,54c0-6.3-1-11-3.3-14.2
	c-2.2-3.2-5.4-4.7-9.6-4.7c-5.7,0-9.1,2.5-12.1,7.4v24c3,5,6.5,7.6,12.2,7.6c4.1,0,7.4-1.5,9.6-4.6c2.2-3,3.3-7.6,3.3-13.8V54z
	 M382,42.3c3-4.8,6.6-7.1,11.9-7.1c3.6,0,6.2,0.9,7.8,2.7c1.6,1.8,2.3,4.5,2.3,8.2v37.5h13V45.2c0-13.9-6.2-20.8-18.3-20.8
	c-7,0-12.6,2.6-16.8,7.8l-0.3-6.7H369v58h13V42.3z M800,70.2c0,5.2,1,9.4,2,12.5v0.8h-13c-0.6-1-1.1-2.8-1.5-5.4
	c-4.2,4.3-9.2,6.6-15.3,6.6c-5.8,0-10.6-1.6-14.3-5c-3.7-3.3-5.5-7.4-5.5-12.3c0-6.2,2.3-10.9,6.9-14.2c4.6-3.3,11.2-4.8,19.7-4.8h8
	v-4.2c0-3-0.8-5.4-2.5-7.2c-1.7-1.8-4.2-2.7-7.7-2.7c-3,0-5.4,0.8-7.3,2.3c-1.9,1.5-2.8,2.8-2.8,5.8h-13.1c0-3,1.1-6.3,3.2-9.1
	c2.1-2.8,5-5.1,8.6-6.6c3.6-1.6,7.7-2.4,12.2-2.4c6.8,0,12.2,1.7,16.3,5.1c4,3.4,6.2,8.2,6.2,14.4V70.2z M787,56.5h-7
	c-4.8,0-8.5,0.8-10.9,2.4c-2.4,1.7-3.7,4-3.7,7.1c0,2.5,0.8,4.5,2.5,6c1.7,1.5,3.9,2.2,6.7,2.2c2.6,0,5-0.6,7.3-1.9
	c2.3-1.3,4.1-2.9,5.1-5V56.5z M1187.6,76.5c-4.9-5.5-7.6-12.7-7.6-21.8V54c0-5.7,1.3-10.8,3.6-15.4c2.3-4.6,5.6-8.1,9.7-10.5
	c4.1-2.5,8.8-3.7,14.1-3.7c7.8,0,14.2,2.5,19.1,7.6c4.9,5,7.5,11.7,7.9,20.1l0.1,3.1c0,5.7-1.1,10.9-3.3,15.4
	c-2.2,4.5-5.4,8-9.5,10.5c-4.1,2.5-8.8,3.7-14.2,3.7C1199.3,84.7,1192.5,82,1187.6,76.5z M1193.5,55.2c0,6,1.2,10.7,3.7,14
	c2.5,3.4,5.9,5.1,10.3,5.1c4.4,0,7.8-1.7,10.3-5.2c2.5-3.4,3.7-8.5,3.7-15.1c0-5.9-1.3-10.5-3.8-14c-2.5-3.4-6-5.2-10.3-5.2
	c-4.3,0-7.6,1.7-10.2,5.1C1194.7,43.4,1193.5,48.4,1193.5,55.2z M1266,0c-6.4,0-11.2,1.8-14.8,5.3c-3.6,3.5-5.2,8.5-5.2,14.9v5.3h-9
	v10h9v48h13v-48h11v-10h-11v-5.2c0-6.4,2.9-9.6,9.2-9.6c1.9,0,3.5,0.1,4.9,0.4l0.3-10.2C1270.7,0.3,1268.3,0,1266,0z M1078,43.9
	c2-4.6,5.9-6.9,11.8-6.9c1.8,0,3.5,0.1,5.2,0.4l0-12.2c-1.2-0.5-2.8-0.8-4.6-0.8c-5.6,0-10,2.5-13.1,7.6l-0.3-6.5H1064v58h14V43.9z
	 M548,48.5v-4.2c0-3-1-5.4-2.6-7.2c-1.7-1.8-4.4-2.7-7.8-2.7c-3,0-5.4,0.8-7.3,2.3c-1.9,1.5-2.8,2.8-2.8,5.8h-13.1
	c0-3,1.1-6.3,3.2-9.1c2.1-2.8,5-5.1,8.6-6.6c3.6-1.6,7.7-2.4,12.2-2.4c6.8,0,12.3,1.7,16.3,5.1c4,3.4,6.3,8.2,6.3,14.4v26.2
	c0,5.2,1,9.4,2,12.5v0.8h-13.3c-0.6-1-1.1-2.8-1.5-5.4c-4.2,4.3-9.2,6.6-15.3,6.6c-5.8,0-10.6-1.6-14.3-5s-5.5-7.4-5.5-12.3
	c0-6.2,2.3-10.9,6.9-14.2c4.6-3.3,11.2-4.8,19.7-4.8H548z M548,56.5h-7.3c-4.8,0-8.5,0.8-10.9,2.4c-2.4,1.7-3.6,4-3.6,7.1
	c0,2.5,0.8,4.5,2.5,6c1.7,1.5,3.9,2.2,6.7,2.2c2.6,0,5.1-0.6,7.3-1.9c2.3-1.3,4.3-2.9,5.3-5V56.5z M675.5,67.1
	c0-3.1-0.7-5.8-2.1-7.9c-1.4-2.2-3.6-4.1-6.5-5.6c-2.9-1.6-6.9-2.9-12.1-4c-5.1-1.1-8.5-2.2-10.2-3.4c-1.7-1.1-2.5-2.7-2.5-4.7
	c0-2.2,0.9-4,2.7-5.3s4.1-2,7-2c3.1,0,5.6,0.6,7.4,2.3s2.8,4,2.8,6H675c0-5-2.1-9.7-6.4-13.1c-4.3-3.4-9.9-5-16.8-5
	c-6.5,0-11.9,1.7-16.1,5.1c-4.2,3.4-6.3,7.6-6.3,12.6c0,6,3.3,10.6,9.8,13.7c3,1.4,6.7,2.6,11.1,3.6c4.4,0.9,7.6,2,9.5,3.2
	c1.9,1.2,2.9,3,2.9,5.3c0,2.1-0.9,3.8-2.7,5.1c-1.8,1.3-4.4,2-7.8,2c-3.5,0-6.4-0.7-8.5-2.4c-2.1-1.7-3.3-4-3.5-7h-12.7
	c0,3,1,6.6,3.1,9.6c2.1,3,5,5.3,8.7,7c3.7,1.7,8,2.6,12.7,2.6c7,0,12.7-1.6,17-4.9C673.3,76.6,675.5,72.4,675.5,67.1z M1009.5,76.5
	c-4.9-5.5-7.5-12.7-7.5-21.8V54c0-5.7,1.3-10.8,3.5-15.4c2.3-4.6,5.6-8.1,9.6-10.5c4.1-2.5,8.8-3.7,14.1-3.7
	c7.8,0,14.2,2.5,19.1,7.6c4.9,5,7.5,11.7,7.9,20.1l0.1,3.1c0,5.7-1.1,10.9-3.3,15.4c-2.2,4.5-5.4,8-9.5,10.5
	c-4.1,2.5-8.8,3.7-14.2,3.7C1021.1,84.7,1014.4,82,1009.5,76.5z M1015.3,55.2c0,6,1.2,10.7,3.7,14c2.5,3.4,5.9,5.1,10.3,5.1
	c4.4,0,7.8-1.7,10.3-5.2c2.5-3.4,3.7-8.5,3.7-15.1c0-5.9-1.3-10.5-3.8-14c-2.5-3.4-6-5.2-10.3-5.2c-4.3,0-7.6,1.7-10.2,5.1
	C1016.6,43.4,1015.3,48.4,1015.3,55.2z M882,11.5h-13v14h-9v10h9v32.6c0,11.1,5.2,16.6,15.2,16.6c2.8,0,5.8-0.4,8.8-1.2V73.4
	c-1,0.4-3.2,0.5-4.7,0.5c-2.3,0-3.9-0.5-4.8-1.5c-0.9-1-1.6-2.6-1.6-4.8V35.5h11v-10h-11V11.5z M346,48.5v-4.2c0-3-1-5.4-2.7-7.2
	c-1.7-1.8-4.4-2.7-7.8-2.7c-3,0-5.4,0.8-7.3,2.3c-1.9,1.5-2.8,2.8-2.8,5.8h-13.1c0-3,1.1-6.3,3.2-9.1c2.1-2.8,5-5.1,8.6-6.6
	c3.6-1.6,7.7-2.4,12.2-2.4c6.8,0,12.3,1.7,16.3,5.1c4,3.4,6.4,8.2,6.4,14.4v26.2c0,5.2,0,9.4,2,12.5v0.8h-13.4
	c-0.6-1-1.1-2.8-1.5-5.4c-4.2,4.3-9.2,6.6-15.3,6.6c-5.8,0-10.6-1.6-14.3-5s-5.5-7.4-5.5-12.3c0-6.2,2.3-10.9,6.9-14.2
	c4.6-3.3,11.2-4.8,19.7-4.8H346z M346,56.5h-7.4c-4.8,0-8.5,0.8-10.9,2.4s-3.6,4-3.6,7.1c0,2.5,0.9,4.5,2.5,6
	c1.7,1.5,3.9,2.2,6.7,2.2c2.6,0,5.1-0.6,7.4-1.9c2.3-1.3,4.3-2.9,5.3-5V56.5z M731,43.9c2-4.6,6.2-6.9,12.2-6.9
	c1.8,0,3.7,0.1,5.4,0.4l0.1-12.2c-1.2-0.5-2.7-0.8-4.6-0.8c-5.6,0-9.9,2.5-13.1,7.6l-0.3-6.5H718v58h13V43.9z M55,72.5H17v-24h32
	v-11H17v-21h37v-11H4v78h51V72.5z M118.6,76.5c-4.9-5.5-7.6-12.7-7.6-21.8V54c0-5.7,1.3-10.8,3.5-15.4c2.3-4.6,5.6-8.1,9.7-10.5
	c4.1-2.5,8.8-3.7,14.1-3.7c7.8,0,14.2,2.5,19.1,7.6c4.9,5,7.5,11.7,7.9,20.1l0.1,3.1c0,5.7-1.1,10.9-3.3,15.4
	c-2.2,4.5-5.4,8-9.5,10.5c-4.1,2.5-8.8,3.7-14.2,3.7C130.2,84.7,123.5,82,118.6,76.5z M124.4,55.2c0,6,1.2,10.7,3.7,14
	c2.5,3.4,5.9,5.1,10.3,5.1c4.4,0,7.8-1.7,10.3-5.2c2.5-3.4,3.7-8.5,3.7-15.1c0-5.9-1.3-10.5-3.8-14c-2.5-3.4-6-5.2-10.3-5.2
	c-4.3,0-7.6,1.7-10.2,5.1C125.6,43.4,124.4,48.4,124.4,55.2z M824.4,39.5c2.3-3.1,5.5-4.6,9.7-4.6c3.3,0,6,1.2,8.1,3.3
	c2.1,2.1,3.2,5.3,3.4,8.3h12.3c-0.2-7-2.5-11.9-6.8-16c-4.4-4-10-6.1-16.9-6.1c-8.2,0-14.5,2.6-19.2,8c-4.7,5.3-7,12.4-7,21.2V55
	c0,9.3,2.2,16.5,7,21.8c4.8,5.3,11.1,7.9,19.3,7.9c4.2,0,8.1-0.9,11.7-2.7c3.6-1.8,6.5-4.3,8.6-7.4c2.1-3.1,3.2-6.1,3.4-10.1h-12.3
	c-0.1,3-1.3,5.1-3.4,7c-2.1,1.9-4.9,2.8-8.1,2.8c-4.3,0-7.5-1.6-9.7-4.7c-2.3-3.1-3.3-7.8-3.3-14.1v-2.1
	C821,47.2,822.1,42.6,824.4,39.5z M73.5,83.5l11.5-19.9l11.6,19.9h14.4L92.7,54.1l17.8-28.6H96L84.9,44.6L74.1,25.5H59.7l17.7,28.6
	L59,83.5H73.5z M988.2,25.5L979,65.6l-12.1-40.1H957l-11.9,39.7l-9.4-39.7H923l15.9,58h10.7l12.2-39.9l12.5,39.9h10.7l15.8-58H988.2
	z M200,83.5V73.4c-2,0.4-3.1,0.5-4.6,0.5c-2.3,0-4-0.5-4.9-1.5c-0.9-1-1.5-2.6-1.5-4.8V35.5h11v-10h-11v-14h-13v14h-9v10h9v32.6
	c0,11.1,5.2,16.6,15.2,16.6C194,84.7,197,84.3,200,83.5z M254.2,84.7c4.2,0,8.1-0.9,11.7-2.7c3.6-1.8,6.5-4.3,8.6-7.4
	c2.1-3.1,3.2-6.1,3.4-10.1h-12.3c-0.1,3-1.3,5.1-3.4,7c-2.1,1.9-4.9,2.8-8.1,2.8c-4.3,0-7.4-1.6-9.7-4.7c-2.3-3.1-3.3-7.8-3.3-14.1
	v-2.1c0-6.2,1.1-10.9,3.4-13.9c2.3-3.1,5.5-4.6,9.7-4.6c3.3,0,6,1.2,8.1,3.3c2.1,2.1,3.2,5.3,3.4,8.3h12.3c-0.2-7-2.5-11.9-6.8-16
	c-4.4-4-10-6.1-16.9-6.1c-8.2,0-14.4,2.6-19.2,8c-4.7,5.3-6.9,12.4-6.9,21.2V55c0,9.3,2.2,16.5,7,21.8
	C239.7,82.1,246,84.7,254.2,84.7z M219,25.5h-13v58h13V25.5z M702.4,72.4c-0.9-1-1.4-2.6-1.4-4.8V35.5h10v-10h-10v-14h-13v14h-9v10
	h9v32.6c0,11.1,5.2,16.6,15.2,16.6c2.8,0,5.8-0.4,8.8-1.2V73.4c-2,0.4-3.2,0.5-4.7,0.5C705,73.9,703.3,73.4,702.4,72.4z M213,17.3
	c2.4,0,4.2-0.7,5.5-2c1.3-1.3,1.9-3,1.9-5c0-2-0.6-3.7-1.9-5c-1.3-1.3-3.1-2-5.5-2c-2.4,0-4.2,0.7-5.5,2c-1.3,1.3-1.9,3-1.9,5
	c0,2,0.6,3.6,1.9,5C208.8,16.6,210.6,17.3,213,17.3z"/>
</svg>
