<svg xmlns="http://www.w3.org/2000/svg" xmlns:xlink="http://www.w3.org/1999/xlink" viewBox="0 0 3000 8861"><defs><linearGradient id="a" x1="947.5" y1="6392.67" x2="2000.64" y2="6392.67" gradientUnits="userSpaceOnUse"><stop offset="0"/><stop offset="1" stop-color="red"/></linearGradient><linearGradient id="b" x1="1072.04" y1="3404.26" x2="1824.6" y2="3404.26" gradientTransform="translate(-2324.91 943.54) scale(2.47 0.68)" gradientUnits="userSpaceOnUse"><stop offset="0" stop-opacity="0"/><stop offset="1"/></linearGradient><linearGradient id="c" x1="1953.33" y1="4775.83" x2="2705.89" y2="4775.83" gradientTransform="translate(-1818.81 3384.83) scale(1.19 0.65)" gradientUnits="userSpaceOnUse"><stop offset="0" stop-color="#fff" stop-opacity="0"/><stop offset="1" stop-color="#fff"/></linearGradient><linearGradient id="d" x1="2386.31" y1="1627.51" x2="3138.87" y2="1627.51" gradientTransform="translate(-4047.94 5688.17) scale(2 1.43)" xlink:href="#c"/></defs><title>specimen-league-gothic-italic</title><rect x="589" y="4932" width="190" height="130"/><rect x="798" y="5098" width="180" height="120"/><rect x="1009" y="4932" width="190" height="130"/><rect x="1218" y="5098" width="180" height="120"/><rect x="1024" y="5271" width="160" height="100"/><rect y="5098" width="138" height="120"/><rect x="184" y="5271" width="160" height="100"/><rect x="1444" y="5271" width="160" height="100"/><rect x="169" y="4932" width="190" height="130"/><rect x="604" y="5271" width="160" height="100"/><rect x="378" y="5098" width="180" height="120"/><rect x="2269" y="4932" width="190" height="130"/><rect x="2689" y="4932" width="190" height="130"/><rect x="2704" y="5271" width="160" height="100"/><rect x="2478" y="5098" width="180" height="120"/><polygon points="3000 4920 3000 4646 3002 4646 3002 1784 -3 1784 -3 4646 0 4646 0 4920 143 4920 143 4791 373 4791 373 4920 563 4920 563 4791 793 4791 793 4920 983 4920 983 4791 1213 4791 1213 4920 1403 4920 1403 4791 1633 4791 1633 4920 1823 4920 1823 4791 2053 4791 2053 4920 2243 4920 2243 4791 2473 4791 2473 4920 2663 4920 2663 4791 2893 4791 2893 4920 3000 4920"/><rect x="2898" y="5098" width="102" height="120"/><rect x="2058" y="5098" width="180" height="120"/><rect x="1864" y="5271" width="160" height="100"/><rect x="2284" y="5271" width="160" height="100"/><rect x="1638" y="5098" width="180" height="120"/><rect x="1849" y="4932" width="190" height="130"/><rect x="1429" y="4932" width="190" height="130"/><rect width="3000" height="1784" fill="#fcee21"/><path d="M793.45,678l-1.64-27.89h-4.92L714.7,992.16H633.49l128-602.93h78.75l18.87,314.18,1.64,27.89h4.92l73-342.07h81.21l-128,602.93H813.14Z"/><path d="M1381.45,868.29a227.37,227.37,0,0,1-28.71,65.63c-12.3,16.41-26.25,32-45.12,44.3-19.69,13.95-43.48,20.51-72.19,20.51s-50-6.56-64.8-20.51c-13.95-12.3-21.33-27.89-24.61-44.3-5.74-18.87-5.74-40.2-.82-65.62l75.47-355.2c5.74-23.79,14.77-45.12,27.89-64.8,12.3-16.41,25.43-32.81,44.3-45.12s43.48-20.51,73-20.51,50,8.2,64,20.51,22.15,28.71,25.43,45.12c5.74,18,5.74,39.38,1.64,64.8Zm-13.12-355.2c3.28-16.41,1.64-28.71-4.1-37.73-3.28-4.1-9-6.56-16.41-6.56-15.59,0-25.43,11.48-31.17,22.15a87.84,87.84,0,0,0-7.38,22.15l-75.47,355.2c-4.1,15.59-2.46,28.71,4.1,37.73,3.28,4.1,8.2,6.56,15.59,6.56,15.59,0,25.43-9.84,31.17-22.15a106.78,106.78,0,0,0,8.2-22.15Z"/><path d="M1740.08,992.16l7.38-254.3h-23.79l-53.32,254.3h-88.59l128-602.93h88.59c105.82,0,137.81,59.06,114,173.91-13.12,59.88-40.2,114-78.75,137l-4.92,292h-88.59Zm1.64-336.33c12.3,0,28.71-.82,44.3-13.12s31.17-33.63,40.2-76.29,3.28-64.8-7.38-77.11-27.07-12.3-39.37-12.3Z"/><path d="M2041.21,992.16l128-602.93h69.73c82,0,121.41,16.41,137,62.34,13.13,45.94.82,120.59-24.61,239.53-25.43,118.13-44.3,192.77-77.11,238.71-33.63,45.94-81.21,62.34-163.24,62.34h-69.73Zm106.64-88.59c30.35,0,48.4-3.28,64-32.81,13.95-27.07,25.43-75.47,33.63-114.84,4.1-18.87,8.2-41,13.95-65.62,4.92-24.61,9.84-46.76,13.95-66.45,8.2-38.55,18-84.49,14.77-114-2.46-28.71-18.87-32-49.22-32Z"/><path d="M741.9,1156.43c2.12-10.18,4.24-21.63,3-30.53-1.27-8.48-4.67-14.42-11.87-14.42-11.87.42-18.24,12.72-22.05,31-2.12,10.6-.42,21.63,4.24,33.5s10.18,24.17,16.54,37.32a320.47,320.47,0,0,1,19.51,47.5c4.67,15.69,6.79,31.81,3,48.77-4.67,20.78-11.45,39.86-24.6,54.71S699.49,1388,674,1388c-29.26,0-43.68-11-49.19-28-6.36-17-3-39,1.7-62.76l45.8-4.24c-3,13.15-5.09,26.29-3.82,36,1.27,10.18,4.67,17,14.42,17,13.57,0,21.2-14.42,25.87-34.35,2.12-10.18,0-22.05-4.67-34.35-1.27-3-2.54-6.36-3.82-9.33s-2.54-6.36-3.82-9.33c-3-6.36-6.36-13.15-9.75-20.36s-6.79-14.42-10.18-22.48a145.17,145.17,0,0,1-12.3-48.35c-1.27-8.06,0-16.54,1.7-25,3.39-17,11-35.2,24.17-49.19,12.3-13.57,29.26-23.32,50.89-23.75,28.41-.42,41.56,11,47.07,27.57,5.09,17,3.39,37.74-.42,55.13Z"/><path d="M990,1277.72l-8.91,42.83a117.54,117.54,0,0,1-14.84,33.93c-6.36,8.48-13.57,16.54-23.32,22.9-10.18,7.21-22.48,10.6-37.32,10.6s-25.87-3.39-33.5-10.6c-7.21-6.36-11-14.42-12.72-22.9-3-9.75-3-20.78-.42-33.93l39-183.63a102.87,102.87,0,0,1,14.42-33.5c6.36-8.48,13.15-17,22.9-23.32s22.48-10.6,37.74-10.6,25.87,4.24,33.08,10.6a42,42,0,0,1,13.15,23.32c3,9.33,3,20.36.85,33.5l-9.33,42.83H967.93l9.33-42.83c1.7-8.06.85-14.84-3-19.51-1.7-2.12-5.09-3.39-9.75-3.39-8.06,0-13.15,5.94-16.54,11.45a83.67,83.67,0,0,0-4.24,11.45l-39,183.63c-1.27,8.06-.42,14.84,3,19.51,1.7,2.12,4.24,3.39,8.06,3.39,9.75,0,14.84-5.09,18.24-11.45a55.2,55.2,0,0,0,4.24-11.45l8.91-42.83H990Z"/><path d="M1189.89,1248.89h-35.62l-28.84,135.71h-45.8l66.16-311.7h45.8L1164,1201.81h35.62l27.57-128.92H1273l-66.16,311.7h-45.8Z"/><path d="M1392.52,1072.89h45.8l-57.25,269.3h60.64l-8.91,42.41H1326.36Z"/><path d="M1586.79,1072.89h104.75L1681.36,1120h-58.95L1605,1201.81h42.41l-10.6,50h-42.41l-18.24,85.67h58.95l-9.75,47.07H1520.63Z"/><path d="M1795.48,1072.89h45.8l-66.16,311.7h-45.8Z"/><path d="M2059.38,1120h-63.19l-17.39,81.85h42.41l-9.75,47.07H1969l-28.84,135.71h-45.8l66.16-311.7h109Z"/><path d="M2161.67,1072.89h104.75L2256.24,1120h-58.95l-17.39,81.85h42.41l-10.6,50H2169.3l-18.24,85.67H2210l-9.75,47.07H2095.51Z"/><path d="M1648.76,2541.67L1335.4,4018H1188.46l248.12-1171.4,10.23-48.29H1294.62l15.77-72.59a448.91,448.91,0,0,0,112.26-45c38.71-21.83,70.09-46.58,95.68-67.9l1.39-1.16,1.28-1.28a656.35,656.35,0,0,0,59.93-68.75h67.82m49.38-40H1560.5c-19,27.53-42.36,55.06-67.77,80.46-50.82,42.35-116.44,91-216,110.11L1245,2838.35h152.45L1139.1,4058h228.7l330.34-1556.37h0Z" fill="#ff0"/><path d="M388.24,7437.62h17.28c7.52,0,14.56,1.76,19.2,7.36s6.72,14.4,3.68,27.84-8.64,22.08-15.52,27.68a34.94,34.94,0,0,1-22.4,7.68l-9.92,47H363.28Zm5.92,53c5.28,0,9-1,11.36-3.68,2.56-2.56,3.84-6.88,5.28-13.44s1.92-11,.64-14.08c-1.28-2.72-4.48-4.16-9.76-4.16Z"/><path d="M454.94,7555.22l1.44-49.6h-4.64l-10.4,49.6H424.06l25-117.6H466.3c20.64,0,26.88,11.52,22.24,33.92-2.56,11.68-7.84,22.24-15.36,26.72l-1,57H454.94Zm0.32-65.6a13,13,0,0,0,8.64-2.56c3-2.4,6.08-6.56,7.84-14.88s0.64-12.64-1.44-15-5.28-2.4-7.68-2.4Z"/><path d="M539.41,7531.06a44.4,44.4,0,0,1-5.6,12.8,34.82,34.82,0,0,1-8.8,8.64c-3.84,2.72-8.48,4-14.08,4s-9.76-1.28-12.64-4a15.17,15.17,0,0,1-4.8-8.64c-1.12-3.68-1.12-7.84-.16-12.8L508,7461.78a38.83,38.83,0,0,1,5.44-12.64c2.4-3.2,5-6.4,8.64-8.8a25.81,25.81,0,0,1,14.24-4c5.76,0,9.76,1.6,12.48,4a15.84,15.84,0,0,1,5,8.8c1.12,3.52,1.12,7.68.32,12.64Zm-2.56-69.28c0.64-3.2.32-5.6-.8-7.36a4,4,0,0,0-3.2-1.28c-3,0-5,2.24-6.08,4.32a17.13,17.13,0,0,0-1.44,4.32l-14.72,69.28c-0.8,3-.48,5.6.8,7.36a3.63,3.63,0,0,0,3,1.28c3,0,5-1.92,6.08-4.32a20.82,20.82,0,0,0,1.6-4.32Z"/><path d="M599.87,7469.14c0.8-3.84,1.6-8.16,1.12-11.52-0.48-3.2-1.76-5.44-4.48-5.44-4.48.16-6.88,4.8-8.32,11.68-0.8,4-.16,8.16,1.6,12.64s3.84,9.12,6.24,14.08a120.77,120.77,0,0,1,7.36,17.92c1.76,5.92,2.56,12,1.12,18.4-1.76,7.84-4.32,15-9.28,20.64s-11.36,9-21,9c-11,0-16.48-4.16-18.56-10.56-2.4-6.4-1.12-14.72.64-23.68l17.28-1.6c-1.12,5-1.92,9.92-1.44,13.6,0.48,3.84,1.76,6.4,5.44,6.4,5.12,0,8-5.44,9.76-13,0.8-3.84,0-8.32-1.76-13-0.48-1.12-1-2.4-1.44-3.52s-1-2.4-1.44-3.52c-1.12-2.4-2.4-5-3.68-7.68s-2.56-5.44-3.84-8.48a54.77,54.77,0,0,1-4.64-18.24,27.16,27.16,0,0,1,.64-9.44,38.24,38.24,0,0,1,9.12-18.56,26.1,26.1,0,0,1,19.2-9c10.72-.16,15.68,4.16,17.76,10.4,1.92,6.4,1.28,14.24-.16,20.8Z"/><path d="M626.46,7455.38l3.84-17.76h49.92l-3.84,17.76H660.06l-21.12,99.84H621.66l21.12-99.84H626.46Z"/><path d="M358.48,7735.22l42.72-117.6h21.12l-7.2,117.6h-16.8l1.76-24H383.44l-8.16,24h-16.8Zm46.08-79.36,0.16-3h-1l-1.12,3L389.84,7693h11.84Z"/><path d="M454.63,7617.62h17.28l-21.6,101.6h22.88l-3.36,16H429.66Z"/><path d="M479,7735.22l25-117.6h15.2c10.24,0,17.76,1.92,22.08,6.88s5.28,12.64,2.72,24.32c-1.12,5.6-2.56,9.76-5.12,13.6s-5.76,7-10.72,10.72c7.52,4.64,8.48,17.28,5.92,28.8-1.92,9-5.12,16.48-10.4,22.72-5.6,6.24-13.12,10.08-23.36,10.56H479Zm20.8-17.12a14,14,0,0,0,8.16-1.76c3.2-2.08,6.56-6.72,8.48-16.32q1.68-7.2,1-11c-1-5-3.52-6.88-6.56-7h-3.36Zm11-52a15.42,15.42,0,0,0,8.16-1.76c3.2-1.92,6.24-5.76,8-13.92,0.8-4,1-7.2.48-9.28-1.12-4.32-3.68-6.08-6.56-6.24a28.53,28.53,0,0,0-3.36-.16Z"/><path d="M595.54,7711.06a44.37,44.37,0,0,1-5.6,12.8,34.82,34.82,0,0,1-8.8,8.64c-3.84,2.72-8.48,4-14.08,4s-9.76-1.28-12.64-4a15.17,15.17,0,0,1-4.8-8.64c-1.12-3.68-1.12-7.84-.16-12.8l14.72-69.28a38.85,38.85,0,0,1,5.44-12.64c2.4-3.2,5-6.4,8.64-8.8a25.82,25.82,0,0,1,14.24-4c5.76,0,9.76,1.6,12.48,4a15.84,15.84,0,0,1,5,8.8c1.12,3.52,1.12,7.68.32,12.64ZM593,7641.78c0.64-3.2.32-5.6-.8-7.36a4,4,0,0,0-3.2-1.28c-3,0-5,2.24-6.08,4.32a17.17,17.17,0,0,0-1.44,4.32l-14.72,69.28c-0.8,3-.48,5.6.8,7.36a3.63,3.63,0,0,0,3,1.28c3,0,5-1.92,6.08-4.32a20.77,20.77,0,0,0,1.6-4.32Z"/><path d="M641.49,7735.22l1.44-49.6h-4.64l-10.4,49.6H610.61l25-117.6h17.28c20.64,0,26.88,11.52,22.24,33.92-2.56,11.68-7.84,22.24-15.36,26.72l-1,57H641.49Zm0.32-65.6a13,13,0,0,0,8.64-2.56c3-2.4,6.08-6.56,7.84-14.88s0.64-12.64-1.44-15-5.28-2.4-7.68-2.4Z"/><path d="M701.18,7617.62H740.7l-3.84,17.76H714.62l-6.56,30.88h16l-4,18.88h-16l-6.88,32.32h22.24l-3.68,17.76H676.22Z"/><path d="M744.2,7635.38l3.84-17.76H798l-3.84,17.76H777.8l-21.12,99.84H739.4l21.12-99.84H744.2Z"/><path d="M833.71,7711.06a44.34,44.34,0,0,1-5.6,12.8,34.8,34.8,0,0,1-8.8,8.64c-3.84,2.72-8.48,4-14.08,4s-9.76-1.28-12.64-4a15.16,15.16,0,0,1-4.8-8.64c-1.12-3.68-1.12-7.84-.16-12.8l14.72-69.28a38.79,38.79,0,0,1,5.44-12.64c2.4-3.2,5-6.4,8.64-8.8a25.81,25.81,0,0,1,14.24-4c5.76,0,9.76,1.6,12.48,4a15.83,15.83,0,0,1,5,8.8c1.12,3.52,1.12,7.68.32,12.64Zm-2.56-69.28c0.64-3.2.32-5.6-.8-7.36a4,4,0,0,0-3.2-1.28c-3,0-5,2.24-6.08,4.32a17.17,17.17,0,0,0-1.44,4.32l-14.72,69.28c-0.8,3-.48,5.6.8,7.36a3.63,3.63,0,0,0,3,1.28c3,0,5-1.92,6.08-4.32a20.88,20.88,0,0,0,1.6-4.32Z"/><path d="M410.16,7829.14c0.8-3.84,1.6-8.16,1.12-11.52-0.48-3.2-1.76-5.44-4.48-5.44-4.48.16-6.88,4.8-8.32,11.68-0.8,4-.16,8.16,1.6,12.64s3.84,9.12,6.24,14.08a120.76,120.76,0,0,1,7.36,17.92c1.76,5.92,2.56,12,1.12,18.4-1.76,7.84-4.32,15-9.28,20.64s-11.36,9-21,9c-11,0-16.48-4.16-18.56-10.56-2.4-6.4-1.12-14.72.64-23.68l17.28-1.6c-1.12,5-1.92,9.92-1.44,13.6,0.48,3.84,1.76,6.4,5.44,6.4,5.12,0,8-5.44,9.76-13,0.8-3.84,0-8.32-1.76-13-0.48-1.12-1-2.4-1.44-3.52s-1-2.4-1.44-3.52c-1.12-2.4-2.4-5-3.68-7.68s-2.56-5.44-3.84-8.48a54.77,54.77,0,0,1-4.64-18.24,27.19,27.19,0,0,1,.64-9.44,38.24,38.24,0,0,1,9.12-18.56,26.1,26.1,0,0,1,19.2-9c10.72-.16,15.68,4.16,17.76,10.4,1.92,6.4,1.28,14.24-.16,20.8Z"/><path d="M479.76,7874.9l-3.36,16.16a44.31,44.31,0,0,1-5.6,12.8,34.81,34.81,0,0,1-8.8,8.64c-3.84,2.72-8.48,4-14.08,4s-9.76-1.28-12.64-4a15.16,15.16,0,0,1-4.8-8.64c-1.12-3.68-1.12-7.84-.16-12.8L445,7821.78a38.81,38.81,0,0,1,5.44-12.64c2.4-3.2,5-6.4,8.64-8.8a25.82,25.82,0,0,1,14.24-4c5.76,0,9.76,1.6,12.48,4a15.83,15.83,0,0,1,5,8.8c1.12,3.52,1.12,7.68.32,12.64l-3.52,16.16H471.44l3.52-16.16c0.64-3,.32-5.6-1.12-7.36a4.62,4.62,0,0,0-3.68-1.28c-3,0-5,2.24-6.24,4.32a31.72,31.72,0,0,0-1.6,4.32l-14.72,69.28c-0.48,3-.16,5.6,1.12,7.36a3.62,3.62,0,0,0,3,1.28,7.24,7.24,0,0,0,6.88-4.32,20.88,20.88,0,0,0,1.6-4.32l3.36-16.16h16.16Z"/><path d="M531.18,7864H517.74l-10.88,51.2H489.58l25-117.6h17.28l-10.4,48.64h13.44l10.4-48.64h17.28l-25,117.6H520.3Z"/><path d="M629.34,7797.62l-19.84,93.44a44.37,44.37,0,0,1-5.6,12.8,34.82,34.82,0,0,1-8.8,8.64c-3.84,2.72-8.48,4-14.08,4s-9.76-1.28-12.64-4a15.17,15.17,0,0,1-4.8-8.64c-1.12-3.68-1.12-7.84-.16-12.8l19.84-93.44h17.28l-19.84,93.44c-0.8,3-.48,5.6.8,7.36a3.62,3.62,0,0,0,3,1.28c3,0,5-1.92,6.08-4.32a20.76,20.76,0,0,0,1.6-4.32l19.84-93.44h17.28Z"/><path d="M654,7915.22l4.64-73.92,0.32-5h-1l-16.64,78.88h-16l25-117.6h21.12l-1.28,53.76-0.48,6.24H670l2.08-6.24,21.76-53.76H715l-25,117.6H674l16.64-78.88h-1l-1.6,5-26.72,73.92H654Z"/><path d="M704.63,7915.22l42.72-117.6h21.12l-7.2,117.6h-16.8l1.76-24H729.6l-8.16,24h-16.8Zm46.08-79.36,0.16-3h-1l-1.12,3L736,7873h11.84Z"/><path d="M829.1,7874.9l-3.36,16.16a44.34,44.34,0,0,1-5.6,12.8,34.8,34.8,0,0,1-8.8,8.64c-3.84,2.72-8.48,4-14.08,4s-9.76-1.28-12.64-4a15.16,15.16,0,0,1-4.8-8.64c-1.12-3.68-1.12-7.84-.16-12.8l14.72-69.28a38.79,38.79,0,0,1,5.44-12.64c2.4-3.2,5-6.4,8.64-8.8a25.81,25.81,0,0,1,14.24-4c5.76,0,9.76,1.6,12.48,4a15.83,15.83,0,0,1,5,8.8c1.12,3.52,1.12,7.68.32,12.64l-3.52,16.16H820.78l3.52-16.16c0.64-3,.32-5.6-1.12-7.36a4.62,4.62,0,0,0-3.68-1.28c-3,0-5,2.24-6.24,4.32a31.71,31.71,0,0,0-1.6,4.32l-14.72,69.28c-0.48,3-.16,5.6,1.12,7.36a3.63,3.63,0,0,0,3,1.28,7.24,7.24,0,0,0,6.88-4.32,20.77,20.77,0,0,0,1.6-4.32l3.36-16.16H829.1Z"/><path d="M880.52,7864H867.08l-10.88,51.2H838.92l25-117.6h17.28l-10.4,48.64H884.2l10.4-48.64h17.28l-25,117.6H869.64Z"/><path d="M933,7797.62h39.52l-3.84,17.76H946.41l-6.56,30.88h16l-4,18.88h-16L929,7897.46h22.24l-3.68,17.76H908Z"/><path d="M993.62,7915.22l1.44-49.6h-4.64l-10.4,49.6H962.74l25-117.6H1005c20.64,0,26.88,11.52,22.24,33.92-2.56,11.68-7.84,22.24-15.36,26.72l-1,57H993.62Zm0.32-65.6a13,13,0,0,0,8.64-2.56c3-2.4,6.08-6.56,7.84-14.88s0.64-12.64-1.44-15-5.28-2.4-7.68-2.4Z"/><path d="M419.6,7977.62h16.8l-42.88,117.6H376.24l7-117.6h16.8L395,8042.26l-0.48,5h1l1.76-5Z"/><path d="M450,7977.62h17.28l-25,117.6H425.07Z"/><path d="M488.32,7977.62H505.6L484,8079.22h22.88l-3.36,16H463.36Z"/><path d="M537.62,7977.62h17.28l-21.6,101.6h22.88l-3.36,16H512.65Z"/><path d="M586.91,7977.62h39.52l-3.84,17.76H600.35l-6.56,30.88h16l-4,18.88h-16l-6.88,32.32h22.24l-3.68,17.76H561.95Z"/><path d="M647.88,8033.94l-0.32-5.44h-1l-14.08,66.72H616.68l25-117.6H657l3.68,61.28,0.32,5.44h1l14.24-66.72H692l-25,117.6H651.72Z"/><path d="M713.13,7977.62h39.52l-3.84,17.76H726.57L720,8026.26h16l-4,18.88H716l-6.88,32.32h22.24l-3.68,17.76H688.17Z"/><path d="M813.13,7977.62l-19.84,93.44a44.4,44.4,0,0,1-5.6,12.8,34.82,34.82,0,0,1-8.8,8.64c-3.84,2.72-8.48,4-14.08,4s-9.76-1.28-12.64-4a15.17,15.17,0,0,1-4.8-8.64c-1.12-3.68-1.12-7.84-.16-12.8L767,7977.62h17.28l-19.84,93.44c-0.8,3-.48,5.6.8,7.36a3.63,3.63,0,0,0,3,1.28c3,0,5-1.92,6.08-4.32a20.82,20.82,0,0,0,1.6-4.32l19.84-93.44h17.28Z"/><path d="M862.76,7977.62h16.8l-42.88,117.6H819.4l7-117.6h16.8l-5.12,64.64-0.48,5h1l1.76-5Z"/><path d="M893.19,7977.62h39.52l-3.84,17.76H906.63l-6.56,30.88h16l-4,18.88h-16l-6.88,32.32h22.24l-3.68,17.76H868.23Z"/><path d="M404.88,8224H391.44l-10.88,51.2H363.28l25-117.6h17.28l-10.4,48.64h13.44l10.4-48.64h17.28l-25,117.6H394Z"/><path d="M425.78,8275.22l42.72-117.6h21.12l-7.2,117.6h-16.8l1.76-24H450.74l-8.16,24h-16.8Zm46.08-79.36,0.16-3h-1l-1.12,3L457.14,8233H469Zm-6.08-64.32h14.88l-3.2,15.68H462.58Zm22.56,0h14.88l-3.2,15.68H485.14Z"/><path d="M539.15,8157.62l-8.8,41.12H531l1.28-1.92,22.72-39.2h16.8l-24.16,38.72,1.28,78.88h-16.8L531,8224v-2.4h-0.48l-1.44,2.4-6.08,9.6-8.8,41.6H496.91l25-117.6h17.28Z"/><path d="M605.28,8157.62l-8.8,41.12h0.64l1.28-1.92,22.72-39.2h16.8l-24.16,38.72,1.28,78.88h-16.8l-1.12-51.2v-2.4h-0.48l-1.44,2.4-6.08,9.6-8.8,41.6H563l25-117.6h17.28Z"/><path d="M654.13,8157.62h17.28l-25,117.6H629.17Z"/><path d="M698.65,8213.94l-0.32-5.44h-1l-14.08,66.72H667.45l25-117.6h15.36l3.68,61.28,0.32,5.44h1L727,8157.62h15.84l-25,117.6H702.49Z"/><path d="M763.9,8157.62h39.52l-3.84,17.76H777.34l-6.56,30.88h16l-4,18.88h-16l-6.88,32.32h22.24l-3.68,17.76H738.94Z"/><path d="M824.88,8213.94l-0.32-5.44h-1l-14.08,66.72H793.67l25-117.6H834l3.68,61.28,0.32,5.44h1l14.24-66.72H869l-25,117.6H828.71Z"/><path d="M404.88,8404H391.44l-10.88,51.2H363.28l25-117.6h17.28l-10.4,48.64h13.44l10.4-48.64h17.28l-25,117.6H394Z"/><path d="M457.33,8337.62h39.52L493,8355.38H470.77l-6.56,30.88h16l-4,18.88h-16l-6.88,32.32h22.24l-3.68,17.76H432.37Z"/><path d="M518,8455.22l1.44-49.6h-4.64l-10.4,49.6H487.1l25-117.6h17.28c20.64,0,26.88,11.52,22.24,33.92-2.56,11.68-7.84,22.24-15.36,26.72l-1,57H518Zm0.32-65.6a13,13,0,0,0,8.64-2.56c3-2.4,6.08-6.56,7.84-14.88s0.64-12.64-1.44-15-5.28-2.4-7.68-2.4Z"/><path d="M552.72,8455.22l25-117.6h15.2c10.24,0,17.76,1.92,22.08,6.88s5.28,12.64,2.72,24.32c-1.12,5.6-2.56,9.76-5.12,13.6s-5.76,7-10.72,10.72c7.52,4.64,8.48,17.28,5.92,28.8-1.92,9-5.12,16.48-10.4,22.72-5.6,6.24-13.12,10.08-23.36,10.56H552.72Zm20.8-17.12a14,14,0,0,0,8.16-1.76c3.2-2.08,6.56-6.72,8.48-16.32q1.68-7.2,1-11c-1-5-3.52-6.88-6.56-7H581.2Zm11-52a15.42,15.42,0,0,0,8.16-1.76c3.2-1.92,6.24-5.76,8-13.92,0.8-4,1-7.2.48-9.28-1.12-4.32-3.68-6.08-6.56-6.24a28.57,28.57,0,0,0-3.36-.16Z"/><path d="M643.95,8337.62h39.52l-3.84,17.76H657.39l-6.56,30.88h16l-4,18.88h-16l-6.88,32.32h22.24l-3.68,17.76H619Z"/><path d="M704.6,8455.22l1.44-49.6H701.4l-10.4,49.6H673.72l25-117.6H716c20.64,0,26.88,11.52,22.24,33.92-2.56,11.68-7.84,22.24-15.36,26.72l-1,57H704.6Zm0.32-65.6a13,13,0,0,0,8.64-2.56c3-2.4,6.08-6.56,7.84-14.88s0.64-12.64-1.44-15-5.28-2.4-7.68-2.4Z"/><path d="M749.42,8355.38l3.84-17.76h49.92l-3.84,17.76H783l-21.12,99.84H744.62l21.12-99.84H749.42Z"/><path d="M2068,7459.06l2.4-11c7.52-1.44,12.48-5.12,16.32-8.32a45,45,0,0,0,5.12-6.08h10.4l-25,117.6H2060l19.52-92.16H2068Z"/><path d="M2091.95,7533.46h16.8l-3.68,17.76h-16.8Zm14.88-69.76h16.8l-3.84,17.76H2103Z"/><path d="M2136.52,7498.1l3-14.4c7.52-.48,11-1.92,13.12-5.28,2.08-3,2.72-7.36,3.36-10.56,0.32-1.6.64-3.36,1.12-5.12a46.32,46.32,0,0,0,1.44-10.08c0-3-1-5.12-3.68-5.12-2.08,0-3.52,1-4.8,4-1.44,3.2-2.72,8.16-4.48,16h-17c1.28-6.56,3.36-15.52,7.84-22.72,4.32-7,10.72-12.48,21.6-12.48s15.2,5.6,17,11.52a27.06,27.06,0,0,1,.8,8.48,37.91,37.91,0,0,1-.64,5.28c-3.68,17.44-8.48,25.76-14.88,31l-0.32.16c3.36,3.2,5.12,7.84,5.28,13.44,0.16,5.76-.8,12-2.24,18.88,0,0.32-.32,1.44-0.8,3.36a51.63,51.63,0,0,1-5.76,13.44c-3,5.12-7,9.76-12.64,12.48a20.9,20.9,0,0,1-9.76,2.08c-10.88,0-15.36-5.44-16.8-12.64a20.68,20.68,0,0,1-.64-5.6,57.79,57.79,0,0,1,1.12-11.68q0.48-2.88,1-5.28h17c-1.76,7.84-2.4,12.8-1.92,15.84,0.16,3.2,1.44,4.16,3.52,4.16,2.72,0,4.64-1.92,5.92-5q0.72-2.16,1.44-4.8c0.8-3.36,1.76-7,2.4-10.4a35.61,35.61,0,0,1,1.12-4.8c1.28-5.76,1-9.76-2.24-12.16-1.76-1.28-4.32-1.92-8-2.08h-1.44Z"/><path d="M2207.4,7495.54c1.12-5,.16-8.64-3.52-8.64-1.92,0-3.68,1.44-5.44,3.2a16.86,16.86,0,0,0-3.2,5.44h-14.56l13.28-61.92h41.76l-3.68,17.12h-26.88l-5.28,24.48a33.37,33.37,0,0,1,7.2-3.52,7.57,7.57,0,0,1,3.68-.48c9,0,12.64,5.12,14.08,10.72a33.19,33.19,0,0,1-.16,13.6l-5.44,26.24c-1.28,5.6-3.2,13.12-7.52,19.36-4.48,6.4-11.2,11.36-21.6,11.36-10.88,0-15.2-5-16.64-12-1.76-6.88-.16-15.68,1.6-23.52h17.28l-1,4.64c-1.44,6.24-1.92,10.24-1.6,12.32,0.32,2.4,1.44,3.52,3.52,3.52,3.68,0,5.28-4.16,6.72-8.16,0.64-2.08,1.28-4.48,1.92-7.52Z"/><path d="M2223.93,7533.46h16.8l-3.68,17.76h-16.8Zm14.88-69.76h16.8l-3.84,17.76H2235Z"/><path d="M2259.24,7459.06l2.4-11c7.52-1.44,12.48-5.12,16.32-8.32a44.89,44.89,0,0,0,5.12-6.08h10.4l-25,117.6h-17.28l19.52-92.16h-11.52Z"/><path d="M2304.58,7498.1l3-14.4c7.52-.48,11-1.92,13.12-5.28,2.08-3,2.72-7.36,3.36-10.56,0.32-1.6.64-3.36,1.12-5.12a46.32,46.32,0,0,0,1.44-10.08c0-3-1-5.12-3.68-5.12-2.08,0-3.52,1-4.8,4-1.44,3.2-2.72,8.16-4.48,16h-17c1.28-6.56,3.36-15.52,7.84-22.72,4.32-7,10.72-12.48,21.6-12.48s15.2,5.6,17,11.52a27.06,27.06,0,0,1,.8,8.48,37.91,37.91,0,0,1-.64,5.28c-3.68,17.44-8.48,25.76-14.88,31l-0.32.16c3.36,3.2,5.12,7.84,5.28,13.44,0.16,5.76-.8,12-2.24,18.88,0,0.32-.32,1.44-0.8,3.36a51.63,51.63,0,0,1-5.76,13.44c-3,5.12-7,9.76-12.64,12.48a20.9,20.9,0,0,1-9.76,2.08c-10.88,0-15.36-5.44-16.8-12.64a20.68,20.68,0,0,1-.64-5.6,57.79,57.79,0,0,1,1.12-11.68q0.48-2.88,1-5.28h17c-1.76,7.84-2.4,12.8-1.92,15.84,0.16,3.2,1.44,4.16,3.52,4.16,2.72,0,4.64-1.92,5.92-5q0.72-2.16,1.44-4.8c0.8-3.36,1.76-7,2.4-10.4a35.61,35.61,0,0,1,1.12-4.8c1.28-5.76,1-9.76-2.24-12.16-1.76-1.28-4.32-1.92-8-2.08h-1.44Z"/><path d="M2352.29,7551.22L2339,7572h-7.84l9.92-20.8h-5.6l3.68-17.76H2356Z"/><path d="M2381.62,7470.9l1.76-8.16c1.76-7.84,4.48-15.52,9-21.12,4.64-5.6,10.88-9.28,20.48-9.28,9,0,14.08,3.36,16.48,8.48a24,24,0,0,1,1.76,9.28,59,59,0,0,1-1.28,11.52c-2.56,12.16-10.08,26.08-18.56,39.52a386.84,386.84,0,0,1-24,33h27.36l-3.52,17.12h-46.88l3.52-17.12c7-8.16,13.44-16.48,19.68-24.8a221.79,221.79,0,0,0,14.88-23.2c4.48-8.16,8.16-16.16,9.92-23.36a42.19,42.19,0,0,0,1.12-9.6c-0.48-2.72-1.28-4.8-3.84-4.8-2.4,0-4.16,1.76-5.6,4.32a44.07,44.07,0,0,0-3.2,10.08l-1.76,8.16h-17.28Z"/><path d="M2471.68,7526.1c-0.16.48-.48,1.6-0.8,3a40.34,40.34,0,0,1-5.28,11.2,28.51,28.51,0,0,1-12.64,10.4,27.39,27.39,0,0,1-9.92,1.76c-7.52,0-12.16-2.56-14.72-6.24a20.94,20.94,0,0,1-3.52-12c0-3.84.32-7,.8-8.16l2.88-13.76c1.92-9,6.88-17.6,13.92-23.2-4.32-5.28-5.12-13.44-3.36-21.6l2.08-9.92c0.16-.8.8-2.56,1.6-5.28,1.6-5.44,5.92-11.84,12.64-16.48,3.36-2.4,7.68-3.52,13.12-3.52,10.88,0,15,5.6,16.8,11.52a32.85,32.85,0,0,1,.8,8.48,30.79,30.79,0,0,1-.8,5.28l-2.08,9.92c-1.76,8.16-6.24,16.32-12.64,21.6,5,5.6,5.92,14.24,4,23.2Zm-15.36-6.88c1.44-7,2.08-12.32,2.56-15.68,0-3.36-1.44-5.12-4.32-5.12-6.24,0-7,6.24-8.48,11.84a139.36,139.36,0,0,0-3.36,16.64c-0.64,5.12-1,9.76,3.68,9.76,5.92,0,6.88-5.76,8.16-10.08A62.67,62.67,0,0,0,2456.32,7519.22ZM2467,7463.7a90.74,90.74,0,0,0,1.76-12.16c0-2.72-1.12-4-3.52-4-3.84,0-5.12,4.16-6.4,8.8a93.13,93.13,0,0,0-3.36,15c-0.8,5-2.08,10.08,2.56,10.08,4.48,0,5.76-5.28,7-9.76C2465.6,7469.46,2466.24,7466.74,2467,7463.7Z"/><path d="M2504,7525.62h-26.72l3.2-15.2,41.6-76.8h17.28l-16.32,76.8h8l-3.2,15.2h-8l-5.44,25.6h-15.84Zm-8.8-15.2h12l8.48-40.32h-1l-1.6,3.52Z"/><path d="M2577.55,7551.22h-16.16l25-117.6h16.16l-8,37.44a9.31,9.31,0,0,0,2.24-1.76q1.68-1.2,3.84-2.88c2.72-2.08,6.08-4,8.8-4,4.32,0,6.88,2.56,8.16,5.76a22.67,22.67,0,0,1,.48,11.36l-15.2,71.68h-16.16l14.72-69.28c0.64-3.36-1.12-3.84-3-3.84-1.76,0-3,1-4.32,2.08l-1,1a7,7,0,0,0-1,1.12Z"/><path d="M2080.69,7639.06l2.4-11c7.52-1.44,12.48-5.12,16.32-8.32a44.89,44.89,0,0,0,5.12-6.08h10.4l-25,117.6h-17.28l19.52-92.16h-11.52Z"/><path d="M2104.64,7713.46h16.8l-3.68,17.76H2101Zm14.88-69.76h16.8l-3.84,17.76h-16.8Z"/><path d="M2149.21,7678.1l3-14.4c7.52-.48,11-1.92,13.12-5.28,2.08-3,2.72-7.36,3.36-10.56,0.32-1.6.64-3.36,1.12-5.12a46.38,46.38,0,0,0,1.44-10.08c0-3-1-5.12-3.68-5.12-2.08,0-3.52,1-4.8,4-1.44,3.2-2.72,8.16-4.48,16h-17c1.28-6.56,3.36-15.52,7.84-22.72,4.32-7,10.72-12.48,21.6-12.48s15.2,5.6,17,11.52a27.09,27.09,0,0,1,.8,8.48,38,38,0,0,1-.64,5.28c-3.68,17.44-8.48,25.76-14.88,31l-0.32.16c3.36,3.2,5.12,7.84,5.28,13.44,0.16,5.76-.8,12-2.24,18.88,0,0.32-.32,1.44-0.8,3.36a51.66,51.66,0,0,1-5.76,13.44c-3,5.12-7,9.76-12.64,12.48a20.9,20.9,0,0,1-9.76,2.08c-10.88,0-15.36-5.44-16.8-12.64a20.68,20.68,0,0,1-.64-5.6,57.72,57.72,0,0,1,1.12-11.68q0.48-2.88,1-5.28h17c-1.76,7.84-2.4,12.8-1.92,15.84,0.16,3.2,1.44,4.16,3.52,4.16,2.72,0,4.64-1.92,5.92-5q0.72-2.16,1.44-4.8c0.8-3.36,1.76-7,2.4-10.4a35.46,35.46,0,0,1,1.12-4.8c1.28-5.76,1-9.76-2.24-12.16-1.76-1.28-4.32-1.92-8-2.08h-1.44Z"/><path d="M2220.09,7675.54c1.12-5,.16-8.64-3.52-8.64-1.92,0-3.68,1.44-5.44,3.2a16.88,16.88,0,0,0-3.2,5.44h-14.56l13.28-61.92h41.76l-3.68,17.12h-26.88l-5.28,24.48a33.38,33.38,0,0,1,7.2-3.52,7.57,7.57,0,0,1,3.68-.48c9,0,12.64,5.12,14.08,10.72a33.17,33.17,0,0,1-.16,13.6l-5.44,26.24c-1.28,5.6-3.2,13.12-7.52,19.36-4.48,6.4-11.2,11.36-21.6,11.36-10.88,0-15.2-5-16.64-12-1.76-6.88-.16-15.68,1.6-23.52h17.28l-1,4.64c-1.44,6.24-1.92,10.24-1.6,12.32,0.32,2.4,1.44,3.52,3.52,3.52,3.68,0,5.28-4.16,6.72-8.16,0.64-2.08,1.28-4.48,1.92-7.52Z"/><path d="M2236.62,7713.46h16.8l-3.68,17.76h-16.8Zm14.88-69.76h16.8l-3.84,17.76h-16.8Z"/><path d="M2281.19,7678.1l3-14.4c7.52-.48,11-1.92,13.12-5.28,2.08-3,2.72-7.36,3.36-10.56,0.32-1.6.64-3.36,1.12-5.12a46.37,46.37,0,0,0,1.44-10.08c0-3-1-5.12-3.68-5.12-2.08,0-3.52,1-4.8,4-1.44,3.2-2.72,8.16-4.48,16h-17c1.28-6.56,3.36-15.52,7.84-22.72,4.32-7,10.72-12.48,21.6-12.48s15.2,5.6,17,11.52a27,27,0,0,1,.8,8.48,37.91,37.91,0,0,1-.64,5.28c-3.68,17.44-8.48,25.76-14.88,31l-0.32.16c3.36,3.2,5.12,7.84,5.28,13.44,0.16,5.76-.8,12-2.24,18.88,0,0.32-.32,1.44-0.8,3.36a51.56,51.56,0,0,1-5.76,13.44c-3,5.12-7,9.76-12.64,12.48a20.9,20.9,0,0,1-9.76,2.08c-10.88,0-15.36-5.44-16.8-12.64a20.72,20.72,0,0,1-.64-5.6,57.79,57.79,0,0,1,1.12-11.68q0.48-2.88,1-5.28h17c-1.76,7.84-2.4,12.8-1.92,15.84,0.16,3.2,1.44,4.16,3.52,4.16,2.72,0,4.64-1.92,5.92-5q0.72-2.16,1.44-4.8c0.8-3.36,1.76-7,2.4-10.4a35.62,35.62,0,0,1,1.12-4.8c1.28-5.76,1-9.76-2.24-12.16-1.76-1.28-4.32-1.92-8-2.08h-1.44Z"/><path d="M2326.12,7639.06l2.4-11c7.52-1.44,12.48-5.12,16.32-8.32a45,45,0,0,0,5.12-6.08h10.4l-25,117.6h-17.28l19.52-92.16h-11.52Z"/><path d="M2365.4,7731.22l-13.28,20.8h-7.84l9.92-20.8h-5.6l3.68-17.76h16.8Z"/><path d="M2401,7678.1l3-14.4c7.52-.48,11-1.92,13.12-5.28,2.08-3,2.72-7.36,3.36-10.56,0.32-1.6.64-3.36,1.12-5.12a46.43,46.43,0,0,0,1.44-10.08c0-3-1-5.12-3.68-5.12-2.08,0-3.52,1-4.8,4-1.44,3.2-2.72,8.16-4.48,16h-17c1.28-6.56,3.36-15.52,7.84-22.72,4.32-7,10.72-12.48,21.6-12.48s15.2,5.6,17,11.52a27.06,27.06,0,0,1,.8,8.48,37.81,37.81,0,0,1-.64,5.28c-3.68,17.44-8.48,25.76-14.88,31l-0.32.16c3.36,3.2,5.12,7.84,5.28,13.44,0.16,5.76-.8,12-2.24,18.88,0,0.32-.32,1.44-0.8,3.36a51.59,51.59,0,0,1-5.76,13.44c-3,5.12-7,9.76-12.64,12.48a20.9,20.9,0,0,1-9.76,2.08c-10.88,0-15.36-5.44-16.8-12.64a20.72,20.72,0,0,1-.64-5.6,57.72,57.72,0,0,1,1.12-11.68q0.48-2.88,1-5.28h17c-1.76,7.84-2.4,12.8-1.92,15.84,0.16,3.2,1.44,4.16,3.52,4.16,2.72,0,4.64-1.92,5.92-5q0.72-2.16,1.44-4.8c0.8-3.36,1.76-7,2.4-10.4a35.32,35.32,0,0,1,1.12-4.8c1.28-5.76,1-9.76-2.24-12.16-1.76-1.28-4.32-1.92-8-2.08H2401Z"/><path d="M2455.3,7678.1l3-14.4c7.52-.48,11-1.92,13.12-5.28,2.08-3,2.72-7.36,3.36-10.56,0.32-1.6.64-3.36,1.12-5.12a46.32,46.32,0,0,0,1.44-10.08c0-3-1-5.12-3.68-5.12-2.08,0-3.52,1-4.8,4-1.44,3.2-2.72,8.16-4.48,16h-17c1.28-6.56,3.36-15.52,7.84-22.72,4.32-7,10.72-12.48,21.6-12.48s15.2,5.6,17,11.52a27.06,27.06,0,0,1,.8,8.48,37.91,37.91,0,0,1-.64,5.28c-3.68,17.44-8.48,25.76-14.88,31l-0.32.16c3.36,3.2,5.12,7.84,5.28,13.44,0.16,5.76-.8,12-2.24,18.88,0,0.32-.32,1.44-0.8,3.36a51.63,51.63,0,0,1-5.76,13.44c-3,5.12-7,9.76-12.64,12.48a20.9,20.9,0,0,1-9.76,2.08c-10.88,0-15.36-5.44-16.8-12.64a20.68,20.68,0,0,1-.64-5.6,57.79,57.79,0,0,1,1.12-11.68q0.48-2.88,1-5.28h17c-1.76,7.84-2.4,12.8-1.92,15.84,0.16,3.2,1.44,4.16,3.52,4.16,2.72,0,4.64-1.92,5.92-5q0.72-2.16,1.44-4.8c0.8-3.36,1.76-7,2.4-10.4a35.61,35.61,0,0,1,1.12-4.8c1.28-5.76,1-9.76-2.24-12.16-1.76-1.28-4.32-1.92-8-2.08h-1.44Z"/><path d="M2525.07,7630.74h-25.92l3.68-17.12h43.52l-3.68,17.28-38.56,100.32h-17.92Z"/><path d="M2577.55,7731.22h-16.16l25-117.6h16.16l-8,37.44a9.31,9.31,0,0,0,2.24-1.76q1.68-1.2,3.84-2.88c2.72-2.08,6.08-4,8.8-4,4.32,0,6.88,2.56,8.16,5.76a22.67,22.67,0,0,1,.48,11.36l-15.2,71.68h-16.16l14.72-69.28c0.64-3.36-1.12-3.84-3-3.84-1.76,0-3,1-4.32,2.08l-1,1a7,7,0,0,0-1,1.12Z"/><path d="M2046.25,7819.06l2.4-11c7.52-1.44,12.48-5.12,16.32-8.32a45,45,0,0,0,5.12-6.08h10.4l-25,117.6h-17.28l19.52-92.16h-11.52Z"/><path d="M2070.21,7893.46H2087l-3.68,17.76h-16.8Zm14.88-69.76h16.8l-3.84,17.76h-16.8Z"/><path d="M2114.78,7858.1l3-14.4c7.52-.48,11-1.92,13.12-5.28,2.08-3,2.72-7.36,3.36-10.56,0.32-1.6.64-3.36,1.12-5.12a46.32,46.32,0,0,0,1.44-10.08c0-3-1-5.12-3.68-5.12-2.08,0-3.52,1-4.8,4-1.44,3.2-2.72,8.16-4.48,16h-17c1.28-6.56,3.36-15.52,7.84-22.72,4.32-7,10.72-12.48,21.6-12.48s15.2,5.6,17,11.52a27.06,27.06,0,0,1,.8,8.48,37.91,37.91,0,0,1-.64,5.28c-3.68,17.44-8.48,25.76-14.88,31l-0.32.16c3.36,3.2,5.12,7.84,5.28,13.44,0.16,5.76-.8,12-2.24,18.88,0,0.32-.32,1.44-0.8,3.36a51.63,51.63,0,0,1-5.76,13.44c-3,5.12-7,9.76-12.64,12.48a20.9,20.9,0,0,1-9.76,2.08c-10.88,0-15.36-5.44-16.8-12.64a20.68,20.68,0,0,1-.64-5.6,57.79,57.79,0,0,1,1.12-11.68q0.48-2.88,1-5.28h17c-1.76,7.84-2.4,12.8-1.92,15.84,0.16,3.2,1.44,4.16,3.52,4.16,2.72,0,4.64-1.92,5.92-5q0.72-2.16,1.44-4.8c0.8-3.36,1.76-7,2.4-10.4a35.61,35.61,0,0,1,1.12-4.8c1.28-5.76,1-9.76-2.24-12.16-1.76-1.28-4.32-1.92-8-2.08h-1.44Z"/><path d="M2165.67,7817.78a36.57,36.57,0,0,1,6.4-14.88c4.32-5.6,10.56-10.56,21.44-10.56,10.4,0,15.2,5,17,10.56,1.92,5.76.8,12.16,0.32,14.88l-14.24,66.88c-1.12,4.32-2.56,11.2-6.88,17-4.32,5.92-10.72,10.88-21.6,10.88s-15.36-5-17.12-10.88c-1.76-5.76-.64-12.64.48-17l1.6-7.36h17.28c-1.76,7.84-2.72,13-2.72,16,0,2.72,1.28,4.16,3.68,4.16a5.55,5.55,0,0,0,5-3c1.12-1.92,2.08-5.12,3-9.76l4.64-22.08c-3.36,1.76-6.24,2.88-9.28,2.88-9,0-12.8-4.64-14.24-9.92s-0.32-11.68.32-14.88Zm28.8-5.12c0.16-1.44-.16-5.28-4.16-5.28-3.68,0-5.92,3.84-6.4,5.28l-7.2,34.08c-0.48,1.44.48,5.28,4.16,5.28s5.76-3,6.4-4.8Z"/><path d="M2203.95,7893.46h16.8l-3.68,17.76h-16.8Zm14.88-69.76h16.8l-3.84,17.76H2215Z"/><path d="M2265.88,7855.54c1.12-5,.16-8.64-3.52-8.64-1.92,0-3.68,1.44-5.44,3.2a16.88,16.88,0,0,0-3.2,5.44h-14.56l13.28-61.92h41.76l-3.68,17.12h-26.88l-5.28,24.48a33.38,33.38,0,0,1,7.2-3.52,7.57,7.57,0,0,1,3.68-.48c9,0,12.64,5.12,14.08,10.72a33.17,33.17,0,0,1-.16,13.6l-5.44,26.24c-1.28,5.6-3.2,13.12-7.52,19.36-4.48,6.4-11.2,11.36-21.6,11.36-10.88,0-15.2-5-16.64-12-1.76-6.88-.16-15.68,1.6-23.52h17.28l-1,4.64c-1.44,6.24-1.92,10.24-1.6,12.32,0.32,2.4,1.44,3.52,3.52,3.52,3.68,0,5.28-4.16,6.72-8.16,0.64-2.08,1.28-4.48,1.92-7.52Z"/><path d="M2300.68,7817.78a36.57,36.57,0,0,1,6.4-14.88c4.32-5.6,10.56-10.56,21.44-10.56,10.4,0,15.2,5,17,10.56,1.92,5.76.8,12.16,0.32,14.88l-14.24,66.88c-1.12,4.32-2.56,11.2-6.88,17-4.32,5.92-10.72,10.88-21.6,10.88s-15.36-5-17.12-10.88c-1.76-5.76-.64-12.64.48-17l1.6-7.36h17.28c-1.76,7.84-2.72,13-2.72,16,0,2.72,1.28,4.16,3.68,4.16a5.55,5.55,0,0,0,5-3c1.12-1.92,2.08-5.12,3-9.76l4.64-22.08c-3.36,1.76-6.24,2.88-9.28,2.88-9,0-12.8-4.64-14.24-9.92s-0.32-11.68.32-14.88Zm28.8-5.12c0.16-1.44-.16-5.28-4.16-5.28-3.68,0-5.92,3.84-6.4,5.28l-7.2,34.08c-0.48,1.44.48,5.28,4.16,5.28s5.76-3,6.4-4.8Z"/><path d="M2354.28,7911.22L2341,7932h-7.84l9.92-20.8h-5.6l3.68-17.76H2358Z"/><path d="M2416.79,7887.06a44.34,44.34,0,0,1-5.6,12.8,34.82,34.82,0,0,1-8.8,8.64c-3.84,2.72-8.48,4-14.08,4s-9.76-1.28-12.64-4a15.17,15.17,0,0,1-4.8-8.64c-1.12-3.68-1.12-7.84-.16-12.8l14.72-69.28a38.78,38.78,0,0,1,5.44-12.64c2.4-3.2,5-6.4,8.64-8.8a25.82,25.82,0,0,1,14.24-4c5.76,0,9.76,1.6,12.48,4a15.84,15.84,0,0,1,5,8.8c1.12,3.52,1.12,7.68.32,12.64Zm-2.56-69.28c0.64-3.2.32-5.6-.8-7.36a4,4,0,0,0-3.2-1.28c-3,0-5,2.24-6.08,4.32a17.16,17.16,0,0,0-1.44,4.32L2388,7887.06c-0.8,3-.48,5.6.8,7.36a3.63,3.63,0,0,0,3,1.28c3,0,5-1.92,6.08-4.32a20.91,20.91,0,0,0,1.6-4.32Z"/><path d="M2450.95,7885.62h-26.72l3.2-15.2,41.6-76.8h17.28l-16.32,76.8h8l-3.2,15.2h-8l-5.44,25.6h-15.84Zm-8.8-15.2h12l8.48-40.32h-1l-1.6,3.52Z"/><path d="M2504,7885.62h-26.72l3.2-15.2,41.6-76.8h17.28l-16.32,76.8h8l-3.2,15.2h-8l-5.44,25.6h-15.84Zm-8.8-15.2h12l8.48-40.32h-1l-1.6,3.52Z"/><path d="M2577.55,7911.22h-16.16l25-117.6h16.16l-8,37.44a9.33,9.33,0,0,0,2.24-1.76q1.68-1.2,3.84-2.88c2.72-2.08,6.08-4,8.8-4,4.32,0,6.88,2.56,8.16,5.76a22.65,22.65,0,0,1,.48,11.36l-15.2,71.68h-16.16l14.72-69.28c0.64-3.36-1.12-3.84-3-3.84-1.76,0-3,1-4.32,2.08l-1,1a6.91,6.91,0,0,0-1,1.12Z"/><path d="M2065,7999.06l2.4-11c7.52-1.44,12.48-5.12,16.32-8.32a44.89,44.89,0,0,0,5.12-6.08h10.4l-25,117.6H2057l19.52-92.16H2065Z"/><path d="M2088.91,8073.46h16.8l-3.68,17.76h-16.8Zm14.88-69.76h16.8l-3.84,17.76H2100Z"/><path d="M2133.48,8038.1l3-14.4c7.52-.48,11-1.92,13.12-5.28,2.08-3,2.72-7.36,3.36-10.56,0.32-1.6.64-3.36,1.12-5.12a46.37,46.37,0,0,0,1.44-10.08c0-3-1-5.12-3.68-5.12-2.08,0-3.52,1-4.8,4-1.44,3.2-2.72,8.16-4.48,16h-17c1.28-6.56,3.36-15.52,7.84-22.72,4.32-7,10.72-12.48,21.6-12.48s15.2,5.6,17,11.52a27,27,0,0,1,.8,8.48,37.91,37.91,0,0,1-.64,5.28c-3.68,17.44-8.48,25.76-14.88,31l-0.32.16c3.36,3.2,5.12,7.84,5.28,13.44,0.16,5.76-.8,12-2.24,18.88,0,0.32-.32,1.44-0.8,3.36a51.56,51.56,0,0,1-5.76,13.44c-3,5.12-7,9.76-12.64,12.48a20.9,20.9,0,0,1-9.76,2.08c-10.88,0-15.36-5.44-16.8-12.64a20.72,20.72,0,0,1-.64-5.6,57.79,57.79,0,0,1,1.12-11.68q0.48-2.88,1-5.28h17c-1.76,7.84-2.4,12.8-1.92,15.84,0.16,3.2,1.44,4.16,3.52,4.16,2.72,0,4.64-1.92,5.92-5q0.72-2.16,1.44-4.8c0.8-3.36,1.76-7,2.4-10.4a35.62,35.62,0,0,1,1.12-4.8c1.28-5.76,1-9.76-2.24-12.16-1.76-1.28-4.32-1.92-8-2.08h-1.44Z"/><path d="M2187.75,8038.1l3-14.4c7.52-.48,11-1.92,13.12-5.28,2.08-3,2.72-7.36,3.36-10.56,0.32-1.6.64-3.36,1.12-5.12a46.38,46.38,0,0,0,1.44-10.08c0-3-1-5.12-3.68-5.12-2.08,0-3.52,1-4.8,4-1.44,3.2-2.72,8.16-4.48,16h-17c1.28-6.56,3.36-15.52,7.84-22.72,4.32-7,10.72-12.48,21.6-12.48s15.2,5.6,17,11.52a27.09,27.09,0,0,1,.8,8.48,38,38,0,0,1-.64,5.28c-3.68,17.44-8.48,25.76-14.88,31l-0.32.16c3.36,3.2,5.12,7.84,5.28,13.44,0.16,5.76-.8,12-2.24,18.88,0,0.32-.32,1.44-0.8,3.36a51.66,51.66,0,0,1-5.76,13.44c-3,5.12-7,9.76-12.64,12.48a20.9,20.9,0,0,1-9.76,2.08c-10.88,0-15.36-5.44-16.8-12.64a20.68,20.68,0,0,1-.64-5.6,57.72,57.72,0,0,1,1.12-11.68q0.48-2.88,1-5.28h17c-1.76,7.84-2.4,12.8-1.92,15.84,0.16,3.2,1.44,4.16,3.52,4.16,2.72,0,4.64-1.92,5.92-5q0.72-2.16,1.44-4.8c0.8-3.36,1.76-7,2.4-10.4a35.46,35.46,0,0,1,1.12-4.8c1.28-5.76,1-9.76-2.24-12.16-1.76-1.28-4.32-1.92-8-2.08h-1.44Z"/><path d="M2219.4,8073.46h16.8l-3.68,17.76h-16.8Zm14.88-69.76h16.8l-3.84,17.76h-16.8Z"/><path d="M2256.41,8010.9l1.76-8.16c1.76-7.84,4.48-15.52,9-21.12,4.64-5.6,10.88-9.28,20.48-9.28,9,0,14.08,3.36,16.48,8.48a24,24,0,0,1,1.76,9.28,59.06,59.06,0,0,1-1.28,11.52c-2.56,12.16-10.08,26.08-18.56,39.52a387.27,387.27,0,0,1-24,33h27.36l-3.52,17.12H2239l3.52-17.12c7-8.16,13.44-16.48,19.68-24.8a221.63,221.63,0,0,0,14.88-23.2c4.48-8.16,8.16-16.16,9.92-23.36a42.19,42.19,0,0,0,1.12-9.6c-0.48-2.72-1.28-4.8-3.84-4.8-2.4,0-4.16,1.76-5.6,4.32a44.07,44.07,0,0,0-3.2,10.08l-1.76,8.16h-17.28Z"/><path d="M2346.41,8067.06a38.53,38.53,0,0,1-6.56,14.72,25.64,25.64,0,0,1-21.44,10.72c-10.72,0-15.2-5-17-10.72-1.92-5.6-.8-12-0.16-14.72l14.08-66.88c1.12-4,2.56-11.2,6.88-17.12,4.32-5.76,10.72-10.72,21.6-10.72s15.36,5,17.12,10.72c1.76,5.92.64,13.12-.48,17.12l-1.44,7.36h-17.28c1.76-7.84,2.56-13,2.56-16,0-2.72-1.28-4.16-3.68-4.16a5.15,5.15,0,0,0-4.8,3,31.49,31.49,0,0,0-3.2,9.76l-4.32,21c3.36-1.76,6.08-2.88,9.12-2.88,9,0,12.8,4.64,14.24,9.92s0.48,11.68-.32,14.88Zm-29,5.12a4.91,4.91,0,0,0,.48,3.2,4,4,0,0,0,3.68,2.08c3.68,0,5.92-3.84,6.4-5.28l7.52-35.2c0.16-1.44-.48-5.28-4.16-5.28s-5.76,3-6.4,4.8Z"/><path d="M2369.32,8091.22L2356,8112h-7.84l9.92-20.8h-5.6l3.68-17.76H2373Z"/><path d="M2407.59,8065.62h-26.72l3.2-15.2,41.6-76.8h17.28l-16.32,76.8h8l-3.2,15.2h-8l-5.44,25.6h-15.84Zm-8.8-15.2h12l8.48-40.32h-1l-1.6,3.52Z"/><path d="M2472,7990.74h-25.92l3.68-17.12h43.52l-3.68,17.28-38.56,100.32h-17.92Z"/><path d="M2498.83,8038.1l3-14.4c7.52-.48,11-1.92,13.12-5.28,2.08-3,2.72-7.36,3.36-10.56,0.32-1.6.64-3.36,1.12-5.12a46.32,46.32,0,0,0,1.44-10.08c0-3-1-5.12-3.68-5.12-2.08,0-3.52,1-4.8,4-1.44,3.2-2.72,8.16-4.48,16h-17c1.28-6.56,3.36-15.52,7.84-22.72,4.32-7,10.72-12.48,21.6-12.48s15.2,5.6,17,11.52a27.06,27.06,0,0,1,.8,8.48,37.91,37.91,0,0,1-.64,5.28c-3.68,17.44-8.48,25.76-14.88,31l-0.32.16c3.36,3.2,5.12,7.84,5.28,13.44,0.16,5.76-.8,12-2.24,18.88,0,0.32-.32,1.44-0.8,3.36a51.63,51.63,0,0,1-5.76,13.44c-3,5.12-7,9.76-12.64,12.48a20.9,20.9,0,0,1-9.76,2.08c-10.88,0-15.36-5.44-16.8-12.64a20.68,20.68,0,0,1-.64-5.6,57.79,57.79,0,0,1,1.12-11.68q0.48-2.88,1-5.28h17c-1.76,7.84-2.4,12.8-1.92,15.84,0.16,3.2,1.44,4.16,3.52,4.16,2.72,0,4.64-1.92,5.92-5q0.72-2.16,1.44-4.8c0.8-3.36,1.76-7,2.4-10.4a35.61,35.61,0,0,1,1.12-4.8c1.28-5.76,1-9.76-2.24-12.16-1.76-1.28-4.32-1.92-8-2.08h-1.44Z"/><path d="M2577.55,8091.22h-16.16l25-117.6h16.16l-8,37.44a9.31,9.31,0,0,0,2.24-1.76q1.68-1.2,3.84-2.88c2.72-2.08,6.08-4,8.8-4,4.32,0,6.88,2.56,8.16,5.76a22.67,22.67,0,0,1,.48,11.36l-15.2,71.68h-16.16l14.72-69.28c0.64-3.36-1.12-3.84-3-3.84-1.76,0-3,1-4.32,2.08l-1,1a7,7,0,0,0-1,1.12Z"/><path d="M2077.25,8179.06l2.4-11c7.52-1.44,12.48-5.12,16.32-8.32a44.81,44.81,0,0,0,5.12-6.08h10.4l-25,117.6h-17.28l19.52-92.16h-11.52Z"/><path d="M2101.2,8253.46H2118l-3.68,17.76h-16.8Zm14.88-69.76h16.8l-3.84,17.76h-16.8Z"/><path d="M2145.77,8218.1l3-14.4c7.52-.48,11-1.92,13.12-5.28,2.08-3,2.72-7.36,3.36-10.56,0.32-1.6.64-3.36,1.12-5.12a46.43,46.43,0,0,0,1.44-10.08c0-3-1-5.12-3.68-5.12-2.08,0-3.52,1-4.8,4-1.44,3.2-2.72,8.16-4.48,16h-17c1.28-6.56,3.36-15.52,7.84-22.72,4.32-7,10.72-12.48,21.6-12.48s15.2,5.6,17,11.52a27.06,27.06,0,0,1,.8,8.48,37.81,37.81,0,0,1-.64,5.28c-3.68,17.44-8.48,25.76-14.88,31l-0.32.16c3.36,3.2,5.12,7.84,5.28,13.44,0.16,5.76-.8,12-2.24,18.88,0,0.32-.32,1.44-0.8,3.36a51.59,51.59,0,0,1-5.76,13.44c-3,5.12-7,9.76-12.64,12.48a20.9,20.9,0,0,1-9.76,2.08c-10.88,0-15.36-5.44-16.8-12.64a20.72,20.72,0,0,1-.64-5.6,57.72,57.72,0,0,1,1.12-11.68q0.48-2.88,1-5.28h17c-1.76,7.84-2.4,12.8-1.92,15.84,0.16,3.2,1.44,4.16,3.52,4.16,2.72,0,4.64-1.92,5.92-5q0.72-2.16,1.44-4.8c0.8-3.36,1.76-7,2.4-10.4a35.32,35.32,0,0,1,1.12-4.8c1.28-5.76,1-9.76-2.24-12.16-1.76-1.28-4.32-1.92-8-2.08h-1.44Z"/><path d="M2192,8190.9l1.76-8.16c1.76-7.84,4.48-15.52,9-21.12,4.64-5.6,10.88-9.28,20.48-9.28,9,0,14.08,3.36,16.48,8.48a24,24,0,0,1,1.76,9.28,59,59,0,0,1-1.28,11.52c-2.56,12.16-10.08,26.08-18.56,39.52a386.81,386.81,0,0,1-24,33H2225l-3.52,17.12h-46.88l3.52-17.12c7-8.16,13.44-16.48,19.68-24.8a221.79,221.79,0,0,0,14.88-23.2c4.48-8.16,8.16-16.16,9.92-23.36a42.19,42.19,0,0,0,1.12-9.6c-0.48-2.72-1.28-4.8-3.84-4.8-2.4,0-4.16,1.76-5.6,4.32a44.07,44.07,0,0,0-3.2,10.08l-1.76,8.16H2192Z"/><path d="M2232.49,8253.46h16.8l-3.68,17.76h-16.8Zm14.88-69.76h16.8l-3.84,17.76h-16.8Z"/><path d="M2267.8,8179.06l2.4-11c7.52-1.44,12.48-5.12,16.32-8.32a44.81,44.81,0,0,0,5.12-6.08H2302l-25,117.6H2259.8l19.52-92.16H2267.8Z"/><path d="M2317,8245.62h-26.72l3.2-15.2,41.6-76.8h17.28l-16.32,76.8h8l-3.2,15.2h-8l-5.44,25.6h-15.84Zm-8.8-15.2h12l8.48-40.32h-1l-1.6,3.52Z"/><path d="M2360.84,8271.22l-13.28,20.8h-7.84l9.92-20.8H2344l3.68-17.76h16.8Z"/><path d="M2413.06,8170.74h-25.92l3.68-17.12h43.52l-3.68,17.28-38.56,100.32h-17.92Z"/><path d="M2467.36,8246.1c-0.16.48-.48,1.6-0.8,3a40.29,40.29,0,0,1-5.28,11.2,28.53,28.53,0,0,1-12.64,10.4,27.39,27.39,0,0,1-9.92,1.76c-7.52,0-12.16-2.56-14.72-6.24a20.94,20.94,0,0,1-3.52-12c0-3.84.32-7,.8-8.16l2.88-13.76c1.92-9,6.88-17.6,13.92-23.2-4.32-5.28-5.12-13.44-3.36-21.6l2.08-9.92c0.16-.8.8-2.56,1.6-5.28,1.6-5.44,5.92-11.84,12.64-16.48,3.36-2.4,7.68-3.52,13.12-3.52,10.88,0,15,5.6,16.8,11.52a32.81,32.81,0,0,1,.8,8.48,30.76,30.76,0,0,1-.8,5.28l-2.08,9.92c-1.76,8.16-6.24,16.32-12.64,21.6,5,5.6,5.92,14.24,4,23.2Zm-15.36-6.88c1.44-7,2.08-12.32,2.56-15.68,0-3.36-1.44-5.12-4.32-5.12-6.24,0-7,6.24-8.48,11.84a139.55,139.55,0,0,0-3.36,16.64c-0.64,5.12-1,9.76,3.68,9.76,5.92,0,6.88-5.76,8.16-10.08A62.27,62.27,0,0,0,2452,8239.22Zm10.72-55.52a90.58,90.58,0,0,0,1.76-12.16c0-2.72-1.12-4-3.52-4-3.84,0-5.12,4.16-6.4,8.8a93.23,93.23,0,0,0-3.36,15c-0.8,5-2.08,10.08,2.56,10.08,4.48,0,5.76-5.28,7-9.76C2461.28,8189.46,2461.92,8186.74,2462.72,8183.7Z"/><path d="M2492.91,8177.78a36.57,36.57,0,0,1,6.4-14.88c4.32-5.6,10.56-10.56,21.44-10.56,10.4,0,15.2,5,17,10.56,1.92,5.76.8,12.16,0.32,14.88l-14.24,66.88c-1.12,4.32-2.56,11.2-6.88,17-4.32,5.92-10.72,10.88-21.6,10.88s-15.36-5-17.12-10.88c-1.76-5.76-.64-12.64.48-17l1.6-7.36h17.28c-1.76,7.84-2.72,13-2.72,16,0,2.72,1.28,4.16,3.68,4.16a5.55,5.55,0,0,0,5-3c1.12-1.92,2.08-5.12,3-9.76l4.64-22.08c-3.36,1.76-6.24,2.88-9.28,2.88-9,0-12.8-4.64-14.24-9.92s-0.32-11.68.32-14.88Zm28.8-5.12c0.16-1.44-.16-5.28-4.16-5.28-3.68,0-5.92,3.84-6.4,5.28l-7.2,34.08c-0.48,1.44.48,5.28,4.16,5.28s5.76-3,6.4-4.8Z"/><path d="M2577.55,8271.22h-16.16l25-117.6h16.16l-8,37.44a9.31,9.31,0,0,0,2.24-1.76q1.68-1.2,3.84-2.88c2.72-2.08,6.08-4,8.8-4,4.32,0,6.88,2.56,8.16,5.76a22.67,22.67,0,0,1,.48,11.36l-15.2,71.68h-16.16l14.72-69.28c0.64-3.36-1.12-3.84-3-3.84-1.76,0-3,1-4.32,2.08l-1,1a7,7,0,0,0-1,1.12Z"/><path d="M2089.79,8359.06l2.4-11c7.52-1.44,12.48-5.12,16.32-8.32a44.81,44.81,0,0,0,5.12-6.08H2124l-25,117.6h-17.28l19.52-92.16h-11.52Z"/><path d="M2113.74,8433.46h16.8l-3.68,17.76h-16.8Zm14.88-69.76h16.8l-3.84,17.76h-16.8Z"/><path d="M2162.89,8425.62h-26.72l3.2-15.2,41.6-76.8h17.28l-16.32,76.8h8l-3.2,15.2h-8l-5.44,25.6h-15.84Zm-8.8-15.2h12l8.48-40.32h-1l-1.6,3.52Z"/><path d="M2202.6,8359.06l2.4-11c7.52-1.44,12.48-5.12,16.32-8.32a44.89,44.89,0,0,0,5.12-6.08h10.4l-25,117.6H2194.6l19.52-92.16H2202.6Z"/><path d="M2226.55,8433.46h16.8l-3.68,17.76h-16.8Zm14.88-69.76h16.8l-3.84,17.76h-16.8Z"/><path d="M2288.49,8395.54c1.12-5,.16-8.64-3.52-8.64-1.92,0-3.68,1.44-5.44,3.2a16.88,16.88,0,0,0-3.2,5.44h-14.56l13.28-61.92h41.76l-3.68,17.12h-26.88l-5.28,24.48a33.38,33.38,0,0,1,7.2-3.52,7.57,7.57,0,0,1,3.68-.48c9,0,12.64,5.12,14.08,10.72a33.17,33.17,0,0,1-.16,13.6l-5.44,26.24c-1.28,5.6-3.2,13.12-7.52,19.36-4.48,6.4-11.2,11.36-21.6,11.36-10.88,0-15.2-5-16.64-12-1.76-6.88-.16-15.68,1.6-23.52h17.28l-1,4.64c-1.44,6.24-1.92,10.24-1.6,12.32,0.32,2.4,1.44,3.52,3.52,3.52,3.68,0,5.28-4.16,6.72-8.16,0.64-2.08,1.28-4.48,1.92-7.52Z"/><path d="M2330.36,8425.62h-26.72l3.2-15.2,41.6-76.8h17.28l-16.32,76.8h8l-3.2,15.2h-8l-5.44,25.6h-15.84Zm-8.8-15.2h12l8.48-40.32h-1l-1.6,3.52Z"/><path d="M2374.18,8451.22L2360.9,8472h-7.84l9.92-20.8h-5.6l3.68-17.76h16.8Z"/><path d="M2409.81,8398.1l3-14.4c7.52-.48,11-1.92,13.12-5.28,2.08-3,2.72-7.36,3.36-10.56,0.32-1.6.64-3.36,1.12-5.12a46.38,46.38,0,0,0,1.44-10.08c0-3-1-5.12-3.68-5.12-2.08,0-3.52,1-4.8,4-1.44,3.2-2.72,8.16-4.48,16h-17c1.28-6.56,3.36-15.52,7.84-22.72,4.32-7,10.72-12.48,21.6-12.48s15.2,5.6,17,11.52a27.09,27.09,0,0,1,.8,8.48,38,38,0,0,1-.64,5.28c-3.68,17.44-8.48,25.76-14.88,31l-0.32.16c3.36,3.2,5.12,7.84,5.28,13.44,0.16,5.76-.8,12-2.24,18.88,0,0.32-.32,1.44-0.8,3.36a51.66,51.66,0,0,1-5.76,13.44c-3,5.12-7,9.76-12.64,12.48a20.9,20.9,0,0,1-9.76,2.08c-10.88,0-15.36-5.44-16.8-12.64a20.68,20.68,0,0,1-.64-5.6,57.72,57.72,0,0,1,1.12-11.68q0.48-2.88,1-5.28h17c-1.76,7.84-2.4,12.8-1.92,15.84,0.16,3.2,1.44,4.16,3.52,4.16,2.72,0,4.64-1.92,5.92-5q0.72-2.16,1.44-4.8c0.8-3.36,1.76-7,2.4-10.4a35.46,35.46,0,0,1,1.12-4.8c1.28-5.76,1-9.76-2.24-12.16-1.76-1.28-4.32-1.92-8-2.08h-1.44Z"/><path d="M2454.74,8359.06l2.4-11c7.52-1.44,12.48-5.12,16.32-8.32a44.81,44.81,0,0,0,5.12-6.08H2489l-25,117.6h-17.28l19.52-92.16h-11.52Z"/><path d="M2504,8425.62h-26.72l3.2-15.2,41.6-76.8h17.28l-16.32,76.8h8l-3.2,15.2h-8l-5.44,25.6h-15.84Zm-8.8-15.2h12l8.48-40.32h-1l-1.6,3.52Z"/><path d="M2577.55,8451.22h-16.16l25-117.6h16.16l-8,37.44a9.31,9.31,0,0,0,2.24-1.76q1.68-1.2,3.84-2.88c2.72-2.08,6.08-4,8.8-4,4.32,0,6.88,2.56,8.16,5.76a22.67,22.67,0,0,1,.48,11.36l-15.2,71.68h-16.16l14.72-69.28c0.64-3.36-1.12-3.84-3-3.84-1.76,0-3,1-4.32,2.08l-1,1a7,7,0,0,0-1,1.12Z"/><path d="M923.63,6687.08a42.76,42.76,0,0,1,13.46.17,33.55,33.55,0,0,1,11,4.57c3.85,2.39,6.73,6,8.83,11s2.52,9.14,1.19,12.72a14.61,14.61,0,0,1-5.87,7.5c-2.85,2.37-6.54,3.93-11.3,4.94l-67,12.9a37.4,37.4,0,0,1-13.26-.09c-3.74-.93-7.54-2-11.05-4.37a24.86,24.86,0,0,1-8.89-11.14c-2.16-5.11-2.24-9.26-1.13-12.58a15.24,15.24,0,0,1,6-7.7c2.71-2.31,6.4-3.87,11.1-5Zm-60.54,28.24c-3.08.63-5.09,1.81-6.23,3.47a3.83,3.83,0,0,0,.06,3.32c1.14,2.7,3.85,3.56,6.11,3.78a16.49,16.49,0,0,0,4.37-.34l67-12.9c3-.43,5.15-1.67,6.23-3.47a3.49,3.49,0,0,0,0-3.18c-1.14-2.7-3.56-3.68-6.11-3.78a20.15,20.15,0,0,0-4.43.2Z" stroke="#000" stroke-miterlimit="10"/><path d="M807.92,6510.94L795.55,6509c-2.09-8.22-6.48-13.46-10.28-17.49a49.75,49.75,0,0,0-7.06-5.26l-0.69-11.5L909.2,6494.6l1.14,19.11-103.18-15.5Z" stroke="#000" stroke-miterlimit="10"/><path d="M854,6261.37l-7.92-4.77c-7.59-4.65-14.66-10.25-18.93-17-4.21-6.87-5.83-14.73-2.39-24.79,3.21-9.39,8.56-13.55,14.79-14.24a26.54,26.54,0,0,1,10.36,1.48,65.4,65.4,0,0,1,11.62,5.46c11.83,7,23.72,19.9,34.77,33.6a427.92,427.92,0,0,1,26,37l9.8-28.67,16.68,9.82-16.79,49.13-16.68-9.82c-6-10.3-12.46-20-18.95-29.51a245.55,245.55,0,0,0-19-23.9c-6.95-7.62-14-14.34-20.93-18.76a46.76,46.76,0,0,0-9.66-4.61c-3-.47-5.49-0.38-6.41,2.31-0.86,2.52.36,5,2.52,7.42a48.88,48.88,0,0,0,9.42,7l7.92,4.77Z" stroke="#000" stroke-miterlimit="10"/><path d="M1017.34,6038.27l-9.64-13.14c5.16-6.56,6.57-10.53,5.33-14.73-1-4-4.07-7.68-6.24-10.57-1.08-1.45-2.3-3-3.4-4.71a51.26,51.26,0,0,0-7.26-8.63c-2.51-2.25-4.93-3-6.94-.74-1.54,1.72-1.81,3.61-.24,6.92,1.58,3.55,4.73,8.27,9.9,15.51l-12.53,14c-4.47-5.9-10.33-14.24-13-23.25-2.62-8.77-2.38-18.07,5.65-27s15.85-8.41,22-5.49a30,30,0,0,1,7.59,5.6,42.18,42.18,0,0,1,3.88,4.43c11.68,15.92,15,26,14.63,35.21l-0.1.38c5.12-.41,10.25,1.56,15,5.57s9.31,9.52,13.93,15.79c0.26,0.24,1,1.33,2.18,3.14a57.16,57.16,0,0,1,6.84,14.68c2,6.29,2.86,13,1,19.65a23.14,23.14,0,0,1-5.49,9.59c-8,9-15.83,8.66-22.84,4.53a23,23,0,0,1-5.09-3.61,64,64,0,0,1-8.81-9.55q-2-2.52-3.65-4.69l12.53-14c5.17,7.24,8.79,11.43,11.66,13.28,2.76,2.23,4.5,1.88,6,.17,2-2.25,1.84-5.25.28-8.55q-1.25-2.19-2.9-4.73c-2.18-3.14-4.51-6.65-6.81-9.66a39.12,39.12,0,0,1-3.13-4.47c-3.81-5.31-7.35-8-11.69-7.13-2.36.51-4.78,2.15-7.62,5.07Z" stroke="#000" stroke-miterlimit="10"/><path d="M1242.16,5910.51l-26.75,12.65-4-16.73,5.28-96.59,17.3-8.18,20,84.62,8-3.79,4,16.73-8,3.79,6.68,28.21-15.86,7.5Zm-16-11.05,12-5.68-10.6-44.38-1,.46,0.07,4.28Z" stroke="#000" stroke-miterlimit="10"/><path d="M1491.62,5820.78c1-5.54-.23-9.57-4.31-9.39-2.12.09-4,1.77-5.87,3.8a18.71,18.71,0,0,0-3.28,6.17l-16.11.69,11.75-69.15,46.21-2-3.26,19.12-29.74,1.28-4.68,27.34a36.82,36.82,0,0,1,7.8-4.24,8.38,8.38,0,0,1,4.05-.71c9.91-.43,14.23,5.06,16.09,11.19a36.75,36.75,0,0,1,.47,15.06l-4.77,29.29c-1.15,6.26-2.92,14.67-7.4,21.78-4.65,7.29-11.85,13.1-23.36,13.6-12,.52-17.05-4.77-19-12.49-2.28-7.53-.92-17.34.65-26.1l19.12-.82-0.84,5.18c-1.3,7-1.64,11.42-1.19,13.71,0.47,2.64,1.76,3.83,4.06,3.73,4.07-.17,5.65-4.85,7-9.35,0.61-2.33,1.2-5,1.77-8.41Z" stroke="#000" stroke-miterlimit="10"/><path d="M1745.29,5906.28c-1.72,2.57-5.87,8.58-12.54,12.71a28.39,28.39,0,0,1-26.4,2.76c-11.11-4.18-13.83-11.06-13.41-17.72,0.19-6.55,3.85-12.75,5.57-15.32l40.65-63.86c2.72-3.71,7-10.61,13.8-15.07,6.72-4.29,15.29-6.94,26.57-2.7s14,11.13,13.58,17.78c-0.48,6.82-4.45,13.85-7.17,17.56l-4.36,7.07-17.92-6.73c4.88-7.44,7.7-12.44,8.89-15.59,1.06-2.82.29-4.81-2.2-5.75a5.71,5.71,0,0,0-6.16,1.28,34.88,34.88,0,0,0-7.12,8.87l-12.64,20c4.17-.52,7.43-0.62,10.58.57,9.29,3.49,11.46,9.8,10.9,15.83s-4.05,12.3-6.13,15.3Zm-32-6a5.42,5.42,0,0,0-.75,3.5,4.41,4.41,0,0,0,3,3.59c3.82,1.43,7.63-1.67,8.69-3l21.51-33.57c0.73-1.43,1.56-5.66-2.26-7.09s-7.16.91-8.5,2.48Z" stroke="#000" stroke-miterlimit="10"/><path d="M1998.94,5979.29l-21-19.61,15.93-11.07,35.21,32.92-16,11.2-107.08,52-14.5-13.56Z" stroke="#000" stroke-miterlimit="10"/><path d="M2075.46,6246.15c-0.56.06-1.83,0.25-3.43,0.58a44.66,44.66,0,0,1-13.71-.2,31.6,31.6,0,0,1-16.28-8,30.35,30.35,0,0,1-6.32-9.2c-3.44-7.58-3-13.44-.45-17.7a23.19,23.19,0,0,1,10.49-9c3.87-1.76,7.25-2.9,8.6-2.93l15.2-3.4c9.92-2.17,20.9-1.12,29.77,3.42,3.35-6.77,11.21-11.32,20.25-13.28l11-2.45c0.88-.21,2.95-0.37,6.06-0.8,6.22-.88,14.65.55,22.41,5.2,4,2.29,7.07,6.13,9.56,11.62,5,11,1.24,17.73-3.92,22.22a36.47,36.47,0,0,1-8.18,4.69,34.18,34.18,0,0,1-5.69,1.61l-11,2.45c-9,2-19.32,1.18-27.57-2.86-3.38,7.57-11.65,12.49-21.57,14.66Zm-0.09-18.64c7.76-1.77,13.38-3.54,17-4.6,3.39-1.54,4.5-3.8,3.19-6.7-2.86-6.29-9.52-4.24-15.82-3.13a154.64,154.64,0,0,0-18.32,4.23c-5.46,1.7-10.28,3.5-8.16,8.18,2.71,6,9,4.3,13.9,3.61A69.38,69.38,0,0,0,2075.37,6227.51Zm60.9-14.61a100.53,100.53,0,0,0,13.07-3.79c2.74-1.25,3.52-3,2.42-5.38-1.76-3.87-6.54-3.26-11.8-2.43a103.38,103.38,0,0,0-16.71,3.5c-5.37,1.46-11.12,2.52-9,7.2,2.05,4.52,8,3.39,13.07,2.63C2129.8,6214.08,2132.83,6213.48,2136.26,6212.9Z" stroke="#000" stroke-miterlimit="10"/><path d="M1110.94,6861.62a548.36,548.36,0,0,1-113.17-163.93l30.14-13.53a515.45,515.45,0,0,0,106.38,154.09Zm-119.26-178a546.2,546.2,0,0,1-41.61-194.81l33-.94a513.28,513.28,0,0,0,39.09,183.08ZM982.5,6473.5h-35v-0.56c0-67.37,13.23-133.17,37-195.58l31.27,11.76c-22.34,58.64-33.27,120.48-33.27,183.81v0.56Zm39.42-197.87L991.39,6263a547.83,547.83,0,0,1,108.34-167.2l24,22.68A514.92,514.92,0,0,0,1021.92,6275.63Zm948.59-14.28a515.44,515.44,0,0,0-106.5-154l23.33-23.39a548.36,548.36,0,0,1,113.3,163.84Zm-836.67-153.26-23.38-23.34a548.38,548.38,0,0,1,163.89-113.23l13.54,30.13A515.45,515.45,0,0,0,1133.84,6108.08Zm719.77-10.83a514.92,514.92,0,0,0-157.2-101.77l12.62-30.53a547.83,547.83,0,0,1,167.25,108.27Zm-552.48-101.34-12.69-30.5a546.12,546.12,0,0,1,194.8-41.69l0.95,33A513.23,513.23,0,0,0,1301.14,5995.91Zm381.79-5.3c-58.58-22.29-120.36-33.11-183.63-33.11h-0.79v-33h0.74c67.35,0,133.09,11.77,195.43,35.5Z" stroke="#000" stroke-miterlimit="10" fill="url(#a)"/><path d="M1197.37,6704.83l0.77-3.55a11.18,11.18,0,0,0,5.24-2.67,14.44,14.44,0,0,0,1.64-2h3.34l-8,37.77h-5.55l6.27-29.6h-3.7Z" stroke="#000" stroke-miterlimit="10"/><path d="M1222.61,6726.67a14.27,14.27,0,0,1-1.8,4.11,11.18,11.18,0,0,1-2.83,2.77,7.57,7.57,0,0,1-4.52,1.29,5.67,5.67,0,0,1-4.06-1.29,4.87,4.87,0,0,1-1.54-2.77,8.46,8.46,0,0,1-.05-4.11l4.73-22.25a12.46,12.46,0,0,1,1.75-4.06,11.15,11.15,0,0,1,2.78-2.83,8.29,8.29,0,0,1,4.57-1.28,5.84,5.84,0,0,1,4,1.28,5.09,5.09,0,0,1,1.59,2.83,8.82,8.82,0,0,1,.1,4.06Zm-0.82-22.25a3.15,3.15,0,0,0-.26-2.36,1.28,1.28,0,0,0-1-.41,2.29,2.29,0,0,0-2,1.39,5.52,5.52,0,0,0-.46,1.39l-4.73,22.25a2.76,2.76,0,0,0,.26,2.36,1.16,1.16,0,0,0,1,.41,2.13,2.13,0,0,0,2-1.39,6.67,6.67,0,0,0,.51-1.39Z" stroke="#000" stroke-miterlimit="10"/><path d="M1153.43,6629.35l0.57-2.62a16.86,16.86,0,0,1,2.88-6.78,8,8,0,0,1,6.58-3c2.88,0,4.52,1.08,5.29,2.72a7.69,7.69,0,0,1,.57,3,19,19,0,0,1-.41,3.7c-0.82,3.91-3.24,8.38-6,12.69a124.24,124.24,0,0,1-7.71,10.59H1164l-1.13,5.5h-15.06l1.13-5.5c2.26-2.62,4.32-5.29,6.32-8a71.3,71.3,0,0,0,4.78-7.45,32.45,32.45,0,0,0,3.19-7.5,13.55,13.55,0,0,0,.36-3.08c-0.15-.87-0.41-1.54-1.23-1.54a2.19,2.19,0,0,0-1.8,1.39,14.2,14.2,0,0,0-1,3.24l-0.56,2.62h-5.55Z" stroke="#000" stroke-miterlimit="10"/><path d="M1185,6647.38a14.27,14.27,0,0,1-1.8,4.11,11.18,11.18,0,0,1-2.83,2.77,7.57,7.57,0,0,1-4.52,1.29,5.66,5.66,0,0,1-4.06-1.29,4.87,4.87,0,0,1-1.54-2.77,8.46,8.46,0,0,1-.05-4.11l4.73-22.25a12.48,12.48,0,0,1,1.75-4.06,11.15,11.15,0,0,1,2.78-2.83A8.29,8.29,0,0,1,1184,6617a5.83,5.83,0,0,1,4,1.28,5.09,5.09,0,0,1,1.59,2.83,8.82,8.82,0,0,1,.1,4.06Zm-0.82-22.25a3.15,3.15,0,0,0-.26-2.36,1.27,1.27,0,0,0-1-.41,2.29,2.29,0,0,0-2,1.39,5.52,5.52,0,0,0-.46,1.39l-4.73,22.25a2.76,2.76,0,0,0,.26,2.36,1.16,1.16,0,0,0,1,.41,2.12,2.12,0,0,0,2-1.39,6.67,6.67,0,0,0,.51-1.39Z" stroke="#000" stroke-miterlimit="10"/><path d="M1133,6557.32l1-4.62c2.42-.15,3.55-0.62,4.21-1.7a9.33,9.33,0,0,0,1.08-3.39c0.1-.51.21-1.08,0.36-1.64a14.84,14.84,0,0,0,.46-3.24c0-1-.31-1.64-1.18-1.64a1.61,1.61,0,0,0-1.54,1.29,30,30,0,0,0-1.44,5.14h-5.45a22.07,22.07,0,0,1,2.52-7.3,7.64,7.64,0,0,1,6.94-4c3.5,0,4.88,1.8,5.45,3.7a8.68,8.68,0,0,1,.26,2.72,12.13,12.13,0,0,1-.21,1.7c-1.18,5.6-2.72,8.27-4.78,10l-0.1.05a6,6,0,0,1,1.7,4.32,26.58,26.58,0,0,1-.72,6.06c0,0.1-.1.46-0.26,1.08a16.56,16.56,0,0,1-1.85,4.32,9.85,9.85,0,0,1-4.06,4,6.71,6.71,0,0,1-3.13.67c-3.49,0-4.93-1.75-5.4-4.06a6.65,6.65,0,0,1-.21-1.8,18.57,18.57,0,0,1,.36-3.75q0.15-.92.31-1.7h5.45a15.74,15.74,0,0,0-.62,5.09c0.05,1,.46,1.34,1.13,1.34a2.15,2.15,0,0,0,1.9-1.59q0.23-.69.46-1.54c0.26-1.08.56-2.26,0.77-3.34a11.48,11.48,0,0,1,.36-1.54c0.41-1.85.31-3.13-.72-3.91a4.67,4.67,0,0,0-2.57-.67H1133Z" stroke="#000" stroke-miterlimit="10"/><path d="M1161.09,6566.63a14.27,14.27,0,0,1-1.8,4.11,11.18,11.18,0,0,1-2.83,2.77,7.57,7.57,0,0,1-4.52,1.29,5.67,5.67,0,0,1-4.06-1.29,4.87,4.87,0,0,1-1.54-2.77,8.46,8.46,0,0,1-.05-4.11l4.73-22.25a12.46,12.46,0,0,1,1.75-4.06,11.15,11.15,0,0,1,2.78-2.83,8.29,8.29,0,0,1,4.57-1.28,5.84,5.84,0,0,1,4,1.28,5.09,5.09,0,0,1,1.59,2.83,8.82,8.82,0,0,1,.1,4.06Zm-0.82-22.25a3.15,3.15,0,0,0-.26-2.36,1.28,1.28,0,0,0-1-.41,2.29,2.29,0,0,0-2,1.39,5.52,5.52,0,0,0-.46,1.39l-4.73,22.25a2.76,2.76,0,0,0,.26,2.36,1.16,1.16,0,0,0,1,.41,2.13,2.13,0,0,0,2-1.39,6.67,6.67,0,0,0,.51-1.39Z" stroke="#000" stroke-miterlimit="10"/><path d="M1122.15,6483.2h-8.58l1-4.88,13.36-24.67h5.55l-5.24,24.67h2.57l-1,4.88h-2.57l-1.75,8.22h-5.09Zm-2.83-4.88h3.85l2.72-13h-0.31l-0.51,1.13Z" stroke="#000" stroke-miterlimit="10"/><path d="M1148.56,6483.67a14.27,14.27,0,0,1-1.8,4.11,11.18,11.18,0,0,1-2.83,2.77,7.57,7.57,0,0,1-4.52,1.29,5.66,5.66,0,0,1-4.06-1.29,4.87,4.87,0,0,1-1.54-2.77,8.46,8.46,0,0,1-.05-4.11l4.73-22.25a12.48,12.48,0,0,1,1.75-4.06,11.15,11.15,0,0,1,2.78-2.83,8.29,8.29,0,0,1,4.57-1.28,5.83,5.83,0,0,1,4,1.28,5.09,5.09,0,0,1,1.59,2.83,8.82,8.82,0,0,1,.1,4.06Zm-0.82-22.25a3.15,3.15,0,0,0-.26-2.36,1.27,1.27,0,0,0-1-.41,2.29,2.29,0,0,0-2,1.39,5.52,5.52,0,0,0-.46,1.39l-4.73,22.25a2.77,2.77,0,0,0,.26,2.36,1.17,1.17,0,0,0,1,.41,2.12,2.12,0,0,0,2-1.39,6.71,6.71,0,0,0,.51-1.39Z" stroke="#000" stroke-miterlimit="10"/><path d="M1130.88,6391.32c0.36-1.59.05-2.78-1.13-2.78a2.74,2.74,0,0,0-1.75,1,5.41,5.41,0,0,0-1,1.75h-4.68l4.26-19.89H1140l-1.18,5.5h-8.63l-1.7,7.86a10.74,10.74,0,0,1,2.31-1.13,2.44,2.44,0,0,1,1.18-.15,4.23,4.23,0,0,1,4.52,3.44,10.66,10.66,0,0,1-.05,4.37l-1.75,8.43a17.84,17.84,0,0,1-2.42,6.22,8,8,0,0,1-6.94,3.65c-3.49,0-4.88-1.59-5.34-3.85s-0.05-5,.51-7.55h5.55l-0.31,1.49a12.83,12.83,0,0,0-.51,4,1.08,1.08,0,0,0,1.13,1.13c1.18,0,1.7-1.34,2.16-2.62,0.21-.67.41-1.44,0.62-2.42Z" stroke="#000" stroke-miterlimit="10"/><path d="M1154.21,6401.44a14.27,14.27,0,0,1-1.8,4.11,11.18,11.18,0,0,1-2.83,2.77,7.57,7.57,0,0,1-4.52,1.29,5.66,5.66,0,0,1-4.06-1.29,4.87,4.87,0,0,1-1.54-2.77,8.46,8.46,0,0,1-.05-4.11l4.73-22.25a12.48,12.48,0,0,1,1.75-4.06,11.15,11.15,0,0,1,2.78-2.83,8.29,8.29,0,0,1,4.57-1.28,5.83,5.83,0,0,1,4,1.28,5.09,5.09,0,0,1,1.59,2.83,8.82,8.82,0,0,1,.1,4.06Zm-0.82-22.25a3.15,3.15,0,0,0-.26-2.36,1.27,1.27,0,0,0-1-.41,2.29,2.29,0,0,0-2,1.39,5.52,5.52,0,0,0-.46,1.39l-4.73,22.25a2.77,2.77,0,0,0,.26,2.36,1.17,1.17,0,0,0,1,.41,2.12,2.12,0,0,0,2-1.39,6.71,6.71,0,0,0,.51-1.39Z" stroke="#000" stroke-miterlimit="10"/><path d="M1155.41,6309.67a12.38,12.38,0,0,1-2.11,4.73,8.23,8.23,0,0,1-6.89,3.44c-3.44,0-4.88-1.59-5.45-3.44a9.12,9.12,0,0,1-.05-4.73l4.52-21.48a16.07,16.07,0,0,1,2.21-5.5,8.12,8.12,0,0,1,6.94-3.44c3.5,0,4.93,1.59,5.5,3.44a10.81,10.81,0,0,1-.15,5.5l-0.46,2.36h-5.55a27.22,27.22,0,0,0,.82-5.14,1.13,1.13,0,0,0-1.18-1.34,1.66,1.66,0,0,0-1.54,1,10.12,10.12,0,0,0-1,3.13l-1.39,6.73a6.26,6.26,0,0,1,2.93-.92c2.88,0,4.11,1.49,4.57,3.19a10.41,10.41,0,0,1-.1,4.78Zm-9.3,1.64a1.58,1.58,0,0,0,.15,1,1.28,1.28,0,0,0,1.18.67,2.49,2.49,0,0,0,2.06-1.7l2.42-11.31a1.46,1.46,0,0,0-1.34-1.7,2.28,2.28,0,0,0-2.05,1.54Z" stroke="#000" stroke-miterlimit="10"/><path d="M1175.4,6309.67a14.27,14.27,0,0,1-1.8,4.11,11.18,11.18,0,0,1-2.83,2.77,7.57,7.57,0,0,1-4.52,1.29,5.66,5.66,0,0,1-4.06-1.29,4.87,4.87,0,0,1-1.54-2.77,8.46,8.46,0,0,1-.05-4.11l4.73-22.25a12.48,12.48,0,0,1,1.75-4.06,11.15,11.15,0,0,1,2.78-2.83,8.29,8.29,0,0,1,4.57-1.28,5.83,5.83,0,0,1,4,1.28,5.09,5.09,0,0,1,1.59,2.83,8.82,8.82,0,0,1,.1,4.06Zm-0.82-22.25a3.15,3.15,0,0,0-.26-2.36,1.27,1.27,0,0,0-1-.41,2.29,2.29,0,0,0-2,1.39,5.52,5.52,0,0,0-.46,1.39l-4.73,22.25a2.76,2.76,0,0,0,.26,2.36,1.16,1.16,0,0,0,1,.41,2.12,2.12,0,0,0,2-1.39,6.67,6.67,0,0,0,.51-1.39Z" stroke="#000" stroke-miterlimit="10"/><path d="M1208.06,6216.15h-8.33l1.18-5.5h14l-1.18,5.55-12.39,32.22h-5.76Z" stroke="#000" stroke-miterlimit="10"/><path d="M1227.69,6240.66a14.27,14.27,0,0,1-1.8,4.11,11.18,11.18,0,0,1-2.83,2.77,7.57,7.57,0,0,1-4.52,1.29,5.66,5.66,0,0,1-4.06-1.29,4.87,4.87,0,0,1-1.54-2.77,8.46,8.46,0,0,1-.05-4.11l4.73-22.25a12.48,12.48,0,0,1,1.75-4.06,11.15,11.15,0,0,1,2.78-2.83,8.29,8.29,0,0,1,4.57-1.28,5.83,5.83,0,0,1,4,1.28,5.09,5.09,0,0,1,1.59,2.83,8.82,8.82,0,0,1,.1,4.06Zm-0.82-22.25a3.15,3.15,0,0,0-.26-2.36,1.27,1.27,0,0,0-1-.41,2.29,2.29,0,0,0-2,1.39,5.52,5.52,0,0,0-.46,1.39l-4.73,22.25a2.77,2.77,0,0,0,.26,2.36,1.17,1.17,0,0,0,1,.41,2.12,2.12,0,0,0,2-1.39,6.71,6.71,0,0,0,.51-1.39Z" stroke="#000" stroke-miterlimit="10"/><path d="M1277.33,6175.75c-0.05.15-.15,0.51-0.26,1a12.94,12.94,0,0,1-1.7,3.6,9.15,9.15,0,0,1-4.06,3.34,8.79,8.79,0,0,1-3.19.57c-2.42,0-3.91-.82-4.73-2a6.73,6.73,0,0,1-1.13-3.85,9.16,9.16,0,0,1,.26-2.62l0.92-4.42a13.18,13.18,0,0,1,4.47-7.45c-1.39-1.7-1.64-4.32-1.08-6.94l0.67-3.19c0.05-.26.26-0.82,0.51-1.7a10.35,10.35,0,0,1,4.06-5.29,7.05,7.05,0,0,1,4.21-1.13c3.5,0,4.83,1.8,5.4,3.7a10.55,10.55,0,0,1,.26,2.72,9.76,9.76,0,0,1-.26,1.7l-0.67,3.19a12.61,12.61,0,0,1-4.06,6.94c1.59,1.8,1.9,4.57,1.28,7.45Zm-4.93-2.21c0.46-2.26.67-4,.82-5,0-1.08-.46-1.64-1.39-1.64-2,0-2.26,2-2.72,3.8A44.61,44.61,0,0,0,1268,6176c-0.21,1.64-.31,3.13,1.18,3.13,1.9,0,2.21-1.85,2.62-3.24A20,20,0,0,0,1272.4,6173.54Zm3.44-17.83a29.24,29.24,0,0,0,.57-3.91,1.06,1.06,0,0,0-1.13-1.29c-1.23,0-1.64,1.34-2.06,2.83a29.86,29.86,0,0,0-1.08,4.83c-0.26,1.59-.67,3.24.82,3.24s1.85-1.7,2.26-3.13C1275.38,6157.55,1275.58,6156.68,1275.84,6155.7Z" stroke="#000" stroke-miterlimit="10"/><path d="M1297.17,6176.05a14.27,14.27,0,0,1-1.8,4.11,11.18,11.18,0,0,1-2.83,2.77,7.57,7.57,0,0,1-4.52,1.29,5.67,5.67,0,0,1-4.06-1.29,4.87,4.87,0,0,1-1.54-2.77,8.46,8.46,0,0,1-.05-4.11l4.73-22.25a12.46,12.46,0,0,1,1.75-4.06,11.15,11.15,0,0,1,2.78-2.83,8.29,8.29,0,0,1,4.57-1.28,5.84,5.84,0,0,1,4,1.28,5.09,5.09,0,0,1,1.59,2.83,8.82,8.82,0,0,1,.1,4.06Zm-0.82-22.25a3.15,3.15,0,0,0-.26-2.36,1.28,1.28,0,0,0-1-.41,2.29,2.29,0,0,0-2,1.39,5.52,5.52,0,0,0-.46,1.39l-4.73,22.25a2.77,2.77,0,0,0,.26,2.36,1.17,1.17,0,0,0,1,.41,2.13,2.13,0,0,0,2-1.39,6.71,6.71,0,0,0,.51-1.39Z" stroke="#000" stroke-miterlimit="10"/><path d="M1353.27,6108.87l0.88-4.05a12.76,12.76,0,0,0,6-3.05,16.5,16.5,0,0,0,1.88-2.23h3.82l-9.16,43.17h-6.34l7.17-33.83h-4.23Z" stroke="#000" stroke-miterlimit="10"/><path d="M1382.1,6133.83a16.28,16.28,0,0,1-2.06,4.7,12.79,12.79,0,0,1-3.23,3.17,8.66,8.66,0,0,1-5.17,1.47,6.48,6.48,0,0,1-4.64-1.47,5.57,5.57,0,0,1-1.76-3.17,9.66,9.66,0,0,1-.06-4.7l5.4-25.43a14.25,14.25,0,0,1,2-4.64,12.72,12.72,0,0,1,3.17-3.23,9.48,9.48,0,0,1,5.23-1.47,6.67,6.67,0,0,1,4.58,1.47,5.81,5.81,0,0,1,1.82,3.23,10.08,10.08,0,0,1,.12,4.64Zm-0.94-25.43a3.6,3.6,0,0,0-.29-2.7,1.46,1.46,0,0,0-1.17-.47,2.61,2.61,0,0,0-2.23,1.59,6.29,6.29,0,0,0-.53,1.59l-5.4,25.43a3.16,3.16,0,0,0,.29,2.7,1.33,1.33,0,0,0,1.12.47,2.43,2.43,0,0,0,2.23-1.58,7.67,7.67,0,0,0,.59-1.59Z" stroke="#000" stroke-miterlimit="10"/><path d="M1405.24,6133.83a16.28,16.28,0,0,1-2.06,4.7,12.79,12.79,0,0,1-3.23,3.17,8.66,8.66,0,0,1-5.17,1.47,6.48,6.48,0,0,1-4.64-1.47,5.57,5.57,0,0,1-1.76-3.17,9.66,9.66,0,0,1-.06-4.7l5.4-25.43a14.25,14.25,0,0,1,2-4.64,12.72,12.72,0,0,1,3.17-3.23,9.48,9.48,0,0,1,5.23-1.47,6.67,6.67,0,0,1,4.58,1.47,5.81,5.81,0,0,1,1.82,3.23,10.08,10.08,0,0,1,.12,4.64Zm-0.94-25.43a3.6,3.6,0,0,0-.29-2.7,1.46,1.46,0,0,0-1.17-.47,2.61,2.61,0,0,0-2.23,1.59,6.29,6.29,0,0,0-.53,1.59l-5.4,25.43a3.16,3.16,0,0,0,.29,2.7,1.33,1.33,0,0,0,1.12.47,2.43,2.43,0,0,0,2.23-1.58,7.67,7.67,0,0,0,.59-1.59Z" stroke="#000" stroke-miterlimit="10"/><path d="M1476.6,6097.86l0.88-4.05a12.76,12.76,0,0,0,6-3.05,16.5,16.5,0,0,0,1.88-2.23h3.82l-9.16,43.17h-6.34l7.17-33.83h-4.23Z" stroke="#000" stroke-miterlimit="10"/><path d="M1492.7,6102.21l0.65-3a19.26,19.26,0,0,1,3.29-7.75,9.1,9.1,0,0,1,7.52-3.41c3.29,0,5.17,1.23,6,3.11a8.8,8.8,0,0,1,.65,3.41,21.65,21.65,0,0,1-.47,4.23c-0.94,4.46-3.7,9.57-6.81,14.51a141.88,141.88,0,0,1-8.81,12.1h10l-1.29,6.28h-17.21l1.29-6.28c2.58-3,4.93-6,7.22-9.1a81.27,81.27,0,0,0,5.46-8.52,37.06,37.06,0,0,0,3.64-8.58,15.47,15.47,0,0,0,.41-3.52c-0.18-1-.47-1.76-1.41-1.76a2.51,2.51,0,0,0-2.06,1.58,16.2,16.2,0,0,0-1.17,3.7l-0.65,3h-6.34Z" stroke="#000" stroke-miterlimit="10"/><path d="M1528.76,6122.82a16.28,16.28,0,0,1-2.06,4.7,12.77,12.77,0,0,1-3.23,3.17,8.66,8.66,0,0,1-5.17,1.47,6.48,6.48,0,0,1-4.64-1.47,5.57,5.57,0,0,1-1.76-3.17,9.66,9.66,0,0,1-.06-4.7l5.4-25.43a14.25,14.25,0,0,1,2-4.64,12.72,12.72,0,0,1,3.17-3.23,9.48,9.48,0,0,1,5.23-1.47,6.67,6.67,0,0,1,4.58,1.47,5.81,5.81,0,0,1,1.82,3.23,10.08,10.08,0,0,1,.12,4.64Zm-0.94-25.43a3.6,3.6,0,0,0-.29-2.7,1.46,1.46,0,0,0-1.17-.47,2.61,2.61,0,0,0-2.23,1.59,6.29,6.29,0,0,0-.53,1.59l-5.4,25.43a3.16,3.16,0,0,0,.29,2.7,1.33,1.33,0,0,0,1.12.47,2.43,2.43,0,0,0,2.23-1.58,7.67,7.67,0,0,0,.59-1.59Z" stroke="#000" stroke-miterlimit="10"/><path d="M1613.16,6125L1614,6121a12.76,12.76,0,0,0,6-3.05,16.5,16.5,0,0,0,1.88-2.23h3.82l-9.16,43.17h-6.34l7.17-33.83h-4.23Z" stroke="#000" stroke-miterlimit="10"/><path d="M1633.77,6149.46H1624l1.17-5.58,15.27-28.19h6.34l-6,28.19h2.94l-1.17,5.58h-2.94l-2,9.4h-5.81Zm-3.23-5.58h4.41l3.11-14.8h-0.35l-0.59,1.29Z" stroke="#000" stroke-miterlimit="10"/><path d="M1664,6150a16.28,16.28,0,0,1-2.06,4.7,12.77,12.77,0,0,1-3.23,3.17,8.66,8.66,0,0,1-5.17,1.47,6.48,6.48,0,0,1-4.64-1.47,5.57,5.57,0,0,1-1.76-3.17,9.66,9.66,0,0,1-.06-4.7l5.4-25.43a14.25,14.25,0,0,1,2-4.64,12.72,12.72,0,0,1,3.17-3.23,9.48,9.48,0,0,1,5.23-1.47,6.67,6.67,0,0,1,4.58,1.47,5.81,5.81,0,0,1,1.82,3.23,10.08,10.08,0,0,1,.12,4.64Zm-0.94-25.43a3.6,3.6,0,0,0-.29-2.7,1.46,1.46,0,0,0-1.17-.47,2.61,2.61,0,0,0-2.23,1.59,6.29,6.29,0,0,0-.53,1.59l-5.4,25.43a3.16,3.16,0,0,0,.29,2.7,1.33,1.33,0,0,0,1.12.47,2.43,2.43,0,0,0,2.23-1.58,7.67,7.67,0,0,0,.59-1.59Z" stroke="#000" stroke-miterlimit="10"/><path d="M1729.16,6230.27l1-4.81a15.17,15.17,0,0,0,7.11-3.63,19.53,19.53,0,0,0,2.23-2.65h4.53l-10.88,51.26h-7.53l8.51-40.17h-5Z" stroke="#000" stroke-miterlimit="10"/><path d="M1762.92,6259.91a16.81,16.81,0,0,1-2.86,6.42,11.18,11.18,0,0,1-9.35,4.67c-4.67,0-6.63-2.16-7.39-4.67a12.39,12.39,0,0,1-.07-6.42l6.14-29.15c0.49-1.74,1.12-4.88,3-7.46a11,11,0,0,1,9.42-4.67c4.74,0,6.7,2.16,7.46,4.67a14.68,14.68,0,0,1-.21,7.46l-0.63,3.21h-7.53a37,37,0,0,0,1.12-7,1.54,1.54,0,0,0-1.6-1.81,2.25,2.25,0,0,0-2.09,1.33,13.74,13.74,0,0,0-1.39,4.25l-1.88,9.14a8.5,8.5,0,0,1,4-1.25c3.91,0,5.58,2,6.21,4.32a14.13,14.13,0,0,1-.14,6.49Zm-12.62,2.23a2.13,2.13,0,0,0,.21,1.39,1.74,1.74,0,0,0,1.6.91c1.6,0,2.58-1.67,2.79-2.3l3.28-15.34c0.07-.63-0.21-2.3-1.81-2.3a3.1,3.1,0,0,0-2.79,2.09Z" stroke="#000" stroke-miterlimit="10"/><path d="M1790,6259.91a19.33,19.33,0,0,1-2.44,5.58,15.18,15.18,0,0,1-3.84,3.77,10.28,10.28,0,0,1-6.14,1.74c-2.44,0-4.25-.56-5.51-1.74a6.62,6.62,0,0,1-2.09-3.77,11.48,11.48,0,0,1-.07-5.58l6.42-30.2a16.91,16.91,0,0,1,2.37-5.51,15.11,15.11,0,0,1,3.77-3.84,11.26,11.26,0,0,1,6.21-1.74,7.92,7.92,0,0,1,5.44,1.74,6.9,6.9,0,0,1,2.16,3.84,12,12,0,0,1,.14,5.51Zm-1.12-30.2a4.27,4.27,0,0,0-.35-3.21,1.73,1.73,0,0,0-1.39-.56,3.11,3.11,0,0,0-2.65,1.88,7.47,7.47,0,0,0-.63,1.88l-6.42,30.2a3.76,3.76,0,0,0,.35,3.21,1.58,1.58,0,0,0,1.33.56,2.88,2.88,0,0,0,2.65-1.88,9.1,9.1,0,0,0,.7-1.88Z" stroke="#000" stroke-miterlimit="10"/><path d="M1793,6369.76l1-4.81a15.17,15.17,0,0,0,7.11-3.63,19.53,19.53,0,0,0,2.23-2.65H1808l-10.88,51.26h-7.53l8.51-40.17h-5Z" stroke="#000" stroke-miterlimit="10"/><path d="M1826.86,6399c-0.07.21-.21,0.7-0.35,1.33a17.55,17.55,0,0,1-2.3,4.88,12.44,12.44,0,0,1-5.51,4.53,12,12,0,0,1-4.32.77c-3.28,0-5.3-1.12-6.42-2.72a9.13,9.13,0,0,1-1.53-5.23,12.44,12.44,0,0,1,.35-3.56l1.25-6a17.89,17.89,0,0,1,6.07-10.11c-1.88-2.3-2.23-5.86-1.46-9.42l0.91-4.32c0.07-.35.35-1.12,0.7-2.3a14,14,0,0,1,5.51-7.18,9.57,9.57,0,0,1,5.72-1.53c4.74,0,6.56,2.44,7.32,5a14.32,14.32,0,0,1,.35,3.7,13.3,13.3,0,0,1-.35,2.3l-0.91,4.32a17.12,17.12,0,0,1-5.51,9.42c2.16,2.44,2.58,6.21,1.74,10.11Zm-6.7-3c0.63-3.07.91-5.37,1.12-6.84,0-1.46-.63-2.23-1.88-2.23-2.72,0-3.07,2.72-3.7,5.16a60.78,60.78,0,0,0-1.46,7.25c-0.28,2.23-.42,4.25,1.6,4.25,2.58,0,3-2.51,3.56-4.39A27.13,27.13,0,0,0,1820.17,6396Zm4.67-24.2a39.61,39.61,0,0,0,.77-5.3c0-1.19-.49-1.74-1.53-1.74-1.67,0-2.23,1.81-2.79,3.84a40.54,40.54,0,0,0-1.46,6.56c-0.35,2.16-.91,4.39,1.12,4.39s2.51-2.3,3.07-4.25C1824.21,6374.29,1824.49,6373.11,1824.84,6371.78Z" stroke="#000" stroke-miterlimit="10"/><path d="M1853.78,6399.4a19.33,19.33,0,0,1-2.44,5.58,15.18,15.18,0,0,1-3.84,3.77,10.28,10.28,0,0,1-6.14,1.74c-2.44,0-4.25-.56-5.51-1.74a6.62,6.62,0,0,1-2.09-3.77,11.48,11.48,0,0,1-.07-5.58l6.42-30.2a16.91,16.91,0,0,1,2.37-5.51,15.11,15.11,0,0,1,3.77-3.84,11.26,11.26,0,0,1,6.21-1.74,7.92,7.92,0,0,1,5.44,1.74,6.9,6.9,0,0,1,2.16,3.84,12,12,0,0,1,.14,5.51Zm-1.12-30.2a4.27,4.27,0,0,0-.35-3.21,1.73,1.73,0,0,0-1.39-.56,3.11,3.11,0,0,0-2.65,1.88,7.47,7.47,0,0,0-.63,1.88l-6.42,30.2a3.76,3.76,0,0,0,.35,3.21,1.58,1.58,0,0,0,1.33.56,2.88,2.88,0,0,0,2.65-1.88,9.1,9.1,0,0,0,.7-1.88Z" stroke="#000" stroke-miterlimit="10"/><path d="M1802,6532l0.77-3.56a22.89,22.89,0,0,1,3.91-9.21,10.81,10.81,0,0,1,8.93-4c3.91,0,6.14,1.46,7.18,3.7a10.45,10.45,0,0,1,.77,4,25.76,25.76,0,0,1-.56,5c-1.12,5.3-4.39,11.37-8.09,17.23a168.46,168.46,0,0,1-10.46,14.37h11.93l-1.53,7.46h-20.44l1.54-7.46c3.07-3.56,5.86-7.18,8.58-10.81a96.71,96.71,0,0,0,6.49-10.11,44,44,0,0,0,4.32-10.18,18.4,18.4,0,0,0,.49-4.19c-0.21-1.19-.56-2.09-1.67-2.09s-1.81.77-2.44,1.88a19.2,19.2,0,0,0-1.39,4.39l-0.77,3.56H1802Z" stroke="#000" stroke-miterlimit="10"/><path d="M1844.81,6556.51a19.33,19.33,0,0,1-2.44,5.58,15.18,15.18,0,0,1-3.84,3.77,10.28,10.28,0,0,1-6.14,1.74c-2.44,0-4.25-.56-5.51-1.74a6.62,6.62,0,0,1-2.09-3.77,11.48,11.48,0,0,1-.07-5.58l6.42-30.2a16.91,16.91,0,0,1,2.37-5.51,15.11,15.11,0,0,1,3.77-3.84,11.26,11.26,0,0,1,6.21-1.74,7.92,7.92,0,0,1,5.44,1.74,6.9,6.9,0,0,1,2.16,3.84,12,12,0,0,1,.14,5.51Zm-1.12-30.2a4.27,4.27,0,0,0-.35-3.21,1.73,1.73,0,0,0-1.39-.56,3.11,3.11,0,0,0-2.65,1.88,7.47,7.47,0,0,0-.63,1.88l-6.42,30.2a3.76,3.76,0,0,0,.35,3.21,1.58,1.58,0,0,0,1.33.56,2.88,2.88,0,0,0,2.65-1.88,9.1,9.1,0,0,0,.7-1.88Z" stroke="#000" stroke-miterlimit="10"/><path d="M1872.28,6556.51a19.33,19.33,0,0,1-2.44,5.58,15.18,15.18,0,0,1-3.84,3.77,10.28,10.28,0,0,1-6.14,1.74c-2.44,0-4.25-.56-5.51-1.74a6.62,6.62,0,0,1-2.09-3.77,11.48,11.48,0,0,1-.07-5.58l6.42-30.2a16.91,16.91,0,0,1,2.37-5.51,15.11,15.11,0,0,1,3.77-3.84,11.26,11.26,0,0,1,6.21-1.74,7.92,7.92,0,0,1,5.44,1.74,6.9,6.9,0,0,1,2.16,3.84,12,12,0,0,1,.14,5.51Zm-1.12-30.2a4.27,4.27,0,0,0-.35-3.21,1.73,1.73,0,0,0-1.39-.56,3.11,3.11,0,0,0-2.65,1.88,7.47,7.47,0,0,0-.63,1.88l-6.42,30.2a3.76,3.76,0,0,0,.35,3.21,1.58,1.58,0,0,0,1.33.56,2.88,2.88,0,0,0,2.65-1.88,9.1,9.1,0,0,0,.7-1.88Z" stroke="#000" stroke-miterlimit="10"/><path d="M1744.72,6681.07l0.77-3.56a22.89,22.89,0,0,1,3.91-9.21,10.81,10.81,0,0,1,8.93-4c3.91,0,6.14,1.46,7.18,3.7a10.45,10.45,0,0,1,.77,4,25.76,25.76,0,0,1-.56,5c-1.12,5.3-4.39,11.37-8.09,17.23a168.46,168.46,0,0,1-10.46,14.37h11.93l-1.53,7.46h-20.44l1.54-7.46c3.07-3.56,5.86-7.18,8.58-10.81a96.71,96.71,0,0,0,6.49-10.11,44,44,0,0,0,4.32-10.18,18.4,18.4,0,0,0,.49-4.19c-0.21-1.19-.56-2.09-1.67-2.09s-1.81.77-2.44,1.88a19.2,19.2,0,0,0-1.39,4.39l-0.77,3.56h-7.53Z" stroke="#000" stroke-miterlimit="10"/><path d="M1772.41,6681.07l0.77-3.56a22.89,22.89,0,0,1,3.91-9.21,10.81,10.81,0,0,1,8.93-4c3.91,0,6.14,1.46,7.18,3.7a10.45,10.45,0,0,1,.77,4,25.76,25.76,0,0,1-.56,5c-1.12,5.3-4.39,11.37-8.09,17.23a168.46,168.46,0,0,1-10.46,14.37h11.93l-1.53,7.46H1764.8l1.54-7.46c3.07-3.56,5.86-7.18,8.58-10.81a96.71,96.71,0,0,0,6.49-10.11,44,44,0,0,0,4.32-10.18,18.4,18.4,0,0,0,.49-4.19c-0.21-1.19-.56-2.09-1.67-2.09s-1.81.77-2.44,1.88a19.2,19.2,0,0,0-1.39,4.39l-0.77,3.56h-7.53Z" stroke="#000" stroke-miterlimit="10"/><path d="M1815.23,6705.55a19.33,19.33,0,0,1-2.44,5.58,15.16,15.16,0,0,1-3.84,3.77,10.28,10.28,0,0,1-6.14,1.74c-2.44,0-4.25-.56-5.51-1.74a6.61,6.61,0,0,1-2.09-3.77,11.48,11.48,0,0,1-.07-5.58l6.42-30.2a16.91,16.91,0,0,1,2.37-5.51,15.11,15.11,0,0,1,3.77-3.84,11.26,11.26,0,0,1,6.21-1.74,7.92,7.92,0,0,1,5.44,1.74,6.9,6.9,0,0,1,2.16,3.84,12,12,0,0,1,.14,5.51Zm-1.12-30.2a4.27,4.27,0,0,0-.35-3.21,1.73,1.73,0,0,0-1.39-.56,3.11,3.11,0,0,0-2.65,1.88,7.47,7.47,0,0,0-.63,1.88l-6.42,30.2a3.76,3.76,0,0,0,.35,3.21,1.58,1.58,0,0,0,1.33.56,2.88,2.88,0,0,0,2.65-1.88,9.1,9.1,0,0,0,.7-1.88Z" stroke="#000" stroke-miterlimit="10"/><path d="M1609.67,6763.63l0.89-4.12c0.89-4,2.26-7.83,4.52-10.66a12.52,12.52,0,0,1,10.34-4.68c4.52,0,7.11,1.7,8.32,4.28a12.11,12.11,0,0,1,.89,4.68,29.76,29.76,0,0,1-.65,5.81c-1.29,6.14-5.09,13.17-9.37,19.95a195.07,195.07,0,0,1-12.12,16.64h13.81l-1.78,8.64h-23.66l1.78-8.64c3.55-4.12,6.79-8.32,9.93-12.52a111.93,111.93,0,0,0,7.51-11.71,51,51,0,0,0,5-11.79,21.27,21.27,0,0,0,.57-4.85c-0.24-1.37-.65-2.42-1.94-2.42s-2.1.89-2.83,2.18a22.29,22.29,0,0,0-1.62,5.09l-0.89,4.12h-8.72Z" stroke="#000" stroke-miterlimit="10"/><path d="M1647.95,6791.26h-13.49l1.62-7.67,21-38.77h8.72l-8.24,38.77h4l-1.62,7.67h-4l-2.75,12.92h-8Zm-4.44-7.67h6.06l4.28-20.35h-0.48l-0.81,1.78Z" stroke="#000" stroke-miterlimit="10"/><path d="M1689.46,6792a22.38,22.38,0,0,1-2.83,6.46,17.57,17.57,0,0,1-4.44,4.36,11.91,11.91,0,0,1-7.11,2c-2.83,0-4.93-.65-6.38-2a7.66,7.66,0,0,1-2.42-4.36,13.27,13.27,0,0,1-.08-6.46l7.43-35a19.6,19.6,0,0,1,2.75-6.38,17.52,17.52,0,0,1,4.36-4.44,13,13,0,0,1,7.19-2,9.17,9.17,0,0,1,6.3,2,8,8,0,0,1,2.5,4.44,13.85,13.85,0,0,1,.16,6.38Zm-1.29-35a5,5,0,0,0-.4-3.71,2,2,0,0,0-1.62-.65,3.6,3.6,0,0,0-3.07,2.18,8.67,8.67,0,0,0-.73,2.18l-7.43,35a4.35,4.35,0,0,0,.4,3.71,1.83,1.83,0,0,0,1.54.65,3.34,3.34,0,0,0,3.07-2.18,10.52,10.52,0,0,0,.81-2.18Z" stroke="#000" stroke-miterlimit="10"/><path d="M1676.8,6279.63h0c2.63,1.93,1.08,6.36-3,10.84l-166.47,199.75c-4.13,4.48-12.83,3.19-19.44-2.89h0c-6.61-6.08-8.62-14.65-4.49-19.13l181.7-184.65C1669.19,6279.07,1672.9,6276.78,1676.8,6279.63Z" fill="#020202" stroke="#000" stroke-miterlimit="10"/><path d="M1605.31,3931.87c0.93-4,1.86-9,1.55-13-0.93-3.72-2.48-6.82-7.44-6.82-4,0-7.13,3.1-9.3,6.82-2.48,3.72-3.72,9-4.65,13-1.24,5.27.62,10.85,3.41,15.81a91.05,91.05,0,0,0,10.54,14.57c5.27,6.51,11.47,13.95,14.88,22.32,3.41,8.68,5.27,18.29,3.1,29.45-2.48,10.85-7.13,22.32-15.5,31-8.37,9-19.53,15.5-34.41,15.5-18.91,0-28.21-8.37-32.24-19.22s-2.79-23.56-.62-32.55h29.14c-0.93,4.65-1.86,11.16-.93,16.12,1.24,5.27,3.72,9.61,10.23,9.61,9,0,13-10.54,15.19-20.46,2.17-10.23-5.58-20.46-13.33-30.07-5.89-7.13-11.47-13.64-15.5-22-3.72-8.37-5.58-17.67-3.1-30.07,2.17-9.92,6.51-21.39,14.26-30.38a44.69,44.69,0,0,1,33.48-15.5c18.6-.31,27.28,6.51,30.69,15.5s1.86,20.77-.31,30.38h-29.14Z" fill="#ff0"/><path d="M1749.46,3846.62l-8.68,41.85h21.39l-6.2,28.21h-21.39L1716.91,4001c-1.24,5.27-2.79,11.78-2.79,17.67,0.31,5.89,1.55,10.23,6.51,10.23a65.54,65.54,0,0,0,8.06-.62,3.93,3.93,0,0,1,1.86-.31,3.93,3.93,0,0,0,1.86-.31l-6.51,30.69a19.87,19.87,0,0,0-2.17.62c-0.93.31-1.86,0.31-2.79,0.62a63.74,63.74,0,0,1-12.09.93c-18.6,0-24.8-9-27-21.08s0.93-26,3.1-36l18.29-86.8h-15.81l6.2-28.21h15.81l8.68-41.85h31.31Z" fill="#ff0"/><rect x="322.81" y="2695.88" width="1858.67" height="1158.97" transform="translate(4216.04 1401.53) rotate(78.62)" stroke="#000" stroke-miterlimit="10" fill="url(#b)"/><rect x="500.68" y="5942.33" width="893.64" height="1101.14" transform="translate(4908.73 11723.97) rotate(151.17)" fill="url(#c)"/><rect x="728.11" y="6808.97" width="1506.21" height="2426.58" transform="translate(9495.33 6497.58) rotate(89.69)" fill="url(#d)"/><path d="M1199.58,6833.84l-1.76-1.77" fill="none" stroke="#000" stroke-miterlimit="10" stroke-width="45"/><path d="M1181.4,6814.69c-172.29-191.34-169.58-484.38,8.12-672.53" fill="none" stroke="#000" stroke-miterlimit="10" stroke-width="45" stroke-dasharray="4.98 23.9"/><path d="M1197.82,6133.59l1.76-1.77" fill="none" stroke="#000" stroke-miterlimit="10" stroke-width="45"/></svg>