<svg xmlns="http://www.w3.org/2000/svg" viewBox="0 0 841.89 1190.55"><title>specimen-tex-gyre-heros-bold-italic</title><rect width="841.89" height="1190.55" fill="#ec1e29"/><polygon points="163.7 1154.55 394.81 1154.55 442.57 929.61 211.46 929.61 163.7 1154.55"/><polygon points="402.51 36 333.18 359.55 296.2 835.62 399.43 835.62 564.28 359.55 633.62 36 402.51 36"/><path d="M185.68,1136.39l-1.55,7.29h-1.48l-1.92-5.23-1.11,5.23H178.2l1.55-7.29h1.5l1.92,5.15,1.09-5.15h1.42Zm35,3.78a4.36,4.36,0,0,1-.17,1.18h-3.63a1.66,1.66,0,0,0,0,.38,0.89,0.89,0,0,0,1,.92,1.42,1.42,0,0,0,1.09-.49h1.38a3.06,3.06,0,0,1-2.74,1.61,2,2,0,0,1-2.13-2,3.28,3.28,0,0,1,3.14-3.57A2,2,0,0,1,220.66,1140.17Zm-1.42.1a0.8,0.8,0,0,0-.87-1,1.29,1.29,0,0,0-1.33,1.11h2.2v-0.15Zm-28.16-.08a3.29,3.29,0,0,1-3.32,3.58,1.92,1.92,0,0,1-2.19-1.93,3.37,3.37,0,0,1,3.3-3.65A2,2,0,0,1,191.08,1140.19Zm-1.43.29a1,1,0,0,0-1-1.17,2,2,0,0,0-1.65,2.25,1,1,0,0,0,1,1.09A1.94,1.94,0,0,0,189.65,1140.48Zm36.57-.31a4.36,4.36,0,0,1-.17,1.18h-3.63a1.66,1.66,0,0,0,0,.38,0.89,0.89,0,0,0,1,.92,1.42,1.42,0,0,0,1.09-.49h1.38a3.06,3.06,0,0,1-2.74,1.61,2,2,0,0,1-2.13-2,3.28,3.28,0,0,1,3.14-3.57A2,2,0,0,1,226.22,1140.17Zm-1.42.1a0.8,0.8,0,0,0-.87-1,1.29,1.29,0,0,0-1.33,1.11h2.2v-0.15Zm45.24-2.41-0.2.93h1.7l-1,4.89h1.4l1.51-7.09h-0.93A2.44,2.44,0,0,1,270,1137.86Zm-78.52,5.82h1.4l1.15-5.4h-1.4Zm13.58-3.51a4.36,4.36,0,0,1-.17,1.18H201.3a1.66,1.66,0,0,0,0,.38,0.89,0.89,0,0,0,1,.92,1.42,1.42,0,0,0,1.09-.49h1.38a3.06,3.06,0,0,1-2.74,1.61,2,2,0,0,1-2.13-2,3.28,3.28,0,0,1,3.14-3.57A2,2,0,0,1,205.1,1140.17Zm-1.42.1a0.8,0.8,0,0,0-.87-1,1.29,1.29,0,0,0-1.33,1.11h2.2v-0.15Zm-6.18-2.08c-1.65,0-2.6,1-2.6,2a1.44,1.44,0,0,0,1.29,1.24l0.79,0.25c0.63,0.2.76,0.29,0.77,0.45,0,0.32-.41.48-1,0.48s-1-.18-1.06-0.68H194.3a1.37,1.37,0,0,0,0,.3c0,0.91.89,1.5,2.21,1.5,1.7,0,2.76-.75,2.76-2h0c0-.59-0.4-0.93-1.23-1.17l-1-.28c-0.51-.15-0.65-0.25-0.65-0.45a0.73,0.73,0,0,1,.88-0.53c0.55,0,.88.2,0.88,0.52a0.81,0.81,0,0,1,0,.19h1.35a1.57,1.57,0,0,0,.05-0.38C199.52,1138.74,198.76,1138.19,197.5,1138.19Zm-4.41-1.92-0.27,1.31h1.4l0.27-1.31h-1.4Zm18.69,2.12H211l0.12-.53a0.44,0.44,0,0,1,.46-0.43l0.42,0,0.22-1-0.77,0a1.53,1.53,0,0,0-1.71,1.35l-0.14.65h-0.76l-0.2.93h0.77l-0.93,4.36h1.4l0.93-4.36h0.82Zm3.65,1.23,0.3-1.42h-0.17a2.19,2.19,0,0,0-1.75,1.15l0.23-1.06h-1.4l-1.15,5.4h1.4l0.61-2.87a1.4,1.4,0,0,1,1.5-1.23,2.29,2.29,0,0,1,.43,0h0Zm45.78-3.18a2.74,2.74,0,0,0-2.83,2.62h1.34c0.13-1,.58-1.5,1.27-1.5a0.76,0.76,0,0,1,.86.8,1.85,1.85,0,0,1-.54,1.28,7.79,7.79,0,0,1-1.78,1.27,4,4,0,0,0-2.23,2.77h4.82l0.26-1.25h-3a5.22,5.22,0,0,1,1.73-1.34,5.88,5.88,0,0,0,1.52-1.19,2.7,2.7,0,0,0,.65-1.74C263.28,1137.08,262.51,1136.44,261.21,1136.44Zm18.72,1.53a2.1,2.1,0,0,1,0,.23h-1.3a0.69,0.69,0,0,0-.8-0.64c-0.82,0-1.14.53-1.54,2a2.4,2.4,0,0,1,1.49-.56,1.54,1.54,0,0,1,1.68,1.67,3,3,0,0,1-2.9,3.09,1.8,1.8,0,0,1-2-1.87,8.93,8.93,0,0,1,1-3.86,2.94,2.94,0,0,1,2.58-1.6A1.56,1.56,0,0,1,279.93,1138Zm-4.09,3.76a0.8,0.8,0,0,0,.88.82A1.4,1.4,0,0,0,278,1141a0.8,0.8,0,0,0-.82-0.86A1.49,1.49,0,0,0,275.84,1141.73Zm-21.27-1.56a4.36,4.36,0,0,1-.17,1.18h-3.63a1.66,1.66,0,0,0,0,.38,0.89,0.89,0,0,0,1,.92,1.42,1.42,0,0,0,1.09-.49h1.38a3.06,3.06,0,0,1-2.74,1.61,2,2,0,0,1-2.13-2,3.28,3.28,0,0,1,3.14-3.57A2,2,0,0,1,254.57,1140.17Zm-1.42.1a0.8,0.8,0,0,0-.87-1,1.29,1.29,0,0,0-1.33,1.11h2.2v-0.15Zm-6.07-2.08a2.71,2.71,0,0,0-2.2.95,4.61,4.61,0,0,0-1,2.75,1.89,1.89,0,0,0,2.17,1.88,2.58,2.58,0,0,0,2.66-2h-1.34a1.08,1.08,0,0,1-1.15.84,0.81,0.81,0,0,1-.91-1c0-1.19.56-2.38,1.56-2.38,0.55,0,.8.19,0.82,1H249a3.46,3.46,0,0,0,0-.43A1.79,1.79,0,0,0,247.08,1138.19Zm21.62,0.23a10.13,10.13,0,0,1-.77,3.52,2.83,2.83,0,0,1-2.63,1.83,1.8,1.8,0,0,1-1.9-2,9.93,9.93,0,0,1,.77-3.51,2.82,2.82,0,0,1,2.6-1.83A1.8,1.8,0,0,1,268.7,1138.42Zm-1.43,0a0.76,0.76,0,0,0-.77-0.84,1,1,0,0,0-.88.57,10.77,10.77,0,0,0-.79,3.58,0.75,0.75,0,0,0,.76.84c0.59,0,.93-0.39,1.21-1.38A12.41,12.41,0,0,0,267.27,1138.4Zm-25.46-.21a2.21,2.21,0,0,0-1.82.91l0.18-.82h-1.4l-1.15,5.4H239l0.65-3a1.46,1.46,0,0,1,1.37-1.33,0.67,0.67,0,0,1,.74.75,2.77,2.77,0,0,1-.06.49l-0.67,3.13h1.4l0.77-3.62a2.65,2.65,0,0,0,.06-0.55A1.31,1.31,0,0,0,241.81,1138.19Zm-5.36-1.92-0.27,1.31h1.4l0.27-1.31h-1.4Zm-1.57,7.41h1.4l1.15-5.4H236Zm-2.36-5.49c-1.65,0-2.6,1-2.6,2a1.44,1.44,0,0,0,1.29,1.24l0.79,0.25c0.63,0.2.76,0.29,0.77,0.45,0,0.32-.41.48-1,0.48s-1-.18-1.06-0.68h-1.37a1.37,1.37,0,0,0,0,.3c0,0.91.89,1.5,2.21,1.5,1.7,0,2.76-.75,2.76-2h0c0-.59-0.4-0.93-1.23-1.17l-1-.28c-0.51-.15-0.65-0.25-0.65-0.45a0.73,0.73,0,0,1,.88-0.53c0.55,0,.88.2,0.88,0.52a0.81,0.81,0,0,1,0,.19h1.35a1.57,1.57,0,0,0,0-.38C234.54,1138.74,233.78,1138.19,232.52,1138.19Zm15.17-6.51,1.29-6h2.12l0.27-1.25h-5.84l-0.27,1.25h2.22l-1.29,6h1.5Zm-60.22-5.07a2.63,2.63,0,0,0,.08-0.62c0-1.08-.93-1.72-2.52-1.72-2,0-3.22,1.21-3.22,2.69,0,0.83.5,1.27,1.69,1.51l1,0.2c0.91,0.19,1.21.32,1.21,0.79,0,0.67-.66,1.06-1.7,1.06s-1.43-.33-1.43-0.9c0,0,0-.14,0-0.23h-1.46a2.63,2.63,0,0,0,0,.44c0,1.25,1,2,2.69,2,2.14,0,3.41-1.14,3.41-2.83h0c0-.77-0.56-1.22-1.58-1.43l-1.09-.22c-0.94-.19-1.21-0.35-1.21-0.73,0-.64.56-1,1.47-1s1.32,0.29,1.32.83c0,0,0,.14,0,0.23h1.4Zm12.94,5.07,0.13-.62a2.17,2.17,0,0,1-1.64.71,1.76,1.76,0,0,1-1.74-2c0-1.75,1.23-3.57,2.92-3.57a1.28,1.28,0,0,1,1.33.79l0.55-2.59h1.4l-1.55,7.29h-1.4Zm0.63-3.23a1,1,0,0,0-.88-1.14c-0.83,0-1.57,1-1.57,2.24a0.93,0.93,0,0,0,.89,1.1C200.33,1130.65,201,1129.71,201,1128.45Zm-11-1.13h0.78l0.2-.93h-0.78l0.31-1.45h-1.4l-0.31,1.45h-0.69l-0.2.93h0.69l-0.67,3.2a2,2,0,0,0,0,.41c0,0.55.41,0.79,1.14,0.79,0.33,0,.57,0,0.84,0l0.2-1a2.12,2.12,0,0,1-.33,0,0.31,0.31,0,0,1-.38-0.25,2,2,0,0,1,.06-0.34Zm2.54,4.45a2.27,2.27,0,0,0,1.8-.84l-0.16.75h1.4l1.15-5.4h-1.4l-0.65,3a1.46,1.46,0,0,1-1.34,1.33,0.67,0.67,0,0,1-.76-0.75,2.77,2.77,0,0,1,.06-0.49l0.67-3.13H192l-0.77,3.62a2.65,2.65,0,0,0-.06.55A1.31,1.31,0,0,0,192.62,1131.77Zm12.09-7.5-0.27,1.31h1.4l0.27-1.31h-1.4Zm16.26,7.14-0.06.27h-1.59a1.26,1.26,0,0,1-.08-0.41,5,5,0,0,1,.26-1.32,2.79,2.79,0,0,0,.12-0.61c0-.37-0.28-0.55-0.85-0.55h-1.72l-0.61,2.89h-1.5l1.55-7.29h3.77a1.55,1.55,0,0,1,1.73,1.5,2.41,2.41,0,0,1-1.67,2.27,0.9,0.9,0,0,1,.78.82,12.14,12.14,0,0,1-.28,1.83,1.48,1.48,0,0,0,0,.26A0.39,0.39,0,0,0,221,1131.41Zm-0.47-5.07h0c0-.42-0.29-0.7-1.1-0.7h-1.68l-0.4,1.9h1.81A1.22,1.22,0,0,0,220.5,1126.34Zm36.8-.7,0.27-1.25h-5.28l-1.55,7.29h5.45l0.27-1.25h-4l0.4-1.89h3.49l0.26-1.25h-3.49l0.35-1.65h3.78Zm-25.87-.15v6.19H233l2.69-6.19-1.32,6.19h1.42l1.55-7.29h-2.19l-2.54,5.6v-5.6h-2.37l-1.55,7.29h1.42Zm-3.62,3,0.26-1.25h-3.49l0.35-1.65h3.78l0.27-1.25H223.7l-1.55,7.29h5.45l0.27-1.25h-3.95l0.4-1.89h3.49Zm-24.67,3.14h1.4l1.15-5.4h-1.4Zm41.5-4.55a5.08,5.08,0,0,1-1.22,3.25,3.72,3.72,0,0,1-3.09,1.42,2.63,2.63,0,0,1-2.9-2.79,5.21,5.21,0,0,1,1.24-3.27,3.8,3.8,0,0,1,3.07-1.47A2.63,2.63,0,0,1,244.64,1127.13Zm-1.49.18a1.55,1.55,0,0,0-1.6-1.76c-1.49,0-2.63,1.52-2.63,3.25a1.55,1.55,0,0,0,1.65,1.72C242,1130.52,243.15,1129.1,243.15,1127.31Zm-34.88,4.46a1.92,1.92,0,0,1-2.19-1.93,3.37,3.37,0,0,1,3.3-3.65,2,2,0,0,1,2.21,2A3.29,3.29,0,0,1,208.27,1131.77Zm1.89-3.29a1,1,0,0,0-1-1.17,2,2,0,0,0-1.65,2.25,1,1,0,0,0,1,1.09A1.94,1.94,0,0,0,210.16,1128.48Zm18.69-8.8,1.15-5.4h-1.4l-0.65,3a1.46,1.46,0,0,1-1.34,1.33,0.67,0.67,0,0,1-.76-0.75,2.77,2.77,0,0,1,.06-0.49l0.67-3.13h-1.4l-0.77,3.62a2.65,2.65,0,0,0-.06.55,1.31,1.31,0,0,0,1.46,1.32,2.27,2.27,0,0,0,1.8-.84l-0.16.75h1.4Zm-29.77-2.33a1.66,1.66,0,0,0,0,.38,0.89,0.89,0,0,0,1,.92,1.42,1.42,0,0,0,1.09-.49h1.38a3.06,3.06,0,0,1-2.74,1.61,2,2,0,0,1-2.13-2,3.28,3.28,0,0,1,3.14-3.57,2,2,0,0,1,2.12,2,4.36,4.36,0,0,1-.17,1.18h-3.63Zm0.18-.93h2.2v-0.15a0.8,0.8,0,0,0-.87-1A1.29,1.29,0,0,0,199.26,1116.42Zm-6.89,5.44H191l1.61-7.58H194l-0.17.8a2.07,2.07,0,0,1,1.69-.89,1.79,1.79,0,0,1,1.73,2.07c0,2-1.29,3.51-2.9,3.51A1.29,1.29,0,0,1,193,1119Zm1-4.27a0.91,0.91,0,0,0,.89,1.06c0.86,0,1.57-.93,1.57-2.2a1,1,0,0,0-.88-1.14C194.06,1115.31,193.34,1116.33,193.34,1117.59Zm65.61-3.31-1.23,1.63-0.51-1.63h-1.68l1.11,2.66-2.33,2.74H256l1.23-1.68,0.59,1.68h1.68l-1.23-2.74,2.37-2.66H259Zm-71.9,5.52a2.63,2.63,0,0,1-2.9-2.79,5.2,5.2,0,0,1,1.24-3.27,3.8,3.8,0,0,1,3.07-1.47,2.63,2.63,0,0,1,2.9,2.86,5.08,5.08,0,0,1-1.22,3.25A3.72,3.72,0,0,1,187.05,1119.8Zm2.82-4.49a1.55,1.55,0,0,0-1.6-1.76c-1.49,0-2.63,1.52-2.63,3.25a1.55,1.55,0,0,0,1.65,1.72C188.74,1118.52,189.87,1117.1,189.87,1115.31Zm16.72,4.37H208l0.77-3.62a2.64,2.64,0,0,0,.06-0.55,1.31,1.31,0,0,0-1.47-1.32,2.21,2.21,0,0,0-1.82.91l0.18-.82h-1.4l-1.15,5.4h1.4l0.65-3a1.46,1.46,0,0,1,1.37-1.33,0.67,0.67,0,0,1,.74.75,2.77,2.77,0,0,1-.06.49Zm44.31-5.4-2,3.93-0.36-3.93h-1.54l0.77,5.55a1,1,0,0,1-1.13.93,1.27,1.27,0,0,1-.28,0l-0.23,1.09a1.73,1.73,0,0,0,.44,0,2,2,0,0,0,2.14-1.21l3.58-6.38H250.9Zm-32.34-.64,0.27-1.25h-5.12l-1.55,7.29h1.5l0.67-3.14h3.19l0.27-1.25h-3.2l0.35-1.65h3.62Zm15.05,6H235l0.77-3.62a2.65,2.65,0,0,0,.06-0.55,1.31,1.31,0,0,0-1.47-1.32,2.21,2.21,0,0,0-1.82.91l0.18-.82h-1.4l-1.15,5.4h1.4l0.65-3a1.46,1.46,0,0,1,1.37-1.33,0.67,0.67,0,0,1,.74.75,2.76,2.76,0,0,1-.06.49Zm-15.45-1.84a3.37,3.37,0,0,1,3.3-3.65,2,2,0,0,1,2.21,2,3.29,3.29,0,0,1-3.32,3.58A1.92,1.92,0,0,1,218.16,1117.84Zm1.43-.28a1,1,0,0,0,1,1.09,1.94,1.94,0,0,0,1.64-2.17,1,1,0,0,0-1-1.17A2,2,0,0,0,219.59,1117.56Zm20.12,2.12,0.13-.62a2.17,2.17,0,0,1-1.64.71,1.76,1.76,0,0,1-1.74-2c0-1.75,1.23-3.57,2.92-3.57a1.28,1.28,0,0,1,1.33.79l0.55-2.59h1.4l-1.55,7.29h-1.4Zm0.63-3.23a1,1,0,0,0-.88-1.14c-0.83,0-1.57,1-1.57,2.24a0.93,0.93,0,0,0,.89,1.1C239.63,1118.65,240.34,1117.71,240.34,1116.45Zm4.07,0.36a1.39,1.39,0,0,1,1.5-1.23,2.29,2.29,0,0,1,.43,0h0l0.3-1.42h-0.17a2.19,2.19,0,0,0-1.75,1.15l0.23-1.06h-1.4l-1.15,5.4h1.4Zm13.27-10.16c-0.6,0-1-.18-1.06-0.68h-1.37a1.37,1.37,0,0,0,0,.3c0,0.91.89,1.5,2.21,1.5,1.7,0,2.76-.75,2.76-2h0c0-.59-0.4-0.93-1.23-1.17l-1-.28c-0.51-.15-0.65-0.25-0.65-0.45a0.73,0.73,0,0,1,.88-0.53c0.55,0,.88.2,0.88,0.52a0.81,0.81,0,0,1,0,.19h1.35a1.57,1.57,0,0,0,0-.38c0-.9-0.76-1.45-2-1.45-1.65,0-2.6,1-2.6,2a1.44,1.44,0,0,0,1.29,1.24l0.79,0.25c0.63,0.2.76,0.29,0.77,0.45C258.7,1106.49,258.29,1106.65,257.68,1106.65Zm-6.19,1.12a1.92,1.92,0,0,1-2.19-1.93,3.37,3.37,0,0,1,3.3-3.65,2,2,0,0,1,2.21,2A3.29,3.29,0,0,1,251.49,1107.77Zm1.89-3.29a1,1,0,0,0-1-1.17,2,2,0,0,0-1.65,2.25,1,1,0,0,0,1,1.09A1.94,1.94,0,0,0,253.38,1104.48Zm16.7,0.65a2.67,2.67,0,0,1-.81,1.77,3,3,0,0,1-2.25.78h-3.28l1.55-7.29h3.25c1.29,0,2,.63,2,1.58a2.24,2.24,0,0,1-1.17,1.83A1.55,1.55,0,0,1,270.08,1105.13Zm-1.48.1c0-.47-0.29-0.69-0.91-0.69h-1.78l-0.4,1.89h1.78A1.15,1.15,0,0,0,268.6,1105.23Zm0.45-3c0-.43-0.27-0.62-0.89-0.62h-1.64l-0.35,1.65h1.64A1,1,0,0,0,269.05,1102.26Zm1,2.87h0Zm-23.67-2.85-1.15,5.4h1.4l0.61-2.87a1.4,1.4,0,0,1,1.5-1.23,2.29,2.29,0,0,1,.43,0h0l0.3-1.42h-0.17a2.19,2.19,0,0,0-1.75,1.15l0.23-1.06h-1.4Zm-9.49,5.4h1.5l1.55-7.29h-1.51l-0.58,2.73H235l0.58-2.73h-1.5l-1.55,7.29H234l0.7-3.31h2.89Zm36.24,0.09a1.92,1.92,0,0,1-2.19-1.93,3.37,3.37,0,0,1,3.3-3.65,2,2,0,0,1,2.21,2A3.29,3.29,0,0,1,273.16,1107.77Zm0.25-1.12a1.94,1.94,0,0,0,1.64-2.17,1,1,0,0,0-1-1.17,2,2,0,0,0-1.65,2.25A1,1,0,0,0,273.41,1106.65Zm-32.23-1.3a1.66,1.66,0,0,0,0,.38,0.88,0.88,0,0,0,.95.92,1.42,1.42,0,0,0,1.09-.49h1.38a3.06,3.06,0,0,1-2.74,1.61,2,2,0,0,1-2.13-2,3.28,3.28,0,0,1,3.14-3.57,2,2,0,0,1,2.12,2,4.36,4.36,0,0,1-.17,1.18h-3.63Zm0.18-.93h2.2v-0.15a0.8,0.8,0,0,0-.87-1A1.29,1.29,0,0,0,241.36,1104.42Zm60.4-4-1.55,7.29h1.4l1.55-7.29h-1.4Zm-77.57,3.23h0l0.3-1.42h-0.17a2.19,2.19,0,0,0-1.75,1.15l0.23-1.06h-1.4l-1.15,5.4h1.4l0.61-2.87a1.4,1.4,0,0,1,1.5-1.23A2.29,2.29,0,0,1,224.19,1103.62Zm60.44-3.23H286l-1.55,7.29h-1.4l0.13-.62a2.17,2.17,0,0,1-1.64.71,1.76,1.76,0,0,1-1.74-2c0-1.75,1.23-3.57,2.92-3.57a1.28,1.28,0,0,1,1.33.79Zm-0.92,4.06a1,1,0,0,0-.88-1.14c-0.83,0-1.57,1-1.57,2.24a0.93,0.93,0,0,0,.89,1.1C283,1106.65,283.71,1105.71,283.71,1104.45Zm-59.55,1.31a3.28,3.28,0,0,1,3.14-3.57,2,2,0,0,1,2.12,2,4.36,4.36,0,0,1-.17,1.18h-3.63a1.66,1.66,0,0,0,0,.38,0.88,0.88,0,0,0,.95.92,1.42,1.42,0,0,0,1.09-.49H229a3.06,3.06,0,0,1-2.74,1.61A2,2,0,0,1,224.16,1105.76Zm1.64-1.34H228v-0.15a0.8,0.8,0,0,0-.87-1A1.29,1.29,0,0,0,225.8,1104.42Zm77.19,3.26h1.4l1.15-5.4h-1.4Zm-9.78-1.2a2,2,0,0,1,.06-0.34l0.59-2.82h0.78l0.2-.93h-0.78l0.31-1.45H293l-0.31,1.45H292l-0.2.93h0.69l-0.67,3.2a2,2,0,0,0,0,.41c0,0.55.41,0.79,1.14,0.79,0.33,0,.57,0,0.84,0l0.2-1-0.33,0A0.31,0.31,0,0,1,293.21,1106.48Zm-78.27,2.28a1.27,1.27,0,0,1-.28,0l-0.23,1.09a1.73,1.73,0,0,0,.44,0,2,2,0,0,0,2.14-1.21l3.58-6.38h-1.44l-2,3.93-0.36-3.93H215.3l0.77,5.55A1,1,0,0,1,214.94,1108.76Zm73.61-1.08h1.5l1.55-7.29h-1.5Zm11.21-4.28a2.15,2.15,0,0,1-.06.45l-0.63,3a0.88,0.88,0,0,0,0,.21,0.66,0.66,0,0,0,.21.45l0,0.17h-1.53a0.57,0.57,0,0,1-.07-0.27,1.83,1.83,0,0,1,0-.34,2.27,2.27,0,0,1-1.65.7,1.31,1.31,0,0,1-1.51-1.24,2.08,2.08,0,0,1,2-2l0.58-.09a2,2,0,0,0,.92-0.21,0.62,0.62,0,0,0,.34-0.53c0-.3-0.22-0.43-0.73-0.43a1,1,0,0,0-1.12.75h-1.31c0.28-1.3,1.09-1.87,2.66-1.87C299.1,1102.19,299.76,1102.66,299.76,1103.4Zm-1.7,1.73a0.87,0.87,0,0,1-.47.14l-0.66.11a1,1,0,0,0-1,.84c0,0.33.27,0.43,0.75,0.43a1.39,1.39,0,0,0,1.34-1.28Zm-99.26,2.55,1.89-2.49,0.9,2.49h1.79l-1.56-3.72,3-3.57H203.1l-1.83,2.36-0.79-2.36H198.7l1.45,3.62-3.1,3.67h1.75Zm-1.62-3.51a4.36,4.36,0,0,1-.17,1.18h-3.63a1.66,1.66,0,0,0,0,.38,0.88,0.88,0,0,0,1,.92,1.42,1.42,0,0,0,1.09-.49h1.38a3.06,3.06,0,0,1-2.74,1.61,2,2,0,0,1-2.13-2,3.28,3.28,0,0,1,3.14-3.57A2,2,0,0,1,197.18,1104.17Zm-1.42.1a0.8,0.8,0,0,0-.87-1,1.29,1.29,0,0,0-1.33,1.11h2.2v-0.15Zm113.32-2.08a2.71,2.71,0,0,0-2.2.95,4.61,4.61,0,0,0-1,2.75,1.89,1.89,0,0,0,2.17,1.88,2.58,2.58,0,0,0,2.66-2h-1.34a1.08,1.08,0,0,1-1.15.84,0.81,0.81,0,0,1-.91-1c0-1.19.56-2.38,1.56-2.38,0.55,0,.8.19,0.82,1H311a3.45,3.45,0,0,0,0-.43A1.79,1.79,0,0,0,309.08,1102.19Zm-29.21-1.8h-1.4l-1.55,7.29h1.4Zm-92.59,1.25h2.22l-1.29,6h1.5l1.29-6h2.12l0.27-1.25h-5.84Zm25.29,5.1-0.08.94h0.9l0.84-3.92h-2.92L211,1105h1.66a2.17,2.17,0,0,1-2.14,1.51,1.66,1.66,0,0,1-1.71-1.74c0-1.81,1.08-3.23,2.62-3.23a1.37,1.37,0,0,1,1.6,1.17h1.38c0-.14,0-0.25,0-0.33,0-1.26-1.09-2.12-2.72-2.12a4.62,4.62,0,0,0-4.39,4.73,2.64,2.64,0,0,0,2.89,2.8A2.87,2.87,0,0,0,212.57,1106.74Zm92-6.47-0.27,1.31h1.4l0.27-1.31h-1.4ZM577,841.42A78.53,78.53,0,0,1,574,862.66H508.64a29.89,29.89,0,0,0-.18,6.84c0,9.9,6.84,16.56,17.1,16.56,8.64,0,16.56-4.5,19.62-8.82H570c-9.36,17.46-27.54,29-49.32,29-22.5,0-38.34-13.86-38.34-36.18,0-33.48,20.88-64.26,56.52-64.26C563,805.78,577,821.8,577,841.42Zm-25.56,1.8c0-12.78-5.76-17.28-15.66-17.28-11.7,0-20,5.58-23.94,20h39.6v-2.7Zm178.92-17.1h14l3.6-16.74H734l5.58-26.1h-25.2l-5.58,26.1H696.38l-3.6,16.74H705.2l-12.06,57.6a35.9,35.9,0,0,0-.9,7.38c0,9.9,7.38,14.22,20.52,14.22,5.94,0,10.26-.36,15.12-0.72l3.6-17.64a38.16,38.16,0,0,1-5.94.54c-4.14,0-6.84-1.8-6.84-4.5a35.8,35.8,0,0,1,1.08-6.12Zm-87.3-20.34c-29.7,0-46.8,17.64-46.8,36.72,0,9.9,7.38,17.28,23.22,22.32l14.22,4.5c11.34,3.6,13.68,5.22,13.86,8.1,0,5.76-7.38,8.64-18.36,8.64-10.8,0-18.72-3.24-19.08-12.24H585.5a24.71,24.71,0,0,0-.72,5.4c0,16.38,16,27,39.78,27,30.6,0,49.68-13.5,49.68-36.54,0-10.62-7.2-16.74-22.14-21.06l-17.28-5c-9.18-2.7-11.7-4.5-11.7-8.1,0-5.76,6.3-9.54,15.84-9.54,9.9,0,15.84,3.6,15.84,9.36a14.55,14.55,0,0,1-.54,3.42h24.3a28.32,28.32,0,0,0,.9-6.84C679.46,815.68,665.78,805.78,643.1,805.78ZM193.28,906.22c-23.76,0-39.42-12.78-39.42-34.74,0-37.44,24.3-65.7,59.4-65.7,24.66,0,39.78,13.68,39.78,36C253,879.76,228.92,906.22,193.28,906.22Zm4.5-20.16c16.74,0,29.52-17.46,29.52-39.06,0-12.78-7-21.06-18-21.06-16.2,0-29.7,17.64-29.7,40.5C179.6,879.22,187,886.06,197.78,886.06Zm132.3-23.94C327,876.7,317.66,886.06,306,886.06c-9,0-13.68-4.68-13.68-13.5a49.89,49.89,0,0,1,1.08-8.82l12.06-56.34h-25.2l-13.86,65.16a47.59,47.59,0,0,0-1.08,9.9c0,14.4,10.44,23.76,26.28,23.76,13.32,0,23-4.86,32.4-15.12l-2.88,13.5h25.2L367,807.4h-25.2Zm154.8-88.74L457,904.6h-25.2l2.34-11.16c-7.92,8.28-17.46,12.78-29.52,12.78-18.72,0-31.32-13.5-31.32-36.18,0-31.5,22.14-64.26,52.56-64.26,12.24,0,19.8,4.5,23.94,14.22l9.9-46.62h25.2Zm-41.76,73.08c0-12.6-6.12-20.52-15.84-20.52-14.94,0-28.26,18.54-28.26,40.32,0,13,6.48,19.8,16,19.8C430.34,886.06,443.12,869.14,443.12,846.46ZM98.24,773.38h-27L43.34,904.6h89.82L138,882.1H75.2Zm89.64-105.5c3.06-14.58,12.6-23.94,24.12-23.94,8.46,0,13.14,4.86,13.14,13.68a69.64,69.64,0,0,1-1.08,8.64L212,722.6h25.2l13.86-65.16a47.6,47.6,0,0,0,1.08-9.9c0-14.22-10.44-23.76-26.1-23.76-12.78,0-22.86,5-32.4,16.38l10.44-48.78h-25.2L151,722.6h25.2Zm99.9,12.78a29.89,29.89,0,0,0-.18,6.84c0,9.9,6.84,16.56,17.1,16.56,8.64,0,16.56-4.5,19.62-8.82h24.84c-9.36,17.46-27.54,29-49.32,29-22.5,0-38.34-13.86-38.34-36.18,0-33.48,20.88-64.26,56.52-64.26,24.12,0,38.16,16,38.16,35.64a78.52,78.52,0,0,1-3.06,21.24H287.78ZM291,663.92h39.6v-2.7c0-12.78-5.76-17.28-15.66-17.28C303.26,643.94,295,649.52,291,663.92ZM98.24,722.6l23.22-108.72h38.16l4.86-22.5H59.36l-4.86,22.5h40L71.24,722.6h27Zm274-244.82c0,38-24.12,64.44-59.76,64.44-23.76,0-39.42-12.78-39.42-34.74,0-37.44,24.3-65.7,59.4-65.7C357.08,441.78,372.2,455.46,372.2,477.78ZM346.46,483c0-12.78-7-21.06-18-21.06-16.2,0-29.7,17.64-29.7,40.5,0,12.78,7.38,19.62,18.18,19.62C333.68,522.06,346.46,504.6,346.46,483Zm78.12-39.6h-25.2l-13.86,65.16a47.6,47.6,0,0,0-1.08,9.9c0,14.4,10.44,23.76,26.28,23.76,13.32,0,23-4.86,32.4-15.12l-2.88,13.5h25.2l20.7-97.2h-25.2l-11.7,54.72c-3.06,14.58-12.42,23.94-24.12,23.94-9,0-13.68-4.68-13.68-13.5a49.89,49.89,0,0,1,1.08-8.82Zm71.28,83.7c0,9.9,7.38,14.22,20.52,14.22,5.94,0,10.26-.36,15.12-0.72L535.1,523a38.18,38.18,0,0,1-5.94.54c-4.14,0-6.84-1.8-6.84-4.5a35.8,35.8,0,0,1,1.08-6.12L534,462.12h14l3.6-16.74h-14l5.58-26.1H518l-5.58,26.1H500l-3.6,16.74h12.42l-12.06,57.6A35.9,35.9,0,0,0,495.86,527.1Zm88.2-26.28,14.22,4.5c11.34,3.6,13.68,5.22,13.86,8.1,0,5.76-7.38,8.64-18.36,8.64-10.8,0-18.72-3.24-19.08-12.24H550a24.66,24.66,0,0,0-.72,5.4c0,16.38,16,27,39.78,27,30.6,0,49.68-13.5,49.68-36.54,0-10.62-7.2-16.74-22.14-21.06l-17.28-5c-9.18-2.7-11.7-4.5-11.7-8.1,0-5.76,6.3-9.54,15.84-9.54,9.9,0,15.84,3.6,15.84,9.36a14.54,14.54,0,0,1-.54,3.42h24.3a28.37,28.37,0,0,0,.9-6.84c0-16.2-13.68-26.1-36.36-26.1-29.7,0-46.8,17.64-46.8,36.72C560.83,488.4,568.21,495.78,584.05,500.82Zm-348.83-59c-12.78,0-22.86,5-32.4,16.38l10.44-48.78h-25.2L160.16,540.6h25.2l11.7-54.72c3.06-14.58,12.6-23.94,24.12-23.94,8.46,0,13.14,4.86,13.14,13.68a69.64,69.64,0,0,1-1.08,8.64L221.18,540.6h25.2l13.86-65.16a47.6,47.6,0,0,0,1.08-9.9C261.32,451.32,250.88,441.78,235.22,441.78ZM91.4,542.76c38.52,0,61.38-20.52,61.38-50.94,0-13.86-10.08-22-28.44-25.74l-19.62-4C87.8,458.7,82.94,455.82,82.94,449c0-11.52,10.08-18.72,26.46-18.72,15.3,0,23.76,5.22,23.76,14.94,0,0.9-.18,2.52-0.36,4.14H158a47.25,47.25,0,0,0,1.44-11.16c0-19.44-16.74-31-45.36-31-35.46,0-58,21.78-58,48.42,0,14.94,9,22.86,30.42,27.18l17.64,3.6c16.38,3.42,21.78,5.76,21.78,14.22,0,12.06-11.88,19.08-30.6,19.08-16.38,0-25.74-5.94-25.74-16.2,0-.9.18-2.52,0.36-4.14H43.7A47.45,47.45,0,0,0,43,507.3C43,529.8,61.52,542.76,91.4,542.76Zm162.18-266.6L264,227.38h-25.2L210.92,358.6h25.2l11.7-54.72c3.06-14.58,12.6-23.94,24.12-23.94,8.46,0,13.14,4.86,13.14,13.68a69.64,69.64,0,0,1-1.08,8.64L271.94,358.6h25.2L311,293.44a47.6,47.6,0,0,0,1.08-9.9c0-14.22-10.44-23.76-26.1-23.76C273.2,259.78,263.12,264.82,253.58,276.16ZM160.34,358.6L224.6,227.38H196L155.48,326V227.38h-27.9L87.26,325.66V227.38H59.18L68.36,358.6h24.3l42.66-99.9v99.9h25Zm160.74-33.12c0-37.44,24.3-65.7,59.4-65.7,24.66,0,39.78,13.68,39.78,36,0,38-24.12,64.44-59.76,64.44C336.74,360.22,321.08,347.44,321.08,325.48Zm25.74-5c0,12.78,7.38,19.62,18.18,19.62,16.74,0,29.52-17.46,29.52-39.06,0-12.78-7-21.06-18-21.06C360.32,279.94,346.82,297.58,346.82,320.44ZM173.3,142c0-33.48,20.88-64.26,56.52-64.26,24.12,0,38.16,16,38.16,35.64a78.53,78.53,0,0,1-3.06,21.24H199.58a29.89,29.89,0,0,0-.18,6.84c0,9.9,6.84,16.56,17.1,16.56,8.64,0,16.56-4.5,19.62-8.82H261c-9.36,17.46-27.54,29-49.32,29C189.14,178.22,173.3,164.36,173.3,142Zm29.52-24.12h39.6v-2.7c0-12.78-5.76-17.28-15.66-17.28C215.06,97.94,206.78,103.52,202.82,117.92Zm-122-.9h52L120.2,176.6h27L175.1,45.38H147.92L137.48,94.52H85.64L96.08,45.38h-27L41.18,176.6h27Z" fill="#fff"/></svg>