<?xml version="1.0" encoding="utf-8"?>
<!-- Generator: Adobe Illustrator 19.1.0, SVG Export Plug-In . SVG Version: 6.00 Build 0)  -->
<svg version="1.1" id="openfoundry-logo" xmlns="http://www.w3.org/2000/svg" xmlns:xlink="http://www.w3.org/1999/xlink" x="0px"
	 y="0px" viewBox="719 269.5 54 28" enable-background="new 719 269.5 54 28" xml:space="preserve">
<g>
	<rect x="720" y="270.5" fill="none" stroke="#000000" stroke-width="2" width="52" height="26"/>
	<path d="M731.6,277c3.5,0,5.6,2.6,5.6,6c0,3.3-2.1,5.9-5.6,5.9s-5.6-2.6-5.6-5.9C726,279.7,728.1,277,731.6,277z M731.6,286.9
		c2.3,0,3.1-1.9,3.1-3.8c0-2-0.8-3.9-3.1-3.9s-3.1,1.9-3.1,3.9C728.5,285,729.3,286.9,731.6,286.9z M738.8,280.5h2.2v1.1h0
		c0.5-0.9,1.4-1.3,2.5-1.3c2.6,0,3.8,2.1,3.8,4.4c0,2.2-1.2,4.3-3.6,4.3c-1,0-1.9-0.4-2.5-1.2h0v3.9h-2.3V280.5z M745,284.6
		c0-1.3-0.5-2.7-2-2.7c-1.5,0-2,1.3-2,2.7c0,1.3,0.5,2.6,2,2.6C744.5,287.2,745,286,745,284.6z M750.6,285.1c0.1,1.4,0.8,2.1,2,2.1
		c0.9,0,1.6-0.6,1.8-1.1h2c-0.6,2-2,2.8-3.9,2.8c-2.6,0-4.2-1.8-4.2-4.4c0-2.5,1.7-4.4,4.2-4.4c2.8,0,4.2,2.4,4,4.9H750.6z
		 M754.3,283.7c-0.2-1.2-0.7-1.8-1.8-1.8c-1.4,0-1.9,1.1-1.9,1.8H754.3z M758,280.5h2.2v1.2h0c0.6-0.9,1.6-1.4,2.5-1.4
		c2.4,0,3,1.4,3,3.4v5.1h-2.3v-4.7c0-1.4-0.4-2-1.5-2c-1.2,0-1.8,0.7-1.8,2.4v4.3H758V280.5z"/>
</g>
</svg>
