<?xml version="1.0" standalone="no"?>
<!DOCTYPE svg PUBLIC "-//W3C//DTD SVG 1.1//EN" "http://www.w3.org/Graphics/SVG/1.1/DTD/svg11.dtd" >
<svg xmlns="http://www.w3.org/2000/svg">
<metadata></metadata>
<defs>
<font id="bretan_proregular" horiz-adv-x="1384" >
<font-face units-per-em="2048" ascent="1638" descent="-410" />
<missing-glyph horiz-adv-x="608" />
<glyph horiz-adv-x="0" />
<glyph horiz-adv-x="682" />
<glyph unicode=" "  horiz-adv-x="608" />
<glyph unicode="&#x09;" horiz-adv-x="608" />
<glyph unicode="&#xa0;" horiz-adv-x="608" />
<glyph unicode="!" horiz-adv-x="600" d="M184 1380q0 28 37 50t80 22q39 0 77 -25t38 -47q-42 -296 -54 -467q-9 -148 -18 -510h-86q-2 37 -6 171t-9 249.5t-12 200.5q-14 164 -47 356zM195 96q0 42 29.5 71.5t72.5 29.5t72.5 -29.5t29.5 -71.5q0 -43 -29.5 -73.5t-72.5 -30.5t-72.5 30.5t-29.5 73.5z" />
<glyph unicode="&#x22;" horiz-adv-x="833" d="M147 1391q0 61 107 61q88 0 88 -59q-43 -184 -59 -475h-78q-12 226 -58 473zM496 1391q0 61 106 61q88 0 88 -59q-43 -184 -59 -475h-78q-12 233 -57 473z" />
<glyph unicode="#" horiz-adv-x="1406" d="M90 389v115h244l80 387h-281v115h305q14 71 45 213.5t45 214.5h123q-50 -229 -90 -428h410q50 229 90 428h123q-14 -72 -45 -214.5t-45 -213.5h223v-115h-246q-14 -64 -40.5 -193t-41.5 -194h285v-115h-307l-88 -424h-125q43 197 90 424h-412l-88 -424h-123 q76 368 88 424h-219zM455 504h413l80 387h-411q-68 -323 -82 -387z" />
<glyph unicode="$" horiz-adv-x="1171" d="M127 178l78 86q62 -69 132.5 -109t164.5 -51q16 254 39 574q-50 24 -78.5 38.5t-70 37t-65 38t-54.5 38t-48.5 42t-36.5 45.5t-28.5 52t-16 58t-6.5 67q0 147 123.5 250.5t329.5 103.5q9 0 22 182h103q-15 -160 -17 -188q103 -11 174.5 -52t131.5 -106l-76 -90 q-70 65 -122.5 95.5t-119.5 37.5l-37 -522q188 -92 255 -138q131 -89 162 -206q11 -44 11 -94q0 -169 -130 -269.5t-355 -111.5l-21 -213h-100l18 219q-211 19 -362 186zM295 1114q0 -84 57 -138.5t205 -129.5q13 216 33 487q-138 0 -216.5 -61.5t-78.5 -157.5zM598 102 q151 0 234 64.5t83 175.5q0 37 -8 68t-28.5 58t-40 46.5t-58.5 43t-66.5 38.5t-80.5 41q-5 -95 -35 -535z" />
<glyph unicode="%" horiz-adv-x="1640" d="M82 1036q0 48 8 99.5t29.5 110t54 103.5t85.5 75t120 30q76 0 133.5 -34t90.5 -93t49 -128.5t16 -149.5q0 -81 -15.5 -153t-48.5 -134t-92.5 -98.5t-138.5 -36.5t-138 36t-91 97t-47 130t-15 146zM215 1040q0 -137 43 -226t119 -89q41 0 72 25t49.5 69t27.5 99t9 120 q0 320 -158 320q-83 0 -122.5 -88t-39.5 -230zM313 -10l893 1452h121l-893 -1452h-121zM971 393q0 48 8.5 100t30 109.5t54 102.5t85.5 74.5t119 29.5q76 0 134 -34t91 -92t49.5 -128t16.5 -149q0 -64 -9 -122.5t-31.5 -113.5t-55.5 -95.5t-84.5 -64.5t-116.5 -24 q-63 0 -114 24t-83.5 63.5t-54 93t-30.5 109.5t-9 117zM1106 395q0 -139 41.5 -227t116.5 -88q55 0 91.5 45t51 113t14.5 157q0 320 -155 320q-56 0 -93 -44t-52 -113t-15 -163z" />
<glyph unicode="&#x26;" horiz-adv-x="1404" d="M72 375q0 81 27 151.5t78.5 126.5t111 99.5t137.5 83.5q-102 181 -102 346q0 72 23 136t67.5 115t116 81t161.5 30q159 0 245.5 -84.5t86.5 -214.5q0 -77 -28.5 -143t-84 -120t-118 -95t-148.5 -84q29 -45 131 -176q133 -172 244 -283q118 161 149 418h164 q-43 -310 -192 -510q152 -117 301 -117v-155q-122 5 -218.5 39t-195.5 112q-187 -160 -446 -160q-245 0 -377.5 109.5t-132.5 294.5zM252 393q0 -132 87.5 -202t254.5 -70q187 0 317 106q-111 105 -274 310q-96 123 -139 186q-246 -144 -246 -330zM494 1192q0 -134 86 -283 q66 35 111 65t87 69t63 86.5t21 103.5q0 71 -43.5 119.5t-126.5 48.5q-94 0 -146 -56t-52 -153z" />
<glyph unicode="'" horiz-adv-x="487" d="M147 1391q0 61 107 61q88 0 88 -59q-43 -184 -59 -475h-78q-12 226 -58 473z" />
<glyph unicode="(" horiz-adv-x="651" d="M119 555q0 579 391 977l80 -59q-330 -387 -330 -914q0 -294 85.5 -509.5t246.5 -407.5q-16 -10 -43 -31t-39 -29q-391 448 -391 973z" />
<glyph unicode=")" horiz-adv-x="651" d="M59 -358q162 195 248 409.5t86 507.5q0 153 -25.5 288.5t-73.5 247.5t-103.5 201t-129.5 177l80 59q198 -217 294.5 -456t96.5 -521q0 -266 -95 -506t-296 -467z" />
<glyph unicode="*" horiz-adv-x="995" d="M84 1030l6 199l369 -92l-209 272l139 86l107 -317l108 317l150 -88l-217 -270l358 59l-10 -188l-340 73l237 -239l-151 -105l-133 314l-136 -314l-163 133l250 211z" />
<glyph unicode="+" horiz-adv-x="1333" d="M137 612v121h467v471h123v-471h469v-121h-469v-471h-123v471h-467z" />
<glyph unicode="," horiz-adv-x="532" d="M166 -233q6 15 26.5 57t36 81t19.5 66q-3 6 -12 15q-22 13 -29 22q-27 30 -27 70q0 41 30 70.5t73 29.5h2q43 -2 71.5 -30.5t28.5 -69.5q0 -46 -14 -82q-10 -24 -31.5 -63.5t-39.5 -71t-42 -72.5t-29 -49q-11 4 -31.5 13.5t-31.5 13.5z" />
<glyph unicode="-" horiz-adv-x="659" d="M109 518v137h442v-137h-442z" />
<glyph unicode="." horiz-adv-x="534" d="M166 96q0 42 30 71.5t72 29.5q43 0 73 -30t30 -71q0 -43 -30 -73.5t-73 -30.5t-72.5 30.5t-29.5 73.5z" />
<glyph unicode="/" horiz-adv-x="884" d="M39 -66q96 226 322 754t346 811h139q-120 -283 -346 -811t-322 -754h-139z" />
<glyph unicode="0" horiz-adv-x="1169" d="M96 711q0 87 19 161q12 85 31 158.5t56.5 155t87 138.5t127.5 94.5t175 37.5q106 0 189.5 -43t137 -113.5t88.5 -167t49.5 -197.5t14.5 -212q0 -118 -15.5 -223.5t-51.5 -203t-91 -167.5t-139.5 -112t-191.5 -42q-106 0 -191 44t-139 115t-90 168.5t-51 198.5t-15 210z M272 713q0 -65 15 -142q56 -481 299 -481q157 0 234 166.5t77 456.5q0 628 -309 628q-83 0 -145 -46.5t-98.5 -132.5t-54.5 -197.5t-18 -251.5z" />
<glyph unicode="1" horiz-adv-x="944" d="M121 1247q207 74 360 187h135v-1434h-167v1276q-130 -79 -299 -141q-24 89 -29 112z" />
<glyph unicode="2" horiz-adv-x="1101" d="M68 0v152q56 65 160.5 164.5t194.5 186t178.5 184t140 194.5t51.5 182q0 121 -78.5 193.5t-194.5 72.5q-100 0 -183 -47.5t-138 -120.5l-82 84q159 211 428 211q202 0 315 -106.5t113 -270.5q0 -70 -15.5 -130.5t-47 -113t-63.5 -93.5t-80 -96q-13 -14 -19 -21 q-50 -58 -115.5 -128t-103.5 -108.5t-128.5 -128t-109.5 -108.5h700v-152h-923z" />
<glyph unicode="3" horiz-adv-x="1105" d="M63 160l78 90q59 -69 145 -110.5t191 -41.5q156 0 245 83.5t89 215.5q0 70 -21.5 123.5t-69.5 95.5t-132.5 64t-202.5 22h-61v115h102q158 3 249 68.5t91 199.5q0 112 -72 178t-215 66q-90 0 -165 -34t-126 -85l-73 95q169 149 401 149q197 0 307.5 -94.5t110.5 -247.5 q0 -133 -79 -221.5t-206 -122.5q167 -30 251.5 -127t84.5 -246q0 -184 -135 -301t-358 -117q-127 0 -239.5 49.5t-189.5 133.5z" />
<glyph unicode="4" horiz-adv-x="1122" d="M47 393v105l641 936h154v-916h205v-125h-205v-393h-166v393h-629zM201 518h475v696h-2z" />
<glyph unicode="5" horiz-adv-x="1097" d="M106 154q39 52 76 94q148 -148 332 -148q155 0 241.5 99.5t86.5 257.5q0 150 -81 239.5t-206 89.5q-172 0 -264 -106h-121l31 754h735l-6 -152h-613q-12 -296 -20 -459q124 92 272 92q189 0 319 -122t130 -328q0 -101 -34 -189.5t-96.5 -154t-156.5 -103.5t-207 -38 q-142 0 -248 50t-170 124z" />
<glyph unicode="6" horiz-adv-x="1126" d="M106 690q0 176 43.5 321.5t119 242t178 149.5t219.5 53q185 0 313 -90l-61 -106q-111 77 -250 77q-172 0 -279.5 -167t-107.5 -482q61 105 161 154t203 49q190 0 301 -118.5t111 -321.5q0 -207 -126.5 -341.5t-334.5 -134.5q-98 0 -179.5 36.5t-138.5 101.5t-96 155 t-57.5 196t-18.5 226zM297 498q9 -173 96.5 -287.5t218.5 -114.5q64 0 113 22.5t78.5 57t48.5 82t26 92.5t7 92q0 160 -73.5 243t-205.5 83q-112 0 -193.5 -72t-115.5 -198z" />
<glyph unicode="7" horiz-adv-x="1062" d="M92 1282v152h899v-115q-102 -219 -306 -659.5t-306 -659.5h-146l603 1282h-744z" />
<glyph unicode="8" horiz-adv-x="1122" d="M74 358q0 267 348 398q-149 50 -222 138.5t-73 207.5q0 69 28.5 132.5t81.5 113.5t138 80t190 30q112 0 199 -33t136 -86.5t73 -112.5t24 -120q0 -40 -16.5 -86t-49.5 -95.5t-93.5 -94t-139.5 -72.5q44 -17 72.5 -29.5t68.5 -34t66.5 -41.5t56 -50.5t46 -63t28 -77 t11.5 -95.5q0 -78 -32.5 -148.5t-92.5 -125t-154 -86.5t-209 -32q-232 0 -358.5 111t-126.5 272zM250 373q0 -86 47 -153t117 -99.5t147 -32.5q138 0 223.5 79t85.5 208q0 128 -80 204t-231 121q-154 -46 -231.5 -123.5t-77.5 -203.5zM295 1096q0 -107 72.5 -181t195.5 -106 q133 39 198.5 105t65.5 180q0 105 -69.5 178.5t-196.5 73.5t-196.5 -74.5t-69.5 -175.5z" />
<glyph unicode="9" horiz-adv-x="1126" d="M78 983q0 204 127 338.5t334 134.5q102 0 185 -38t138.5 -102.5t93.5 -153t55 -187.5t17 -209q0 -154 -30 -284.5t-82 -222.5t-122 -157t-150 -96t-167 -31q-193 0 -332 105l60 106q121 -90 272 -90q71 0 130 30t99 82t70 116.5t46.5 139.5t24 145t7.5 139 q-24 -31 -45.5 -55.5t-56.5 -55t-71 -50.5t-86 -34t-103 -14q-189 0 -301.5 120.5t-112.5 323.5zM250 995q0 -67 17.5 -126t50.5 -105t86.5 -73t121.5 -27q112 0 195 74t117 198q-10 187 -93 296t-210 109q-133 0 -209 -94.5t-76 -251.5z" />
<glyph unicode=":" horiz-adv-x="577" d="M199 96q0 42 29.5 71.5t72.5 29.5t72.5 -29.5t29.5 -71.5q0 -43 -29.5 -73.5t-72.5 -30.5t-72.5 30.5t-29.5 73.5zM199 956q0 42 29.5 71.5t72.5 29.5t72.5 -29.5t29.5 -71.5q0 -43 -29.5 -73.5t-72.5 -30.5t-72.5 30.5t-29.5 73.5z" />
<glyph unicode=";" horiz-adv-x="577" d="M184 -233q6 15 26.5 57t36 81t19.5 66q-3 6 -12 15q-22 13 -29 22q-26 29 -26 70t29.5 70.5t72.5 29.5h2q43 -2 71.5 -30.5t28.5 -69.5q0 -46 -14 -82q-17 -41 -141 -256q-11 4 -31.5 13.5t-32.5 13.5zM199 956q0 42 29.5 71.5t72.5 29.5t72.5 -29.5t29.5 -71.5 q0 -43 -29.5 -73.5t-72.5 -30.5t-72.5 30.5t-29.5 73.5z" />
<glyph unicode="&#x3c;" horiz-adv-x="1333" d="M123 608v107l1081 461v-134l-917 -380l917 -381v-134z" />
<glyph unicode="=" horiz-adv-x="1333" d="M135 377v121h1061v-121h-1061zM135 844v121h1061v-121h-1061z" />
<glyph unicode="&#x3e;" horiz-adv-x="1333" d="M129 156v131l920 381l-920 381v133l1083 -461v-105z" />
<glyph unicode="?" horiz-adv-x="935" d="M43 1288q161 168 395 168q195 0 308.5 -97.5t113.5 -244.5q0 -61 -16.5 -111t-53.5 -93.5t-74 -75.5t-100 -78q-47 -34 -77 -62.5t-49.5 -56.5t-28.5 -64.5t-12 -73.5t-3 -98h-106q0 8 -1 25.5t-1 26.5q2 129 41.5 217.5t146.5 175.5q90 71 124 121.5t34 132.5 q0 107 -72 168t-194 61q-170 0 -301 -131zM289 96q0 42 29.5 71.5t72.5 29.5t73 -30t30 -71q0 -43 -30 -73.5t-73 -30.5t-72.5 30.5t-29.5 73.5z" />
<glyph unicode="@" horiz-adv-x="1732" d="M88 670q0 167 60.5 314.5t166 252.5t253 166t315.5 61q207 0 374.5 -86t265 -245t97.5 -361q0 -232 -116 -386.5t-279 -154.5q-88 0 -147 44t-68 126q-185 -159 -344 -159q-107 0 -174.5 71t-67.5 215q0 156 62 299.5t170 233.5t231 90q53 0 100 -19.5t69.5 -38 t51.5 -49.5l31 89h110l-92 -523q-23 -131 -23 -163q0 -1 0.5 -4t0.5 -5q0 -59 35 -90t85 -31q49 0 98.5 31.5t91 88t67.5 146t26 195.5q0 141 -54 258.5t-144.5 193.5t-207 117.5t-243.5 41.5q-142 0 -269.5 -52t-223 -144.5t-151 -228.5t-55.5 -296q0 -156 55 -290 t149 -225t221 -142.5t270 -51.5q64 0 123 10t110 31.5t89 40.5t80.5 51.5t61.5 48t54 47.5l49 -53q-113 -133 -263.5 -192.5t-309.5 -59.5q-229 0 -410.5 103.5t-281 283t-99.5 400.5zM573 528q0 -23 8 -52.5t24 -60.5t45.5 -52t66.5 -21q55 0 153 45.5t142 91.5l84 471 q-33 42 -81 70.5t-102 28.5q-90 0 -169.5 -76.5t-125 -196.5t-45.5 -248z" />
<glyph unicode="A" horiz-adv-x="1224" d="M43 0q82 240 248 718.5t248 717.5h145l500 -1436h-187l-153 459h-506q-26 -82 -77.5 -235.5t-74.5 -223.5h-143zM379 578h424q-35 106 -105.5 316.5t-105.5 317.5h-2q-35 -107 -105.5 -317.5t-105.5 -316.5z" />
<glyph unicode="B" horiz-adv-x="1273" d="M190 0v1434h447q230 0 358.5 -85t128.5 -262q0 -128 -75.5 -218t-208.5 -121q59 -9 98 -35q109 -35 172.5 -116t63.5 -200q0 -117 -60.5 -210t-169.5 -134q-68 -32 -157.5 -42.5t-251.5 -10.5h-345zM365 123h167q122 0 185 6q76 2 131.5 25.5t86 63.5t44.5 86.5t14 101.5 q0 71 -32 132.5t-95 96.5q-39 21 -100 31.5t-110 12t-148 1.5h-143v-557zM365 799h141q94 0 145 2q149 4 224 73.5t75 190.5q0 236 -291 244h-294v-510z" />
<glyph unicode="C" horiz-adv-x="1204" d="M104 717q0 205 71 371t206.5 264t312.5 98q289 0 443 -258l-95 -74q-116 203 -319 203q-194 0 -312 -161.5t-118 -438.5q0 -290 115.5 -451t302.5 -161q115 0 203 60t139 163q70 -49 98 -70q-64 -126 -181.5 -203t-279.5 -77q-180 0 -314 94t-203 260t-69 381z" />
<glyph unicode="D" horiz-adv-x="1359" d="M190 0v1434h365q149 0 266.5 -28t208.5 -101q117 -96 169 -246t52 -324q0 -352 -179.5 -543.5t-534.5 -191.5h-347zM367 125h184q91 0 161.5 13t140 52.5t114 105t72.5 177t28 262.5q0 47 -10 99q-8 119 -39 205.5t-74 137.5t-107 81t-127 39.5t-145 9.5h-198v-1182z" />
<glyph unicode="E" horiz-adv-x="1095" d="M190 0v1434h803v-129h-626v-492h514v-125h-514v-559h651v-129h-828z" />
<glyph unicode="F" horiz-adv-x="1040" d="M190 0v1434h793v-129h-616v-512h503v-127h-503v-666h-177z" />
<glyph unicode="G" horiz-adv-x="1302" d="M104 715q0 170 46.5 309.5t128 232.5t194 144t244.5 51q157 0 267.5 -71.5t160.5 -188.5l-94 -74q-46 95 -129.5 150t-196.5 55q-189 0 -311.5 -160.5t-122.5 -445.5q0 -102 16 -193t50.5 -169t84.5 -134.5t122.5 -88.5t160.5 -32q81 0 146 66t99 171.5t34 227.5h-295 v121h465v-686h-170v205q-27 -100 -117.5 -161.5t-198.5 -61.5q-179 0 -312.5 95t-202.5 260.5t-69 377.5z" />
<glyph unicode="H" horiz-adv-x="1394" d="M190 0v1434h177v-621h663v621h176v-1434h-176v688h-663v-688h-177z" />
<glyph unicode="I" horiz-adv-x="577" d="M201 0v1434h176v-1434h-176z" />
<glyph unicode="J" horiz-adv-x="811" d="M12 -59l62 94q72 -82 178 -82q105 0 152 64.5t47 199.5v1217h176v-1184q0 -94 -17 -166.5t-56.5 -132t-111.5 -91.5t-174 -32q-74 0 -141 32.5t-115 80.5z" />
<glyph unicode="K" horiz-adv-x="1255" d="M190 0v1434h177v-721q72 82 200 227t234 266t200 228h177q-344 -382 -531 -586l584 -848h-213l-502 743l-149 -170v-573h-177z" />
<glyph unicode="L" horiz-adv-x="1021" d="M190 0v1434h177v-1305h612v-129h-789z" />
<glyph unicode="M" horiz-adv-x="1654" d="M190 0v1434h216q71 -200 209.5 -599.5t209.5 -598.5h2l420 1198h219v-1434h-170v1214q-5 0 -28 -69t-49.5 -154.5t-32.5 -101.5l-320 -889h-116q-10 27 -70.5 195t-77.5 216t-66.5 188t-76 217t-64 189.5t-69.5 211.5v-1217h-136z" />
<glyph unicode="N" horiz-adv-x="1411" d="M190 0v1434h146l741 -1127h2v1127h142v-1434h-131l-756 1145h-2v-1145h-142z" />
<glyph unicode="O" d="M104 715q0 83 23 164q17 139 69 249.5t128.5 181.5t171.5 108.5t202 37.5q116 0 219 -45t185 -132t130 -230t48 -324q0 -173 -45 -315.5t-124 -237t-187.5 -146t-235.5 -51.5q-124 0 -230.5 50t-185 142.5t-123.5 233.5t-45 314zM291 713q0 -79 18 -140 q26 -238 131 -356.5t252 -118.5q64 0 121.5 21t109.5 68.5t89.5 118t59.5 175.5t22 234q0 114 -22.5 220t-68 197t-125 146t-182.5 55q-185 0 -295 -161t-110 -459z" />
<glyph unicode="P" horiz-adv-x="1191" d="M190 0v1434h428q139 0 240.5 -28t160.5 -80.5t86.5 -120t27.5 -152.5q0 -198 -133 -307t-371 -109h-262v-637h-177zM367 762h186q77 0 130.5 5t108 22.5t86.5 48t52 83.5t20 128q0 65 -18 112.5t-47 75.5t-74.5 44.5t-92 22t-108.5 5.5h-243v-547z" />
<glyph unicode="Q" d="M104 717q0 335 166 537t430 202q258 0 419 -198t161 -535q0 -199 -59.5 -357.5t-175.5 -259t-275 -120.5q25 -81 87.5 -125t162.5 -64l135 -73l-125 -66l-143 76q-129 20 -205.5 87.5t-97.5 168.5q-99 17 -180 67.5t-136 121t-92.5 160.5t-54.5 184.5t-17 193.5zM291 717 q0 -57 11.5 -130t41 -161.5t72.5 -161t115.5 -121.5t160.5 -49q185 0 292.5 168.5t107.5 452.5q0 121 -23 228.5t-69 196.5t-124.5 141t-179.5 52q-180 0 -292.5 -156t-112.5 -460z" />
<glyph unicode="R" horiz-adv-x="1234" d="M190 0v1434h326q27 0 76.5 -1t73.5 -1q218 -6 330 -108.5t112 -258.5q0 -158 -88 -258t-258 -135l416 -672h-203l-381 649h-229v-649h-175zM365 764h157q55 0 93.5 2t84.5 8.5t77 18t62 32.5t49.5 51t30 73.5t11.5 99.5q0 65 -17.5 112.5t-46.5 75.5t-75 44.5t-93 22 t-110 5.5h-223v-545z" />
<glyph unicode="S" horiz-adv-x="1091" d="M104 221l91 78q57 -89 145 -142t199 -53q140 0 222.5 64t82.5 166q0 96 -63 160t-232 141l-25 18q-91 36 -159 76t-124.5 93t-86 121t-29.5 149q0 155 123 259.5t313 104.5q266 0 393 -201l-82 -86q-113 158 -294 158q-134 0 -211.5 -58.5t-77.5 -154.5q0 -93 73 -164.5 t269 -158.5q100 -48 164.5 -87.5t117 -90t76 -112t23.5 -139.5q0 -167 -130 -274.5t-329 -107.5q-164 0 -280 67.5t-169 173.5z" />
<glyph unicode="T" horiz-adv-x="1120" d="M45 1305v129h1030v-129h-426v-1305h-176v1305h-428z" />
<glyph unicode="U" horiz-adv-x="1366" d="M174 518v916h176v-803q0 -92 6.5 -161t28 -141.5t58 -119t100.5 -76t153 -29.5q65 0 117 14t88.5 37t63 61t42.5 79.5t25 98.5t12 111t3 124v805h145v-930q-1 -75 -16 -145.5t-52.5 -141.5t-94 -123t-147.5 -84.5t-206 -32.5q-73 0 -138.5 13.5t-134 51t-117.5 96 t-80.5 156.5t-31.5 224z" />
<glyph unicode="V" horiz-adv-x="1216" d="M47 1434h186l394 -1190h2l395 1190h145q-73 -212 -239 -695.5t-256 -740.5h-131q-91 263 -259 750.5t-237 685.5z" />
<glyph unicode="W" horiz-adv-x="1705" d="M63 1434h181l186 -766q45 -186 92 -394q3 0 17.5 58.5t33.5 141t21 91.5l211 869h139l211 -873q12 -48 34 -143.5t34 -143.5l280 1160h139l-368 -1434h-133l-283 1180h-2l-291 -1180h-133z" />
<glyph unicode="X" horiz-adv-x="1179" d="M37 0l461 745l-412 689h203q23 -39 139.5 -240t177.5 -309q54 92 163.5 274.5t164.5 274.5h158q-68 -111 -205.5 -332.5t-204.5 -331.5l461 -770h-197q-323 545 -373 631l-383 -631h-153z" />
<glyph unicode="Y" horiz-adv-x="1136" d="M25 1434h198l369 -670l366 670h154l-457 -797v-637h-174v637z" />
<glyph unicode="Z" horiz-adv-x="1140" d="M66 0v102q262 403 790 1209h-741v123h946v-105l-787 -1204h805v-125h-1013z" />
<glyph unicode="[" horiz-adv-x="688" d="M176 -430v1970h455v-106h-305v-1760h305v-104h-455z" />
<glyph unicode="\" horiz-adv-x="878" d="M35 1499h139l670 -1565h-139z" />
<glyph unicode="]" horiz-adv-x="688" d="M55 -326h305v1760h-305v106h455v-1970h-455v104z" />
<glyph unicode="^" horiz-adv-x="1177" d="M203 973l346 459h82l344 -459l-101 -21l-286 334q-52 -62 -150 -175t-137 -159z" />
<glyph unicode="_" horiz-adv-x="1024" d="M-6 -147h1036v-109h-1036v109z" />
<glyph unicode="`" horiz-adv-x="851" d="M156 1446q0 32 20.5 49t51.5 17q53 0 87 -44q99 -129 265 -276l-64 -35q-59 40 -91 60t-85 49t-102 47q-45 17 -63.5 47t-18.5 86z" />
<glyph unicode="a" horiz-adv-x="1048" d="M80 250q0 158 154 259t495 179v43q0 112 -54.5 162.5t-164.5 50.5q-164 0 -324 -121l-61 95q191 145 420 145q167 0 257.5 -78t90.5 -266v-352q0 -138 6 -220.5t25 -146.5h-168q-15 76 -21 166q-141 -184 -364 -184q-137 0 -214 75.5t-77 192.5zM248 268q0 -79 54 -123.5 t128 -44.5q83 0 165 39t134 105v346q-269 -69 -375 -142t-106 -180z" />
<glyph unicode="b" horiz-adv-x="1146" d="M166 0v1499h166v-616q122 182 325 182q176 0 285 -137t109 -391q0 -140 -33.5 -248.5t-91.5 -174t-131.5 -99t-157.5 -33.5q-183 0 -305 188l-39 -170h-127zM332 303q21 -38 33.5 -59t38.5 -52.5t51.5 -47.5t64.5 -29t86 -13q70 0 124 37t85 99.5t46.5 135t15.5 152.5 q0 202 -74.5 308t-192.5 106q-99 0 -165 -51.5t-113 -145.5v-440z" />
<glyph unicode="c" horiz-adv-x="958" d="M94 518q0 131 38.5 236t104.5 171t149.5 101t176.5 35q198 0 338 -172l-82 -78q-100 131 -237 131q-60 0 -114.5 -25t-99.5 -74t-71.5 -131.5t-26.5 -187.5q0 -196 82.5 -310t214.5 -114q148 0 254 142l82 -74q-127 -184 -356 -184q-94 0 -176.5 36.5t-144 104t-97 169 t-35.5 224.5z" />
<glyph unicode="d" horiz-adv-x="1146" d="M96 520q0 135 33.5 241.5t91 171.5t130.5 98.5t157 33.5q62 0 114 -17t89.5 -48t58 -53.5t43.5 -55.5v608h166v-1274q0 -149 16 -225h-161q-18 89 -21 172q-122 -190 -319 -190q-183 0 -290.5 146t-107.5 392zM270 522q0 -62 15.5 -130.5t45.5 -135.5t84.5 -110.5 t123.5 -43.5q73 0 151.5 50t122.5 131v465l-15 24q-24 39 -36.5 57t-36.5 45t-47 39t-58 21.5t-79 9.5q-118 0 -194.5 -106t-76.5 -316z" />
<glyph unicode="e" horiz-adv-x="1038" d="M94 522q0 127 38 232t102 171.5t145.5 103t169.5 36.5q105 0 184.5 -41t127.5 -114t71.5 -168t23.5 -210h-686q0 -215 88.5 -323.5t231.5 -108.5q139 0 270 138q11 -14 35.5 -42t36.5 -42q-62 -77 -157 -125.5t-220 -48.5q-197 0 -329 148t-132 394zM274 637h519 q-3 150 -68 234.5t-176 84.5q-44 0 -86 -17t-82 -52t-68.5 -99.5t-38.5 -150.5z" />
<glyph unicode="f" horiz-adv-x="638" d="M51 930v114h168v177q0 137 65.5 212.5t223.5 75.5q54 0 108 -12l-12 -113q-63 7 -72 7q-88 0 -117.5 -42t-29.5 -130v-175h209v-114h-209v-930h-166v930h-168z" />
<glyph unicode="g" horiz-adv-x="1042" d="M55 -143q0 147 211 235q-106 42 -106 123q0 35 26.5 74t96.5 100q-185 102 -185 307q0 162 111.5 265.5t282.5 103.5q133 0 231 -68q142 43 274 52v-121q-106 0 -186 -19q80 -85 80 -211q0 -87 -33.5 -157t-90 -113.5t-126.5 -66.5t-147 -23q-67 0 -129 20 q-35 -27 -50.5 -46.5t-15.5 -41.5q0 -69 197 -69l104 -6q387 -23 387 -283q0 -129 -126 -222t-347 -93q-218 0 -338.5 73.5t-120.5 186.5zM207 -119q0 -75 98.5 -126.5t222.5 -51.5q140 0 224 51.5t84 132.5q0 88 -80.5 125.5t-251.5 48.5h-96q-5 0 -14.5 1t-14.5 1 q-80 -23 -126 -69t-46 -113zM260 700q0 -119 68.5 -188.5t167.5 -69.5q104 0 169.5 67t65.5 193q0 120 -61.5 188t-171.5 68q-112 0 -175 -72.5t-63 -185.5z" />
<glyph unicode="h" horiz-adv-x="1146" d="M166 0v1499h166v-622q62 84 152.5 136t201.5 52q81 0 140.5 -26t93 -71t50.5 -96t21 -112v-760h-166v694q0 55 -7 95t-26 77t-58.5 56.5t-98.5 19.5q-83 0 -162.5 -45t-140.5 -129v-768h-166z" />
<glyph unicode="i" horiz-adv-x="509" d="M154 1395q0 41 29.5 70.5t72.5 29.5t72.5 -29.5t29.5 -70.5q0 -43 -30 -74t-72 -31t-72 31t-30 74zM172 0v1044h166v-1044h-166z" />
<glyph unicode="j" horiz-adv-x="520" d="M-2 -385l8 109q40 -9 70 -9q60 0 82 38t22 114v1177h168v-1081q0 -51 -1 -82t-6 -73.5t-14.5 -68.5t-27.5 -55t-43.5 -44.5t-64 -26t-87.5 -10.5q-59 0 -106 12zM162 1395q0 41 29.5 70.5t72.5 29.5t73 -29.5t30 -70.5q0 -43 -30 -74t-73 -31q-42 0 -72 31t-30 74z" />
<glyph unicode="k" horiz-adv-x="1028" d="M166 0v1499h166v-967l467 512h162l-381 -403q81 -125 232 -355.5t187 -285.5h-194l-352 547l-121 -139v-408h-166z" />
<glyph unicode="l" horiz-adv-x="509" d="M172 0v1499h166v-1499h-166z" />
<glyph unicode="m" horiz-adv-x="1763" d="M166 0v1044h158q0 -117 2 -176q144 197 346 197q118 0 190 -54.5t94 -140.5q62 90 155 142.5t196 52.5q301 0 301 -342v-723h-166v694q0 30 -1.5 51t-6 52.5t-16 52.5t-29.5 42t-48.5 31.5t-70.5 10.5q-82 0 -152.5 -48.5t-108.5 -117t-38 -133.5v-635h-166v694 q0 31 -1.5 53t-6.5 53t-16 52t-28.5 41t-46.5 30.5t-67 10.5q-65 0 -124 -29t-98 -73t-62 -96.5t-23 -100.5v-635h-166z" />
<glyph unicode="n" horiz-adv-x="1144" d="M166 0v1044h166v-178q136 199 352 199q307 0 307 -350v-715h-168v723q0 211 -176 211q-83 0 -158 -49.5t-116 -118t-41 -131.5v-635h-166z" />
<glyph unicode="o" horiz-adv-x="1112" d="M92 514q0 236 134 393.5t337 157.5q207 0 331 -149t124 -388q0 -252 -130.5 -400t-336.5 -148q-96 0 -179.5 36t-146 102.5t-98 168.5t-35.5 227zM268 520q0 -41 7.5 -91.5t27.5 -112t50.5 -110.5t83 -82.5t118.5 -33.5q63 0 114 27.5t83 71.5t53.5 102.5t30 116.5 t8.5 118q0 79 -15.5 152t-48 136.5t-89.5 101.5t-132 38q-64 0 -115 -27.5t-83 -71.5t-53.5 -102t-30.5 -116t-9 -117z" />
<glyph unicode="p" horiz-adv-x="1146" d="M166 -391v1435h166v-172q23 31 39 50t48 49.5t63 48.5t77 31.5t96 13.5q176 0 286 -139.5t110 -393.5q0 -258 -112.5 -404t-299.5 -146q-72 0 -135 29t-98 62.5t-74 82.5v-547h-166zM332 283q65 -104 118.5 -142.5t157.5 -38.5q71 0 125 37.5t84 100t45 135t15 151.5 q0 77 -15.5 149t-46.5 133t-83.5 97.5t-119.5 36.5q-46 0 -83 -12t-62 -28.5t-51.5 -51t-42 -60.5t-41.5 -75v-432z" />
<glyph unicode="q" horiz-adv-x="1146" d="M96 518q0 254 115 400.5t299 146.5q58 0 105.5 -15.5t85 -47t59.5 -56.5t53 -67v165h166v-1435h-166v549q-128 -176 -321 -176q-181 0 -288.5 147t-107.5 389zM270 522q0 -51 13 -98q18 -160 88 -241t166 -81t167 74.5t109 214.5v344q-3 4 -16 27.5t-17 30t-17.5 27.5 t-20.5 29t-22 24.5t-26.5 23.5t-29 18.5t-34.5 16t-39 8.5t-46 4q-124 0 -199.5 -108t-75.5 -314z" />
<glyph unicode="r" horiz-adv-x="757" d="M166 0v1044h166v-231q114 252 336 252q25 0 61 -10l-27 -150q-21 8 -61 8q-96 0 -171.5 -56.5t-119.5 -154.5q-18 -86 -18 -274v-428h-166z" />
<glyph unicode="s" horiz-adv-x="884" d="M78 113l69 90q120 -107 265 -107q117 0 180 42.5t63 123.5q0 77 -58 122.5t-183 90.5q-167 61 -242.5 135t-75.5 181q0 114 97.5 194t255.5 80q171 0 315 -102q-32 -55 -59 -97q-120 88 -252 88q-99 0 -149 -40.5t-50 -102.5q0 -58 43.5 -96t153.5 -80l108 -45 q124 -53 189 -123t65 -184q0 -137 -108 -220t-277 -83q-108 0 -198 36.5t-152 96.5z" />
<glyph unicode="t" horiz-adv-x="690" d="M45 930v114h168v328h166v-328h237v-114h-237v-660q0 -85 26.5 -126.5t106.5 -41.5q56 0 98 17q9 -61 15 -113q-79 -18 -131 -18q-87 0 -143 16t-86 51.5t-41 80.5t-11 114v680h-168z" />
<glyph unicode="u" horiz-adv-x="1144" d="M156 291v753h166v-694q0 -127 46 -186.5t160 -59.5q77 0 153 47.5t130 129.5v763h168v-1044h-168v178q-64 -98 -156.5 -148t-193.5 -50q-82 0 -142.5 26t-94.5 71t-50 98t-18 116z" />
<glyph unicode="v" horiz-adv-x="958" d="M35 1044h182q230 -682 283 -835l280 835h144q-81 -223 -377 -1046h-135q-63 174 -188.5 523t-188.5 523z" />
<glyph unicode="w" horiz-adv-x="1445" d="M43 1044h176l139 -487l91 -330h2l231 817h127q98 -359 229 -817l230 817h135l-320 -1044h-131l-227 815q-45 -153 -125 -436.5t-108 -378.5h-130z" />
<glyph unicode="x" horiz-adv-x="952" d="M37 0l354 537l-323 507h190l236 -387l245 387h150l-326 -489q84 -133 352 -555h-188l-266 430l-277 -430h-147z" />
<glyph unicode="y" horiz-adv-x="974" d="M35 1044h182l295 -819h2l283 819h143q-45 -120 -418 -1138q-30 -82 -55.5 -131.5t-62.5 -87t-86 -53t-119 -15.5l-76 88q22 -3 43 -3q104 0 163 72t103 222q-51 135 -397 1046z" />
<glyph unicode="z" horiz-adv-x="931" d="M61 0v92l590 838h-547v114h750v-94l-592 -835h623v-115h-824z" />
<glyph unicode="{" horiz-adv-x="747" d="M55 516v86q145 1 193.5 66t48.5 231v199q0 82 4.5 136t19 107.5t41.5 86t71 59t109.5 39t155.5 14.5v-96q-73 0 -120 -15t-72.5 -48.5t-35 -77.5t-9.5 -111v-184q0 -154 -20.5 -240t-64 -131.5t-128.5 -77.5q121 -40 167 -119.5t46 -244.5v-199q0 -55 1 -89t5 -70 t10 -55.5t19 -40t29 -30t42 -18.5t56.5 -13t74.5 -6v-94q-70 0 -124 5.5t-95.5 20t-70.5 31.5t-49.5 47.5t-32.5 61t-18.5 79t-8.5 94t-2 112.5v194q0 161 -52.5 225.5t-189.5 65.5z" />
<glyph unicode="|" horiz-adv-x="886" d="M375 -434v1984h135v-1984h-135z" />
<glyph unicode="}" horiz-adv-x="747" d="M47 -326q35 2 63 5t51 10t40.5 14t30.5 20t22 24.5t15.5 32.5t10 37.5t5 46.5t2 53.5t0.5 62.5v165q0 205 41.5 289t171.5 125q-91 34 -134 78t-61 122t-18 228v154q0 53 -1.5 85t-6 69t-14.5 57.5t-26.5 41.5t-42 31t-61.5 16.5t-84 6.5q0 30 -4 92q58 -2 141 -10 q64 -8 110 -26t74 -53.5t45 -67.5t24 -92.5t8.5 -102t1.5 -121.5v-229q5 -130 57.5 -182.5t183.5 -53.5v-86q-75 -1 -123.5 -19.5t-74 -58t-34.5 -88.5t-9 -125v-166q0 -77 -2 -129t-9 -104t-19 -84t-33.5 -62.5t-50.5 -47t-71.5 -30t-95 -18t-123.5 -4.5v94z" />
<glyph unicode="~" horiz-adv-x="1187" d="M162 801q75 174 233 174h23q46 -4 192.5 -70.5t184.5 -66.5q68 0 116.5 35t69.5 90q29 -41 45 -68q-79 -176 -233 -176q-4 0 -12.5 1t-12.5 1q-44 3 -190 70t-183 67q-110 0 -188 -123q-20 25 -45 66z" />
<glyph unicode="&#xa2;" horiz-adv-x="1048" d="M117 612q0 113 28.5 206.5t76 155t110.5 104t129 61t135 18.5q33 0 49 -2l45 213h94l-49 -227q113 -36 209 -160l-82 -78q-71 100 -155 125q-9 -42 -76 -356t-101 -479q34 -9 74 -9q83 0 142 33t118 115l82 -74q-72 -97 -155.5 -142.5t-198.5 -45.5q-41 0 -86 10 l-55 -254h-95l62 276q-142 53 -221.5 185t-79.5 325zM289 616q0 -289 157 -393q82 369 162 738q0 13 -2 40t-2 41q-67 -2 -121.5 -26t-99 -72.5t-69.5 -132t-25 -195.5z" />
<glyph unicode="&#xa5;" horiz-adv-x="1142" d="M45 1434h188l357 -658l356 658h152q-212 -372 -420 -744h321v-100h-346v-199h346v-100h-346v-291h-166v291h-342v100h342v199h-342v100h320z" />
<glyph unicode="&#xa6;" horiz-adv-x="886" d="M375 -358v776h135v-776h-135zM375 696v779h135v-779h-135z" />
<glyph unicode="&#xa7;" horiz-adv-x="991" d="M127 592q0 91 56 167.5t161 160.5q-76 60 -117.5 103t-64.5 92.5t-23 107.5q0 127 108.5 214t270.5 87q225 0 334 -178q-2 -1 -33.5 -28.5t-48.5 -41.5q-83 133 -248 133q-111 0 -169 -47.5t-58 -118.5q0 -64 55 -123.5t209 -161.5q67 -45 104 -71t81 -60.5t66 -60 t43 -58.5t28.5 -66.5t7.5 -74.5q0 -82 -52 -159.5t-163 -171.5q118 -88 159 -155.5t41 -152.5q0 -125 -106 -218t-268 -93q-230 0 -355 190l84 68q71 -143 265 -143q62 0 108 16.5t70.5 44.5t35.5 57.5t11 61.5q0 64 -52.5 122.5t-215.5 172.5q-96 64 -150.5 105.5t-97.5 88 t-59.5 91t-16.5 100.5zM270 627q0 -42 16.5 -78t51 -68t68 -56t88.5 -61.5t90 -64.5q84 62 124 116.5t40 119.5q0 41 -16.5 75.5t-58 72t-87 70.5t-128.5 88q-17 11 -26 17q-80 -58 -121 -113t-41 -118z" />
<glyph unicode="&#xa8;" horiz-adv-x="858" d="M233 1255q0 41 30 71t73 30q42 0 72 -30t30 -71q0 -43 -29.5 -73.5t-72.5 -30.5t-73 30.5t-30 73.5zM571 1255q0 41 30 71t73 30q42 0 72 -30t30 -71q0 -43 -29.5 -73.5t-72.5 -30.5t-73 30.5t-30 73.5z" />
<glyph unicode="&#xa9;" horiz-adv-x="1757" d="M90 717q0 161 62 307.5t167.5 252t252 168t307.5 62.5q215 0 396.5 -105.5t286.5 -287t105 -397.5q0 -125 -40 -244t-113 -217t-169.5 -172.5t-217 -116t-248.5 -41.5q-161 0 -307.5 62.5t-252 168.5t-167.5 252.5t-62 307.5zM174 717q0 -145 55.5 -276.5t150 -226.5 t225 -151.5t274.5 -56.5q145 0 275.5 56t224.5 151.5t149 227t55 276.5q0 186 -94 349.5t-257 262t-353 98.5q-192 0 -354.5 -95t-256.5 -258.5t-94 -356.5zM487 725q0 221 115.5 353t298.5 132q100 0 172.5 -45t112.5 -116q-46 -40 -70 -64q-74 123 -205 123 q-120 0 -194 -98.5t-74 -276.5q0 -182 70 -284.5t186 -102.5q128 0 219 137q4 -8 36 -31.5t38 -31.5q-41 -77 -123.5 -126.5t-194.5 -49.5q-172 0 -279.5 131t-107.5 350z" />
<glyph unicode="&#xaa;" horiz-adv-x="729" d="M66 922q0 109 103.5 174t330.5 114q0 75 -28.5 113.5t-104.5 38.5q-120 0 -222 -84l-55 74q126 102 295 102q115 0 178.5 -51.5t63.5 -177.5v-293q3 -114 24 -178h-135q-9 48 -12 92q-111 -107 -236 -107q-95 0 -148.5 51t-53.5 132zM193 934q0 -57 65 -57q0 -41 57 -41 q101 0 174 98q11 75 11 196q-149 -30 -228 -76.5t-79 -119.5z" />
<glyph unicode="&#xab;" horiz-adv-x="931" d="M68 590q232 392 268 454h115l-209 -454l209 -457h-115zM444 590l269 454h114q-36 -76 -105.5 -227t-105.5 -227q31 -66 101.5 -220t109.5 -237h-114z" />
<glyph unicode="&#xad;" horiz-adv-x="659" d="M109 518v137h442v-137h-442z" />
<glyph unicode="&#xae;" horiz-adv-x="1378" d="M90 907q0 122 47 233.5t127 191.5t191.5 127.5t234.5 47.5q122 0 232.5 -47.5t190 -127.5t126.5 -191.5t47 -233.5q0 -157 -79.5 -295.5t-218 -222.5t-300.5 -84q-163 0 -301 80.5t-217.5 219t-79.5 302.5zM162 907q0 -145 70 -267.5t191.5 -193.5t266.5 -71 q144 0 264.5 71t190 193.5t69.5 267.5q0 140 -69 262t-191 195.5t-266 73.5t-265 -70.5t-191 -193t-70 -267.5zM461 575v685h252q103 0 164 -47t61 -134q0 -74 -42.5 -121t-117.5 -65l191 -318h-115l-172 302h-119v-302h-102zM563 944h125q148 0 148 127q0 66 -42 91.5 t-124 25.5h-107v-244z" />
<glyph unicode="&#xaf;" horiz-adv-x="851" d="M129 1233v119h594v-119h-594z" />
<glyph unicode="&#xb0;" horiz-adv-x="817" d="M117 1167q0 122 84.5 205.5t206.5 83.5q124 0 208 -83t84 -206q0 -119 -84.5 -204.5t-207.5 -85.5q-122 0 -206.5 83.5t-84.5 206.5zM219 1167q0 -83 54.5 -138.5t134.5 -55.5q82 0 136 55.5t54 138.5q0 80 -54 136.5t-136 56.5q-80 0 -134.5 -55t-54.5 -138z" />
<glyph unicode="&#xb1;" horiz-adv-x="1329" d="M137 170v123h1059v-123h-1059zM137 901v123h469v467h123v-467h467v-123h-467v-469h-123v469h-469z" />
<glyph unicode="&#xb2;" horiz-adv-x="739" d="M74 604v55q44 94 107.5 174.5t168.5 159.5q78 65 113 114.5t35 109.5q0 67 -43.5 102t-104.5 35q-54 0 -101.5 -29.5t-80.5 -75.5l-70 64q100 139 269 139q125 0 194.5 -64t69.5 -163q0 -81 -47 -150t-158 -151q-151 -113 -201 -205h418v-115h-569z" />
<glyph unicode="&#xb3;" horiz-adv-x="739" d="M68 715l65 69q86 -96 197 -96q87 0 134.5 44.5t47.5 111.5q0 90 -62.5 123.5t-173.5 33.5h-49v91h74q91 3 137.5 35t46.5 102q0 57 -37.5 90t-107.5 33q-99 0 -180 -74l-62 72q110 102 256 102q129 0 194.5 -61.5t65.5 -147.5q0 -71 -40.5 -119t-98.5 -69 q168 -55 168 -213q0 -107 -82 -179.5t-217 -72.5q-161 0 -276 125z" />
<glyph unicode="&#xb4;" horiz-adv-x="851" d="M272 1192q166 147 265 276q29 38 73 38q31 0 56 -17.5t30 -42.5q5 -22 5 -35q0 -30 -17.5 -50t-58.5 -38q-110 -43 -289 -166z" />
<glyph unicode="&#xb5;" horiz-adv-x="1165" d="M170 223v821h168v-694q0 -119 48 -184.5t144 -65.5q79 0 152.5 45.5t132.5 133.5q14 88 14 266v499h168v-1044h-157q0 119 -2 178q-73 -82 -112 -113q-103 -83 -220 -83q-59 0 -93.5 22.5t-74.5 81.5v-477h-168v614z" />
<glyph unicode="&#xb6;" horiz-adv-x="1153" d="M70 1022q0 85 28 157.5t84.5 130.5t153 91t223.5 33h418v-1895h-105v1802h-194v-1802h-105v1071q-260 7 -380 111q-123 109 -123 301z" />
<glyph unicode="&#xb7;" horiz-adv-x="534" d="M164 666q0 41 29.5 70.5t72.5 29.5t73 -29.5t30 -70.5q0 -43 -30 -74t-73 -31q-42 0 -72 31t-30 74z" />
<glyph unicode="&#xb8;" horiz-adv-x="851" d="M262 -311q16 -4 29 -4q97 0 152 29t55 69q0 37 -43 37q-25 0 -54 -21q-13 20 -63 62l57 114l74 27q-5 -23 -8 -65q54 0 107 -35t53 -95q0 -81 -86 -131.5t-193 -50.5q-28 0 -74 8z" />
<glyph unicode="&#xb9;" horiz-adv-x="696" d="M125 1333q125 36 221 105h100v-834h-129v707q-61 -35 -170 -68z" />
<glyph unicode="&#xba;" horiz-adv-x="765" d="M63 1094q0 91 36.5 172.5t112 135.5t173.5 54q142 0 228.5 -96t86.5 -258q0 -166 -90 -264.5t-231 -98.5q-136 0 -226 95.5t-90 259.5zM199 1098q0 -43 9.5 -87t29 -86.5t57 -69t86.5 -26.5q50 0 87 25.5t57.5 67t30 86.5t9.5 92q0 49 -10 94.5t-30 85.5t-56 64t-84 24 q-50 0 -88 -25.5t-58.5 -67.5t-30 -86.5t-9.5 -90.5z" />
<glyph unicode="&#xbb;" horiz-adv-x="931" d="M102 133q39 83 109.5 237t101.5 220q-36 76 -105.5 227t-105.5 227h115l270 -454l-270 -457h-115zM481 133q29 64 99.5 218.5t107.5 238.5q-34 76 -103.5 227t-103.5 227h113l268 -454l-268 -457h-113z" />
<glyph unicode="&#xbc;" horiz-adv-x="1603" d="M125 1333q125 36 221 105h100v-834h-129v707q-61 -35 -170 -68zM309 -10l893 1452h123l-893 -1452h-123zM901 221v76l381 537h115v-515h121v-98h-121v-221h-125v221h-371zM1032 319h242v345z" />
<glyph unicode="&#xbd;" horiz-adv-x="1644" d="M125 1333q125 36 221 105h100v-834h-129v707q-61 -35 -170 -68zM305 -10l893 1452h123l-893 -1452h-123zM977 0v55q87 194 276 334q76 62 111 112.5t35 110.5q0 66 -40 101t-99 35q-116 0 -191 -105l-70 66q100 139 271 139q125 0 194.5 -64.5t69.5 -165.5 q0 -80 -47.5 -149t-159.5 -152q-146 -107 -201 -202h420v-115h-569z" />
<glyph unicode="&#xbe;" horiz-adv-x="1632" d="M68 715l65 69q83 -96 199 -96q85 0 132.5 44.5t47.5 111.5q0 90 -62.5 123.5t-173.5 33.5h-49v91h74q91 3 137.5 35t46.5 102q0 57 -37 90t-106 33q-101 0 -182 -74l-62 72q110 102 256 102q129 0 194.5 -61.5t65.5 -147.5q0 -71 -40.5 -119t-98.5 -69q168 -55 168 -213 q0 -110 -83.5 -180t-221.5 -70q-160 0 -270 123zM336 -10l893 1452h121l-893 -1452h-121zM930 221v76l381 537h112v-515h121v-98h-121v-221h-123v221h-370zM1059 319h241v345q-200 -288 -241 -345z" />
<glyph unicode="&#xbf;" horiz-adv-x="923" d="M76 150q0 60 16.5 110t52.5 93.5t74 76.5t100 78q78 56 113.5 103t46 99t10.5 152h105v-57q0 -128 -39 -216t-143 -171q-49 -39 -74 -62t-47.5 -53.5t-30.5 -62.5t-8 -76q0 -109 75.5 -170.5t202.5 -61.5q158 0 289 131l74 -88q-164 -168 -397 -168q-194 0 -307 98 t-113 245zM444 1167q0 41 30 71t73 30t72.5 -30t29.5 -71q0 -43 -29.5 -73.5t-72.5 -30.5t-73 30.5t-30 73.5z" />
<glyph unicode="&#xc0;" horiz-adv-x="1224" d="M43 0q82 240 248 718.5t248 717.5h145l500 -1436h-187l-153 459h-506q-26 -82 -77.5 -235.5t-74.5 -223.5h-143zM219 1835q0 32 20.5 49.5t51.5 17.5q54 0 88 -44q104 -135 264 -277l-63 -35q-174 117 -279 156q-45 17 -63.5 47t-18.5 86zM379 578h424 q-35 106 -105.5 316.5t-105.5 317.5h-2q-35 -107 -105.5 -317.5t-105.5 -316.5z" />
<glyph unicode="&#xc1;" horiz-adv-x="1224" d="M43 0q82 240 248 718.5t248 717.5h145l500 -1436h-187l-153 459h-506q-26 -82 -77.5 -235.5t-74.5 -223.5h-143zM379 578h424q-35 106 -105.5 316.5t-105.5 317.5h-2q-35 -107 -105.5 -317.5t-105.5 -316.5zM586 1581q160 142 264 277q28 37 73 37q31 0 56.5 -17.5 t30.5 -42.5q4 -17 4 -35q0 -30 -17.5 -50t-58.5 -38q-110 -43 -289 -166z" />
<glyph unicode="&#xc2;" horiz-adv-x="1224" d="M43 0q82 240 248 718.5t248 717.5h145l500 -1436h-187l-153 459h-506q-26 -82 -77.5 -235.5t-74.5 -223.5h-143zM289 1565l254 258l94 32l297 -290l-68 -31q-42 29 -128 85.5t-128 84.5q-235 -156 -256 -170zM379 578h424q-35 106 -105.5 316.5t-105.5 317.5h-2 q-35 -107 -105.5 -317.5t-105.5 -316.5z" />
<glyph unicode="&#xc3;" horiz-adv-x="1224" d="M43 0q82 240 248 718.5t248 717.5h145l500 -1436h-187l-153 459h-506q-26 -82 -77.5 -235.5t-74.5 -223.5h-143zM276 1577q13 90 62.5 150.5t130.5 60.5q39 0 161 -55.5t138 -55.5q36 0 58 23t38 86l84 -19q-14 -94 -63 -152.5t-127 -58.5q-13 0 -25.5 1.5t-27.5 6.5 t-24.5 8t-29 12.5t-28.5 14t-35 18.5t-37 19q-69 31 -94 31q-40 0 -61 -24t-36 -84zM379 578h424q-35 106 -105.5 316.5t-105.5 317.5h-2q-35 -107 -105.5 -317.5t-105.5 -316.5z" />
<glyph unicode="&#xc4;" horiz-adv-x="1224" d="M43 0q82 240 248 718.5t248 717.5h145l500 -1436h-187l-153 459h-506q-26 -82 -77.5 -235.5t-74.5 -223.5h-143zM340 1645q0 41 29.5 70.5t72.5 29.5t73 -29.5t30 -70.5q0 -43 -30 -74t-73 -31q-42 0 -72 31t-30 74zM379 578h424q-35 106 -105.5 316.5t-105.5 317.5h-2 q-35 -107 -105.5 -317.5t-105.5 -316.5zM678 1645q0 41 29.5 70.5t72.5 29.5t73 -29.5t30 -70.5q0 -43 -30 -74t-73 -31q-42 0 -72 31t-30 74z" />
<glyph unicode="&#xc5;" horiz-adv-x="1224" d="M43 0q82 240 248 718.5t248 717.5h145l500 -1436h-187l-153 459h-506q-26 -82 -77.5 -235.5t-74.5 -223.5h-143zM379 578h424q-35 106 -105.5 316.5t-105.5 317.5h-2q-35 -107 -105.5 -317.5t-105.5 -316.5zM422 1710q0 80 55.5 135.5t134.5 55.5q78 0 134.5 -56 t56.5 -135q0 -78 -56.5 -134t-134.5 -56q-79 0 -134.5 56t-55.5 134zM510 1712q0 -43 29 -73.5t71 -30.5q43 0 74 30.5t31 73.5q0 42 -31 71t-74 29t-71.5 -28.5t-28.5 -71.5z" />
<glyph unicode="&#xc6;" horiz-adv-x="1783" d="M29 0l688 1434h964v-129h-626v-492h514v-125h-514v-559h651v-129h-823v553h-447l-252 -553h-155zM496 678h387v637h-76q-310 -635 -311 -637z" />
<glyph unicode="&#xc7;" horiz-adv-x="1204" d="M104 717q0 151 40.5 284t115.5 234t191 160t258 59q281 0 428 -262l-95 -74q-48 94 -124 150.5t-177 56.5q-205 0 -326.5 -161t-121.5 -443q0 -291 115.5 -455t300.5 -164q119 0 207 61.5t137 168.5q70 -49 98 -70q-73 -138 -179 -209.5t-261 -77.5l22 -106q25 14 55 14 q31 0 51.5 -17.5t20.5 -51.5q0 -56 -59 -100t-128.5 -63.5t-123.5 -19.5q-31 0 -43 2l-6 56q16 -4 26 -4q90 0 149.5 28t59.5 70q0 20 -11 33t-35 19.5t-39 8.5t-46 4l-22 127q-223 52 -350.5 255t-127.5 487z" />
<glyph unicode="&#xc8;" horiz-adv-x="1095" d="M190 0v1434h803v-129h-626v-492h514v-125h-514v-559h651v-129h-828zM336 1835q0 32 20.5 49.5t51.5 17.5q54 0 88 -44q104 -135 264 -277l-64 -35q-59 40 -91 60t-85 49t-102 47q-45 17 -63.5 47t-18.5 86z" />
<glyph unicode="&#xc9;" horiz-adv-x="1095" d="M190 0v1434h803v-129h-626v-492h514v-125h-514v-559h651v-129h-828zM328 1581q160 142 264 277q28 37 73 37q31 0 56.5 -17.5t30.5 -42.5q4 -17 4 -35q0 -30 -17.5 -50t-58.5 -38q-110 -43 -289 -166z" />
<glyph unicode="&#xca;" horiz-adv-x="1095" d="M190 0v1434h803v-129h-626v-492h514v-125h-514v-559h651v-129h-828zM225 1565l254 258l94 32l297 -290l-67 -31q-42 29 -128 85.5t-128 84.5q-235 -156 -256 -170z" />
<glyph unicode="&#xcb;" horiz-adv-x="1095" d="M190 0v1434h803v-129h-626v-492h514v-125h-514v-559h651v-129h-828zM276 1645q0 41 30 70.5t73 29.5t72.5 -29.5t29.5 -70.5q0 -43 -30 -74t-72 -31q-43 0 -73 31t-30 74zM614 1645q0 41 30 70.5t73 29.5t72.5 -29.5t29.5 -70.5q0 -43 -30 -74t-72 -31q-43 0 -73 31 t-30 74z" />
<glyph unicode="&#xcc;" horiz-adv-x="577" d="M78 1835q0 32 20.5 49.5t51.5 17.5q54 0 88 -44q104 -135 264 -277l-64 -35q-59 40 -91 60t-85 49t-102 47q-45 17 -63.5 47t-18.5 86zM201 0v1434h176v-1434h-176z" />
<glyph unicode="&#xcd;" horiz-adv-x="577" d="M70 1581q160 142 264 277q28 37 73 37q31 0 56.5 -17.5t30.5 -42.5q4 -17 4 -35q0 -30 -17.5 -50t-58.5 -38q-110 -43 -289 -166zM201 0v1434h176v-1434h-176z" />
<glyph unicode="&#xce;" horiz-adv-x="577" d="M-33 1565l254 258l94 32l297 -290l-67 -31q-42 29 -128 85.5t-128 84.5q-235 -156 -256 -170zM201 0v1434h176v-1434h-176z" />
<glyph unicode="&#xcf;" horiz-adv-x="577" d="M18 1645q0 41 30 70.5t73 29.5t72.5 -29.5t29.5 -70.5q0 -43 -30 -74t-72 -31q-43 0 -73 31t-30 74zM201 0v1434h176v-1434h-176zM356 1645q0 41 30 70.5t73 29.5t72.5 -29.5t29.5 -70.5q0 -43 -30 -74t-72 -31q-43 0 -73 31t-30 74z" />
<glyph unicode="&#xd0;" horiz-adv-x="1359" d="M23 684v109h167v641h365q166 0 294.5 -36t221.5 -128q95 -95 137.5 -237.5t42.5 -297.5q0 -223 -75 -391t-226 -256q-147 -88 -413 -88h-347v684h-167zM367 125h184q91 0 161.5 13t140 52.5t114 105t72.5 177t28 262.5q0 116 -17 207t-50.5 152.5t-77 104t-102 66 t-119.5 33t-136 9.5h-198v-514h292v-109h-292v-559z" />
<glyph unicode="&#xd1;" horiz-adv-x="1411" d="M190 0v1434h146l741 -1127h2v1127h142v-1434h-131l-756 1145h-2v-1145h-142zM369 1577q13 90 62 150.5t130 60.5q39 0 161 -55.5t138 -55.5q36 0 58 23t38 86l84 -19q-14 -94 -63 -152.5t-127 -58.5q-13 0 -25.5 1.5t-27.5 6.5t-24.5 8t-29 12.5t-28.5 14t-35 18.5 t-37 19q-69 31 -94 31q-40 0 -60.5 -24t-35.5 -84z" />
<glyph unicode="&#xd2;" d="M104 715q0 83 23 164q17 139 69 249.5t128.5 181.5t171.5 108.5t202 37.5q116 0 219 -45t185 -132t130 -230t48 -324q0 -173 -45 -315.5t-124 -237t-187.5 -146t-235.5 -51.5q-124 0 -230.5 50t-185 142.5t-123.5 233.5t-45 314zM291 713q0 -79 18 -140 q26 -238 131 -356.5t252 -118.5q64 0 121.5 21t109.5 68.5t89.5 118t59.5 175.5t22 234q0 114 -22.5 220t-68 197t-125 146t-182.5 55q-185 0 -295 -161t-110 -459zM479 1835q0 32 20.5 49.5t51.5 17.5q54 0 88 -44q104 -135 264 -277l-63 -35q-174 117 -279 156 q-45 17 -63.5 47t-18.5 86z" />
<glyph unicode="&#xd3;" d="M104 715q0 83 23 164q17 139 69 249.5t128.5 181.5t171.5 108.5t202 37.5q116 0 219 -45t185 -132t130 -230t48 -324q0 -173 -45 -315.5t-124 -237t-187.5 -146t-235.5 -51.5q-124 0 -230.5 50t-185 142.5t-123.5 233.5t-45 314zM291 713q0 -79 18 -140 q26 -238 131 -356.5t252 -118.5q64 0 121.5 21t109.5 68.5t89.5 118t59.5 175.5t22 234q0 114 -22.5 220t-68 197t-125 146t-182.5 55q-185 0 -295 -161t-110 -459zM473 1581q160 142 264 277q28 37 73 37q31 0 56.5 -17.5t30.5 -42.5q5 -22 5 -35q0 -30 -18 -50t-59 -38 q-108 -42 -288 -166z" />
<glyph unicode="&#xd4;" d="M104 715q0 83 23 164q17 139 69 249.5t128.5 181.5t171.5 108.5t202 37.5q116 0 219 -45t185 -132t130 -230t48 -324q0 -173 -45 -315.5t-124 -237t-187.5 -146t-235.5 -51.5q-124 0 -230.5 50t-185 142.5t-123.5 233.5t-45 314zM291 713q0 -79 18 -140 q26 -238 131 -356.5t252 -118.5q64 0 121.5 21t109.5 68.5t89.5 118t59.5 175.5t22 234q0 114 -22.5 220t-68 197t-125 146t-182.5 55q-185 0 -295 -161t-110 -459zM369 1565l254 258l94 32l297 -290l-68 -31q-42 29 -128 85.5t-128 84.5q-235 -156 -256 -170z" />
<glyph unicode="&#xd5;" d="M104 715q0 83 23 164q17 139 69 249.5t128.5 181.5t171.5 108.5t202 37.5q116 0 219 -45t185 -132t130 -230t48 -324q0 -173 -45 -315.5t-124 -237t-187.5 -146t-235.5 -51.5q-124 0 -230.5 50t-185 142.5t-123.5 233.5t-45 314zM291 713q0 -79 18 -140 q26 -238 131 -356.5t252 -118.5q64 0 121.5 21t109.5 68.5t89.5 118t59.5 175.5t22 234q0 114 -22.5 220t-68 197t-125 146t-182.5 55q-185 0 -295 -161t-110 -459zM356 1577q13 90 62.5 150.5t130.5 60.5q39 0 161 -55.5t138 -55.5q36 0 58 23t38 86l84 -19 q-14 -94 -63 -152.5t-127 -58.5q-13 0 -25.5 1.5t-27.5 6.5t-24.5 8t-29 12.5t-28.5 14t-35 18.5t-37 19q-69 31 -94 31q-40 0 -61 -24t-36 -84z" />
<glyph unicode="&#xd6;" d="M104 715q0 83 23 164q17 139 69 249.5t128.5 181.5t171.5 108.5t202 37.5q116 0 219 -45t185 -132t130 -230t48 -324q0 -173 -45 -315.5t-124 -237t-187.5 -146t-235.5 -51.5q-124 0 -230.5 50t-185 142.5t-123.5 233.5t-45 314zM291 713q0 -79 18 -140 q26 -238 131 -356.5t252 -118.5q64 0 121.5 21t109.5 68.5t89.5 118t59.5 175.5t22 234q0 114 -22.5 220t-68 197t-125 146t-182.5 55q-185 0 -295 -161t-110 -459zM420 1645q0 41 29.5 70.5t72.5 29.5t73 -29.5t30 -70.5q0 -43 -30 -74t-73 -31q-42 0 -72 31t-30 74z M758 1645q0 41 29.5 70.5t72.5 29.5t73 -29.5t30 -70.5q0 -43 -30 -74t-73 -31q-42 0 -72 31t-30 74z" />
<glyph unicode="&#xd7;" horiz-adv-x="1333" d="M199 281l381 378l-381 383l84 86l383 -385l383 385l84 -86l-383 -380l380 -381l-83 -86l-381 380l-381 -380z" />
<glyph unicode="&#xd8;" d="M104 715q0 332 165.5 536.5t428.5 204.5q213 0 357 -133l123 176l98 -31q-97 -137 -150 -217q74 -94 114 -230.5t40 -295.5q0 -341 -164 -545.5t-428 -204.5q-207 0 -356 134l-123 -175l-100 31l151 217q-156 206 -156 533zM291 713q0 -222 78 -379l598 858 q-110 143 -271 143q-184 0 -294.5 -162t-110.5 -460zM420 240q43 -64 114.5 -104t157.5 -40q84 0 155.5 38t127 112.5t87.5 194.5t32 274q0 229 -76 381z" />
<glyph unicode="&#xd9;" horiz-adv-x="1366" d="M174 518v916h176v-803q0 -92 6.5 -161t28 -141.5t58 -119t100.5 -76t153 -29.5q65 0 117 14t88.5 37t63 61t42.5 79.5t25 98.5t12 111t3 124v805h145v-930q-1 -75 -16 -145.5t-52.5 -141.5t-94 -123t-147.5 -84.5t-206 -32.5q-73 0 -138.5 13.5t-134 51t-117.5 96 t-80.5 156.5t-31.5 224zM471 1835q0 32 20.5 49.5t51.5 17.5q54 0 88 -44q104 -135 264 -277l-64 -35q-59 40 -91 60t-85 49t-102 47q-45 17 -63.5 47t-18.5 86z" />
<glyph unicode="&#xda;" horiz-adv-x="1366" d="M174 518v916h176v-803q0 -92 6.5 -161t28 -141.5t58 -119t100.5 -76t153 -29.5q65 0 117 14t88.5 37t63 61t42.5 79.5t25 98.5t12 111t3 124v805h145v-930q-1 -75 -16 -145.5t-52.5 -141.5t-94 -123t-147.5 -84.5t-206 -32.5q-73 0 -138.5 13.5t-134 51t-117.5 96 t-80.5 156.5t-31.5 224zM463 1581q160 142 264 277q28 37 73 37q31 0 56.5 -17.5t30.5 -42.5q4 -17 4 -35q0 -30 -17.5 -50t-58.5 -38q-110 -43 -289 -166z" />
<glyph unicode="&#xdb;" horiz-adv-x="1366" d="M174 518v916h176v-803q0 -92 6.5 -161t28 -141.5t58 -119t100.5 -76t153 -29.5q65 0 117 14t88.5 37t63 61t42.5 79.5t25 98.5t12 111t3 124v805h145v-930q-1 -75 -16 -145.5t-52.5 -141.5t-94 -123t-147.5 -84.5t-206 -32.5q-73 0 -138.5 13.5t-134 51t-117.5 96 t-80.5 156.5t-31.5 224zM360 1565l254 258l95 32l297 -290l-68 -31q-42 29 -128 85.5t-128 84.5q-235 -156 -256 -170z" />
<glyph unicode="&#xdc;" horiz-adv-x="1366" d="M174 518v916h176v-803q0 -92 6.5 -161t28 -141.5t58 -119t100.5 -76t153 -29.5q65 0 117 14t88.5 37t63 61t42.5 79.5t25 98.5t12 111t3 124v805h145v-930q-1 -75 -16 -145.5t-52.5 -141.5t-94 -123t-147.5 -84.5t-206 -32.5q-73 0 -138.5 13.5t-134 51t-117.5 96 t-80.5 156.5t-31.5 224zM412 1645q0 41 29.5 70.5t72.5 29.5t72.5 -29.5t29.5 -70.5q0 -43 -30 -74t-72 -31t-72 31t-30 74zM750 1645q0 41 29.5 70.5t72.5 29.5t72.5 -29.5t29.5 -70.5q0 -43 -30 -74t-72 -31t-72 31t-30 74z" />
<glyph unicode="&#xdd;" horiz-adv-x="1136" d="M25 1434h198l369 -670l366 670h154l-457 -797v-637h-174v637zM348 1581q160 142 264 277q28 37 73 37q31 0 56.5 -17.5t30.5 -42.5q5 -22 5 -35q0 -30 -18 -50t-59 -38q-108 -42 -288 -166z" />
<glyph unicode="&#xde;" horiz-adv-x="1216" d="M190 0v1434h177v-295h297q121 -2 212 -31.5t146.5 -81.5t83 -120t27.5 -150q0 -98 -32.5 -173t-83.5 -120t-123 -73.5t-142.5 -39t-149.5 -10.5h-235v-340h-177zM367 467h184q79 0 133 5t108 22.5t85.5 48t51 83.5t19.5 128q0 65 -17.5 112.5t-46.5 75.5t-74.5 44.5 t-92.5 22t-109 5.5h-241v-547z" />
<glyph unicode="&#xdf;" horiz-adv-x="1169" d="M166 0v950q0 88 2 127q6 216 125.5 324t306.5 108q175 0 283 -88.5t108 -253.5q0 -52 -12.5 -93.5t-29 -67t-49 -49.5t-57 -36.5t-69 -33.5t-69.5 -35l25 -14q24 -15 38 -23.5t45 -30t51.5 -38t51 -44.5t51 -53.5t44 -60t37.5 -68.5t23.5 -75t9.5 -83q0 -176 -104.5 -279 t-263.5 -103q-158 0 -271 81l62 97q86 -66 203 -66q103 0 165 74.5t62 187.5q0 53 -24 104.5t-60 91t-86.5 79.5t-93 67t-90.5 57.5t-70 47.5q0 58 40 106t114 62q89 12 132.5 63t43.5 131q0 33 -7 64t-25 62.5t-45 55t-70 38t-97 14.5q-65 0 -114 -23.5t-76.5 -59t-45 -86 t-23 -96t-5.5 -96.5v-1036h-166z" />
<glyph unicode="&#xe0;" horiz-adv-x="1048" d="M80 250q0 158 154 259t495 179v43q0 112 -54.5 162.5t-164.5 50.5q-164 0 -324 -121l-61 95q191 145 420 145q167 0 257.5 -78t90.5 -266v-352q0 -138 6 -220.5t25 -146.5h-168q-15 76 -21 166q-141 -184 -364 -184q-137 0 -214 75.5t-77 192.5zM248 268q0 -79 54 -123.5 t128 -44.5q83 0 165 39t134 105v346q-269 -69 -375 -142t-106 -180zM311 1446q0 32 20.5 49t51.5 17q54 0 88 -44q101 -132 264 -276l-63 -35q-174 117 -279 156q-45 17 -63.5 47t-18.5 86z" />
<glyph unicode="&#xe1;" horiz-adv-x="1048" d="M80 250q0 158 154 259t495 179v43q0 112 -54.5 162.5t-164.5 50.5q-164 0 -324 -121l-61 95q191 145 420 145q167 0 257.5 -78t90.5 -266v-352q0 -138 6 -220.5t25 -146.5h-168q-15 76 -21 166q-141 -184 -364 -184q-137 0 -214 75.5t-77 192.5zM248 268q0 -79 54 -123.5 t128 -44.5q83 0 165 39t134 105v346q-269 -69 -375 -142t-106 -180zM305 1192q163 144 264 276q29 38 73 38q31 0 56.5 -17.5t30.5 -42.5q5 -22 5 -35q0 -30 -18 -50t-59 -38q-108 -42 -288 -166z" />
<glyph unicode="&#xe2;" horiz-adv-x="1048" d="M80 250q0 158 154 259t495 179v43q0 112 -54.5 162.5t-164.5 50.5q-164 0 -324 -121l-61 95q191 145 420 145q167 0 257.5 -78t90.5 -266v-352q0 -138 6 -220.5t25 -146.5h-168q-15 76 -21 166q-141 -184 -364 -184q-137 0 -214 75.5t-77 192.5zM201 1176l254 258l94 32 l297 -290l-68 -31q-42 28 -128 85t-128 85q-235 -156 -256 -170zM248 268q0 -79 54 -123.5t128 -44.5q83 0 165 39t134 105v346q-269 -69 -375 -142t-106 -180z" />
<glyph unicode="&#xe3;" horiz-adv-x="1048" d="M80 250q0 158 154 259t495 179v43q0 112 -54.5 162.5t-164.5 50.5q-164 0 -324 -121l-61 95q191 145 420 145q167 0 257.5 -78t90.5 -266v-352q0 -138 6 -220.5t25 -146.5h-168q-15 76 -21 166q-141 -184 -364 -184q-137 0 -214 75.5t-77 192.5zM188 1188 q13 90 62.5 150.5t130.5 60.5q39 0 161 -55.5t138 -55.5q36 0 58 23t38 86l84 -19q-14 -94 -63 -152.5t-127 -58.5q-13 0 -25.5 1.5t-27.5 6.5t-24.5 8t-29 12.5t-28.5 14t-35 18.5t-37 19q-69 31 -94 31q-40 0 -61 -24.5t-36 -84.5zM248 268q0 -79 54 -123.5t128 -44.5 q83 0 165 39t134 105v346q-269 -69 -375 -142t-106 -180z" />
<glyph unicode="&#xe4;" horiz-adv-x="1048" d="M80 250q0 158 154 259t495 179v43q0 112 -54.5 162.5t-164.5 50.5q-164 0 -324 -121l-61 95q191 145 420 145q167 0 257.5 -78t90.5 -266v-352q0 -138 6 -220.5t25 -146.5h-168q-15 76 -21 166q-141 -184 -364 -184q-137 0 -214 75.5t-77 192.5zM248 268q0 -79 54 -123.5 t128 -44.5q83 0 165 39t134 105v346q-269 -69 -375 -142t-106 -180zM252 1255q0 41 30 71t72 30q43 0 73 -30t30 -71q0 -43 -30 -73.5t-73 -30.5t-72.5 30.5t-29.5 73.5zM590 1255q0 41 30 71t72 30q43 0 73 -30t30 -71q0 -43 -30 -73.5t-73 -30.5t-72.5 30.5t-29.5 73.5z " />
<glyph unicode="&#xe5;" horiz-adv-x="1048" d="M80 250q0 158 154 259t495 179v43q0 112 -54.5 162.5t-164.5 50.5q-164 0 -324 -121l-61 95q191 145 420 145q167 0 257.5 -78t90.5 -266v-352q0 -138 6 -220.5t25 -146.5h-168q-15 76 -21 166q-141 -184 -364 -184q-137 0 -214 75.5t-77 192.5zM248 268q0 -79 54 -123.5 t128 -44.5q83 0 165 39t134 105v346q-269 -69 -375 -142t-106 -180zM334 1321q0 79 55 134.5t135 55.5q78 0 134.5 -55.5t56.5 -134.5q0 -78 -56.5 -134.5t-134.5 -56.5q-79 0 -134.5 56.5t-55.5 134.5zM422 1323q0 -43 29 -73.5t71 -30.5q43 0 74 30.5t31 73.5q0 42 -31 71 t-74 29t-71.5 -28.5t-28.5 -71.5z" />
<glyph unicode="&#xe6;" horiz-adv-x="1650" d="M78 248q0 156 151.5 259t495.5 181v47q0 213 -211 213q-172 0 -330 -125l-61 95q195 147 412 147q228 0 307 -178q54 84 140 131t185 47q85 0 156 -30t127.5 -91.5t88.5 -166t32 -242.5h-684q0 -222 85 -331.5t220 -109.5q160 0 283 144l73 -84q-144 -174 -379 -174 q-118 0 -220.5 58.5t-160.5 176.5q-160 -235 -413 -235q-143 0 -220 77.5t-77 190.5zM244 266q0 -81 55 -124.5t135 -43.5q158 0 285 162q6 58 6 162v100v68q-269 -69 -375 -143t-106 -181zM891 637h516q-3 150 -67.5 234.5t-176.5 84.5q-97 0 -175 -78.5t-97 -240.5z" />
<glyph unicode="&#xe7;" horiz-adv-x="958" d="M94 520q0 133 39.5 239.5t106 171t148.5 98.5t173 34q119 0 205.5 -49.5t134.5 -124.5l-82 -78q-83 137 -239 137q-131 0 -220.5 -108.5t-89.5 -313.5t84 -319.5t213 -114.5q155 0 254 150l82 -74q-123 -181 -334 -186q21 -58 21 -95v-20q22 16 55 16q31 0 51.5 -18.5 t20.5 -50.5q0 -57 -58.5 -101t-131 -63t-136.5 -19q-21 0 -29 2l-8 56q16 -4 29 -4q17 0 37.5 3.5t45.5 9t34 7.5q90 14 90 78q0 43 -47 55q-28 0 -56 -20q-21 18 -57 43q10 16 34 57.5t38 63.5q-178 15 -293 160.5t-115 377.5z" />
<glyph unicode="&#xe8;" horiz-adv-x="1038" d="M94 522q0 127 38 232t102 171.5t145.5 103t169.5 36.5q105 0 184.5 -41t127.5 -114t71.5 -168t23.5 -210h-686q0 -215 88.5 -323.5t231.5 -108.5q139 0 270 138q11 -14 35.5 -42t36.5 -42q-62 -77 -157 -125.5t-220 -48.5q-197 0 -329 148t-132 394zM274 637h519 q-3 150 -68 234.5t-176 84.5q-44 0 -86 -17t-82 -52t-68.5 -99.5t-38.5 -150.5zM307 1446q0 32 20.5 49t51.5 17q54 0 88 -44q101 -132 264 -276l-63 -35q-174 117 -279 156q-45 17 -63.5 47t-18.5 86z" />
<glyph unicode="&#xe9;" horiz-adv-x="1038" d="M94 522q0 127 38 232t102 171.5t145.5 103t169.5 36.5q105 0 184.5 -41t127.5 -114t71.5 -168t23.5 -210h-686q0 -215 88.5 -323.5t231.5 -108.5q139 0 270 138q11 -14 35.5 -42t36.5 -42q-62 -77 -157 -125.5t-220 -48.5q-197 0 -329 148t-132 394zM274 637h519 q-3 150 -68 234.5t-176 84.5q-44 0 -86 -17t-82 -52t-68.5 -99.5t-38.5 -150.5zM299 1192q163 144 264 276q29 38 73 38q31 0 56.5 -17.5t30.5 -42.5q4 -17 4 -35q0 -30 -17.5 -50t-58.5 -38q-110 -43 -289 -166z" />
<glyph unicode="&#xea;" horiz-adv-x="1038" d="M94 522q0 127 38 232t102 171.5t145.5 103t169.5 36.5q105 0 184.5 -41t127.5 -114t71.5 -168t23.5 -210h-686q0 -215 88.5 -323.5t231.5 -108.5q139 0 270 138q11 -14 35.5 -42t36.5 -42q-62 -77 -157 -125.5t-220 -48.5q-197 0 -329 148t-132 394zM197 1176l254 258 l94 32l297 -290l-68 -31q-42 28 -128 85t-128 85q-235 -156 -256 -170zM274 637h519q-3 150 -68 234.5t-176 84.5q-44 0 -86 -17t-82 -52t-68.5 -99.5t-38.5 -150.5z" />
<glyph unicode="&#xeb;" horiz-adv-x="1038" d="M94 522q0 127 38 232t102 171.5t145.5 103t169.5 36.5q105 0 184.5 -41t127.5 -114t71.5 -168t23.5 -210h-686q0 -215 88.5 -323.5t231.5 -108.5q139 0 270 138q11 -14 35.5 -42t36.5 -42q-62 -77 -157 -125.5t-220 -48.5q-197 0 -329 148t-132 394zM248 1255q0 41 30 71 t72 30q43 0 73 -30t30 -71q0 -43 -30 -73.5t-73 -30.5t-72.5 30.5t-29.5 73.5zM274 637h519q-3 150 -68 234.5t-176 84.5q-44 0 -86 -17t-82 -52t-68.5 -99.5t-38.5 -150.5zM586 1255q0 41 30 71t72 30q43 0 73 -30t30 -71q0 -43 -30 -73.5t-73 -30.5t-72.5 30.5t-29.5 73.5 z" />
<glyph unicode="&#xec;" horiz-adv-x="512" d="M45 1446q0 32 20.5 49t51.5 17q54 0 88 -44q101 -132 264 -276l-63 -35q-174 117 -279 156q-45 17 -63.5 47t-18.5 86zM174 0v1044h166v-1044h-166z" />
<glyph unicode="&#xed;" horiz-adv-x="512" d="M37 1192q163 144 264 276q29 38 73 38q31 0 56.5 -17.5t30.5 -42.5q4 -17 4 -35q0 -30 -17.5 -50t-58.5 -38q-110 -43 -289 -166zM174 0v1044h166v-1044h-166z" />
<glyph unicode="&#xee;" horiz-adv-x="512" d="M-66 1176l254 258l95 32l297 -290l-68 -31q-42 28 -128 85t-128 85q-235 -156 -256 -170zM174 0v1044h166v-1044h-166z" />
<glyph unicode="&#xef;" horiz-adv-x="512" d="M-14 1255q0 41 30 71t72 30t72 -30t30 -71q0 -43 -29.5 -73.5t-72.5 -30.5t-72.5 30.5t-29.5 73.5zM174 0v1044h166v-1044h-166zM324 1255q0 41 30 71t72 30t72 -30t30 -71q0 -43 -29.5 -73.5t-72.5 -30.5t-72.5 30.5t-29.5 73.5z" />
<glyph unicode="&#xf0;" horiz-adv-x="1107" d="M92 514q0 127 36.5 229.5t98 168t141 100.5t167.5 35q93 0 167 -44.5t119 -109.5q-55 208 -184 348l-260 -92l-37 92l227 80q-64 61 -149 121l71 84q106 -61 207 -156l234 82l37 -90q-21 -7 -90.5 -32t-108.5 -38q246 -295 246 -712q0 -123 -30 -230.5t-86.5 -190.5 t-147 -131t-203.5 -48q-207 0 -331 150t-124 384zM266 514q0 -41 8 -91.5t29 -111t51.5 -109t82.5 -81.5t116 -33q77 0 136 40.5t90.5 106.5t47 137.5t15.5 145.5q0 62 -9.5 120t-31.5 112t-54.5 94t-80.5 64t-107 24q-135 0 -214 -110t-79 -308z" />
<glyph unicode="&#xf1;" horiz-adv-x="1144" d="M166 0v1044h166v-178q136 199 352 199q307 0 307 -350v-715h-168v723q0 211 -176 211q-83 0 -158 -49.5t-116 -118t-41 -131.5v-635h-166zM236 1188q13 90 62 150.5t130 60.5q39 0 161 -55.5t138 -55.5q36 0 58 23t38 86l84 -19q-14 -94 -63 -152.5t-127 -58.5 q-13 0 -25.5 1.5t-27.5 6.5t-24.5 8t-29 12.5t-28.5 14t-35 18.5t-37 19q-69 31 -94 31q-40 0 -61 -24.5t-36 -84.5z" />
<glyph unicode="&#xf2;" horiz-adv-x="1112" d="M92 514q0 236 134 393.5t337 157.5q207 0 331 -149t124 -388q0 -252 -130.5 -400t-336.5 -148q-96 0 -179.5 36t-146 102.5t-98 168.5t-35.5 227zM268 520q0 -41 7.5 -91.5t27.5 -112t50.5 -110.5t83 -82.5t118.5 -33.5q63 0 114 27.5t83 71.5t53.5 102.5t30 116.5 t8.5 118q0 79 -15.5 152t-48 136.5t-89.5 101.5t-132 38q-64 0 -115 -27.5t-83 -71.5t-53.5 -102t-30.5 -116t-9 -117zM344 1446q0 32 20.5 49t51.5 17q54 0 88 -44q101 -132 264 -276l-63 -35q-174 117 -279 156q-45 17 -63.5 47t-18.5 86z" />
<glyph unicode="&#xf3;" horiz-adv-x="1112" d="M92 514q0 236 134 393.5t337 157.5q207 0 331 -149t124 -388q0 -252 -130.5 -400t-336.5 -148q-96 0 -179.5 36t-146 102.5t-98 168.5t-35.5 227zM268 520q0 -41 7.5 -91.5t27.5 -112t50.5 -110.5t83 -82.5t118.5 -33.5q63 0 114 27.5t83 71.5t53.5 102.5t30 116.5 t8.5 118q0 79 -15.5 152t-48 136.5t-89.5 101.5t-132 38q-64 0 -115 -27.5t-83 -71.5t-53.5 -102t-30.5 -116t-9 -117zM336 1192q163 144 264 276q29 38 73 38q31 0 56.5 -17.5t30.5 -42.5q4 -17 4 -35q0 -30 -17.5 -50t-58.5 -38q-110 -43 -289 -166z" />
<glyph unicode="&#xf4;" horiz-adv-x="1112" d="M92 514q0 236 134 393.5t337 157.5q207 0 331 -149t124 -388q0 -252 -130.5 -400t-336.5 -148q-96 0 -179.5 36t-146 102.5t-98 168.5t-35.5 227zM233 1176l254 258l95 32l297 -290l-68 -31q-42 28 -128 85t-128 85q-235 -156 -256 -170zM268 520q0 -41 7.5 -91.5 t27.5 -112t50.5 -110.5t83 -82.5t118.5 -33.5q63 0 114 27.5t83 71.5t53.5 102.5t30 116.5t8.5 118q0 79 -15.5 152t-48 136.5t-89.5 101.5t-132 38q-64 0 -115 -27.5t-83 -71.5t-53.5 -102t-30.5 -116t-9 -117z" />
<glyph unicode="&#xf5;" horiz-adv-x="1112" d="M92 514q0 236 134 393.5t337 157.5q207 0 331 -149t124 -388q0 -252 -130.5 -400t-336.5 -148q-96 0 -179.5 36t-146 102.5t-98 168.5t-35.5 227zM219 1188q13 90 62.5 150.5t130.5 60.5q39 0 161 -55.5t138 -55.5q36 0 58 23t38 86l84 -19q-14 -94 -63.5 -152.5 t-127.5 -58.5q-13 0 -25.5 1.5t-27 6t-24.5 8t-29 12.5t-28.5 14t-34.5 18.5t-37 19.5q-69 31 -95 31q-40 0 -60 -24t-36 -85zM268 520q0 -41 7.5 -91.5t27.5 -112t50.5 -110.5t83 -82.5t118.5 -33.5q63 0 114 27.5t83 71.5t53.5 102.5t30 116.5t8.5 118q0 79 -15.5 152 t-48 136.5t-89.5 101.5t-132 38q-64 0 -115 -27.5t-83 -71.5t-53.5 -102t-30.5 -116t-9 -117z" />
<glyph unicode="&#xf6;" horiz-adv-x="1112" d="M92 514q0 236 134 393.5t337 157.5q207 0 331 -149t124 -388q0 -252 -130.5 -400t-336.5 -148q-96 0 -179.5 36t-146 102.5t-98 168.5t-35.5 227zM268 520q0 -41 7.5 -91.5t27.5 -112t50.5 -110.5t83 -82.5t118.5 -33.5q63 0 114 27.5t83 71.5t53.5 102.5t30 116.5 t8.5 118q0 79 -15.5 152t-48 136.5t-89.5 101.5t-132 38q-64 0 -115 -27.5t-83 -71.5t-53.5 -102t-30.5 -116t-9 -117zM285 1255q0 41 29.5 71t72.5 30t72.5 -30t29.5 -71q0 -43 -29.5 -73.5t-72.5 -30.5t-72.5 30.5t-29.5 73.5zM623 1255q0 41 29.5 71t72.5 30t72.5 -30 t29.5 -71q0 -43 -29.5 -73.5t-72.5 -30.5t-72.5 30.5t-29.5 73.5z" />
<glyph unicode="&#xf7;" horiz-adv-x="1333" d="M137 612v123h1059v-123h-1059zM561 285q0 41 30 70.5t73 29.5t72.5 -29.5t29.5 -70.5q0 -43 -30 -74t-72 -31q-43 0 -73 31t-30 74zM561 1061q0 41 30 70.5t73 29.5t72.5 -29.5t29.5 -70.5q0 -43 -30 -74t-72 -31q-43 0 -73 31t-30 74z" />
<glyph unicode="&#xf8;" horiz-adv-x="1112" d="M92 518q0 128 37.5 232.5t101.5 172.5t148.5 105t179.5 37q145 0 258 -80l96 141l95 -30q-92 -135 -119 -172q129 -156 129 -398q0 -252 -131.5 -399t-333.5 -147q-151 0 -256 81l-100 -143l-93 31l121 174q-133 152 -133 395zM268 541q0 -172 54 -283l417 614 q-71 82 -180 82q-75 0 -133 -37t-91.5 -98t-50 -131.5t-16.5 -146.5zM371 170q68 -82 184 -82q62 0 113 27.5t83 71.5t53.5 100t30.5 110.5t9 106.5q0 177 -56 278z" />
<glyph unicode="&#xf9;" horiz-adv-x="1144" d="M156 291v753h166v-694q0 -127 46 -186.5t160 -59.5q77 0 153 47.5t130 129.5v763h168v-1044h-168v178q-64 -98 -156.5 -148t-193.5 -50q-82 0 -142.5 26t-94.5 71t-50 98t-18 116zM360 1446q0 32 20.5 49t51.5 17q54 0 88 -44q101 -132 264 -276l-63 -35 q-174 117 -279 156q-45 17 -63.5 47t-18.5 86z" />
<glyph unicode="&#xfa;" horiz-adv-x="1144" d="M156 291v753h166v-694q0 -127 46 -186.5t160 -59.5q77 0 153 47.5t130 129.5v763h168v-1044h-168v178q-64 -98 -156.5 -148t-193.5 -50q-82 0 -142.5 26t-94.5 71t-50 98t-18 116zM352 1192q163 144 264 276q29 38 74 38q31 0 56 -17.5t30 -42.5q5 -22 5 -35 q0 -30 -17.5 -50t-58.5 -38q-110 -43 -289 -166z" />
<glyph unicode="&#xfb;" horiz-adv-x="1144" d="M156 291v753h166v-694q0 -127 46 -186.5t160 -59.5q77 0 153 47.5t130 129.5v763h168v-1044h-168v178q-64 -98 -156.5 -148t-193.5 -50q-82 0 -142.5 26t-94.5 71t-50 98t-18 116zM250 1176l254 258l94 32l297 -290l-68 -31q-42 28 -128 85t-128 85q-235 -156 -256 -170z " />
<glyph unicode="&#xfc;" horiz-adv-x="1144" d="M156 291v753h166v-694q0 -127 46 -186.5t160 -59.5q77 0 153 47.5t130 129.5v763h168v-1044h-168v178q-64 -98 -156.5 -148t-193.5 -50q-82 0 -142.5 26t-94.5 71t-50 98t-18 116zM301 1255q0 41 29.5 71t72.5 30t73 -30t30 -71q0 -43 -30 -73.5t-73 -30.5t-72.5 30.5 t-29.5 73.5zM639 1255q0 41 29.5 71t72.5 30t73 -30t30 -71q0 -43 -30 -73.5t-73 -30.5t-72.5 30.5t-29.5 73.5z" />
<glyph unicode="&#xfd;" horiz-adv-x="974" d="M35 1044h182l295 -819h2l283 819h143q-45 -120 -418 -1138q-30 -82 -55.5 -131.5t-62.5 -87t-86 -53t-119 -15.5l-76 88q22 -3 43 -3q104 0 163 72t103 222q-51 135 -397 1046zM268 1192q163 144 264 276q29 38 74 38q31 0 56 -17.5t30 -42.5q5 -22 5 -35 q0 -30 -17.5 -50t-58.5 -38q-110 -43 -289 -166z" />
<glyph unicode="&#xfe;" horiz-adv-x="1146" d="M166 -391v1890h162v-622q26 32 38.5 47t47.5 47t65 48.5t77.5 31t98.5 14.5q173 0 284.5 -137t111.5 -396q0 -261 -113 -405.5t-299 -144.5q-72 0 -135 29t-98 62.5t-74 82.5v-547h-166zM328 330q13 -19 39 -59t38 -57t36 -44t45 -38t52.5 -20.5t69.5 -9.5q71 0 125 37.5 t84 100t45 135t15 151.5q0 61 -7 116t-25.5 110t-46.5 95t-73.5 64.5t-103.5 24.5q-100 0 -174.5 -74.5t-118.5 -210.5v-321z" />
<glyph unicode="&#xff;" horiz-adv-x="974" d="M35 1044h182l295 -819h2l283 819h143q-45 -120 -418 -1138q-30 -82 -55.5 -131.5t-62.5 -87t-86 -53t-119 -15.5l-76 88q22 -3 43 -3q104 0 163 72t103 222q-51 135 -397 1046zM217 1255q0 41 29.5 71t72.5 30t73 -30t30 -71q0 -43 -30 -73.5t-73 -30.5t-72.5 30.5 t-29.5 73.5zM555 1255q0 41 29.5 71t72.5 30t73 -30t30 -71q0 -43 -30 -73.5t-73 -30.5t-72.5 30.5t-29.5 73.5z" />
<glyph unicode="&#x152;" horiz-adv-x="1982" d="M104 713q0 145 32 267.5t88 209t130.5 147.5t159 90t174.5 29q82 0 152.5 -22.5t120.5 -62t84 -80.5t59 -89v232h776v-129h-627v-492h514v-125h-514v-559h652v-129h-801v242q-72 -133 -182 -200t-244 -67q-119 0 -223 50t-182 142.5t-123.5 233.5t-45.5 312zM291 713 q0 -168 50.5 -308.5t142.5 -223.5t206 -83q64 0 121 20t109 67t89.5 116.5t60 175.5t22.5 238q0 172 -42 309t-133.5 223t-220.5 86q-181 0 -293 -158.5t-112 -461.5z" />
<glyph unicode="&#x153;" horiz-adv-x="1763" d="M90 516q0 133 38 239t102.5 173t147 102t175.5 35q71 0 134 -22t108.5 -58t77 -74.5t51.5 -79.5q45 97 138 165.5t222 68.5q82 0 152 -30t126.5 -91.5t88.5 -166t32 -242.5h-682v-25q0 -106 26 -188t69.5 -130.5t96.5 -73t112 -24.5q163 0 282 144l74 -84 q-157 -174 -375 -174q-116 0 -215 61t-156 178q-61 -120 -158 -179.5t-214 -59.5q-94 0 -176 35.5t-144 102t-97.5 169.5t-35.5 229zM264 522q0 -35 5.5 -76t17.5 -91.5t34 -96t52 -84t75.5 -61.5t100.5 -23q63 0 114 27.5t83 71.5t53.5 102.5t30 116.5t8.5 118 q0 188 -72.5 308t-210.5 120q-75 0 -133 -38t-91.5 -101t-50 -137.5t-16.5 -155.5zM1006 637h516q-5 150 -69.5 234.5t-176.5 84.5q-45 0 -87 -17.5t-80.5 -54t-66 -100t-36.5 -147.5z" />
<glyph unicode="&#x178;" horiz-adv-x="1136" d="M25 1434h198l369 -670l366 670h154l-457 -797v-637h-174v637zM297 1645q0 41 29.5 70.5t72.5 29.5t73 -29.5t30 -70.5q0 -43 -30 -74t-73 -31q-42 0 -72 31t-30 74zM635 1645q0 41 29.5 70.5t72.5 29.5t73 -29.5t30 -70.5q0 -43 -30 -74t-73 -31q-42 0 -72 31t-30 74z " />
<glyph unicode="&#x2c6;" horiz-adv-x="862" d="M109 1176l253 258l95 32l297 -290l-68 -31q-42 28 -128 85t-128 85q-235 -156 -256 -170z" />
<glyph unicode="&#x2dc;" horiz-adv-x="856" d="M92 1188q13 90 62.5 150.5t130.5 60.5q39 0 161 -55.5t138 -55.5q36 0 58 23t38 86l84 -19q-14 -94 -63.5 -152.5t-127.5 -58.5q-13 0 -25.5 1.5t-27 6t-24.5 8t-29 12.5t-28.5 14t-34.5 18.5t-37 19.5q-69 31 -95 31q-40 0 -60 -24t-36 -85z" />
<glyph unicode="&#x2000;" horiz-adv-x="951" />
<glyph unicode="&#x2001;" horiz-adv-x="1902" />
<glyph unicode="&#x2002;" horiz-adv-x="951" />
<glyph unicode="&#x2003;" horiz-adv-x="1902" />
<glyph unicode="&#x2004;" horiz-adv-x="634" />
<glyph unicode="&#x2005;" horiz-adv-x="475" />
<glyph unicode="&#x2006;" horiz-adv-x="317" />
<glyph unicode="&#x2007;" horiz-adv-x="317" />
<glyph unicode="&#x2008;" horiz-adv-x="237" />
<glyph unicode="&#x2009;" horiz-adv-x="380" />
<glyph unicode="&#x200a;" horiz-adv-x="105" />
<glyph unicode="&#x2010;" horiz-adv-x="659" d="M109 518v137h442v-137h-442z" />
<glyph unicode="&#x2011;" horiz-adv-x="659" d="M109 518v137h442v-137h-442z" />
<glyph unicode="&#x2012;" horiz-adv-x="659" d="M109 518v137h442v-137h-442z" />
<glyph unicode="&#x2013;" horiz-adv-x="1169" d="M61 524v125h1047v-125h-1047z" />
<glyph unicode="&#x2014;" horiz-adv-x="1970" d="M61 524v125h1846v-125h-1846z" />
<glyph unicode="&#x2018;" horiz-adv-x="485" d="M121 1167q0 46 14 82q17 41 141 256q11 -4 31.5 -13t32.5 -13q-6 -15 -26.5 -57t-36 -81.5t-19.5 -66.5q2 -4 12 -14q20 -12 29 -23q27 -30 27 -70q0 -41 -30 -70.5t-73 -29.5h-2q-43 1 -71.5 30t-28.5 70z" />
<glyph unicode="&#x2019;" horiz-adv-x="485" d="M152 1073q5 14 25.5 57t36 82t19.5 66q-2 4 -12 14q-18 11 -28 23q-27 30 -27 69q0 42 30 71.5t72 29.5h2q43 -1 72 -30.5t29 -70.5q0 -42 -15 -81q-17 -41 -141 -256q-12 4 -31.5 13t-31.5 13z" />
<glyph unicode="&#x201a;" horiz-adv-x="532" d="M162 -233q6 15 26.5 57t36 81t19.5 66q-2 4 -13 15q-20 12 -28 22q-27 30 -27 70q0 41 30 70.5t73 29.5h2q43 -2 71.5 -30.5t28.5 -69.5q0 -46 -14 -82q-10 -24 -31.5 -63.5t-39.5 -71t-42 -72.5t-29 -49q-11 4 -31.5 13.5t-31.5 13.5z" />
<glyph unicode="&#x201c;" horiz-adv-x="843" d="M121 1167q0 46 14 82q17 41 141 256q11 -4 31.5 -13t32.5 -13q-6 -15 -26.5 -57t-36 -81.5t-19.5 -66.5q2 -4 12 -14q20 -12 29 -23q27 -30 27 -70q0 -41 -30 -70.5t-73 -29.5h-2q-43 1 -71.5 30t-28.5 70zM485 1167q0 43 15 82q17 41 141 256q11 -4 32 -13t32 -13 q-6 -15 -26.5 -57t-36 -81.5t-19.5 -66.5q2 -4 12 -14q20 -12 29 -23q26 -29 26 -70t-29.5 -70.5t-72.5 -29.5h-2q-43 2 -72 30.5t-29 69.5z" />
<glyph unicode="&#x201d;" horiz-adv-x="843" d="M135 1073q6 15 26.5 57t36 81.5t19.5 66.5q-2 4 -12 14q-20 12 -29 23q-26 29 -26 69q0 42 30 71.5t72 29.5h2q43 -1 71.5 -30.5t28.5 -70.5q0 -45 -14 -81q-17 -41 -141 -256q-11 4 -32 13t-32 13zM500 1073q6 15 26.5 57t36 81.5t19.5 66.5q-1 2 -13 14q-18 11 -28 23 q-27 30 -27 69q0 42 30 71.5t72 29.5h2q43 -1 72 -30.5t29 -70.5q0 -45 -14 -81q-10 -24 -31.5 -63.5t-39.5 -71t-42 -72.5t-29 -49q-12 4 -32 13t-31 13z" />
<glyph unicode="&#x201e;" horiz-adv-x="890" d="M162 -233q6 15 26.5 57t36 81t19.5 66q-2 4 -13 15q-20 12 -28 22q-27 30 -27 70q0 41 30 70.5t73 29.5h2q43 -2 71.5 -30.5t28.5 -69.5q0 -46 -14 -82q-10 -24 -31.5 -63.5t-39.5 -71t-42 -72.5t-29 -49q-11 4 -31.5 13.5t-31.5 13.5zM526 -233q6 15 26.5 57t36 81 t19.5 66q-3 6 -12 15q-22 13 -29 22q-26 29 -26 70t29.5 70.5t72.5 29.5h2q43 -2 71.5 -30.5t28.5 -69.5q0 -46 -14 -82q-17 -41 -141 -256q-11 4 -31.5 13.5t-32.5 13.5z" />
<glyph unicode="&#x2022;" horiz-adv-x="954" d="M227 707q0 107 72 179t178 72t178 -72t72 -179q0 -102 -73 -176t-177 -74q-106 0 -178 72t-72 178z" />
<glyph unicode="&#x2026;" horiz-adv-x="1847" d="M207 96q0 42 29.5 71.5t72.5 29.5t73 -30t30 -71q0 -43 -30 -73.5t-73 -30.5t-72.5 30.5t-29.5 73.5zM821 96q0 41 30 71t73 30q42 0 72 -29.5t30 -71.5q0 -43 -29.5 -73.5t-72.5 -30.5t-73 30.5t-30 73.5zM1432 96q0 42 30 71.5t72 29.5t72 -29.5t30 -71.5 q0 -43 -29.5 -73.5t-72.5 -30.5t-72.5 30.5t-29.5 73.5z" />
<glyph unicode="&#x202f;" horiz-adv-x="380" />
<glyph unicode="&#x2039;" horiz-adv-x="555" d="M68 590q232 392 268 454h115l-209 -454l209 -457h-115z" />
<glyph unicode="&#x203a;" horiz-adv-x="555" d="M102 133q39 83 109.5 237t101.5 220q-36 76 -105.5 227t-105.5 227h115l270 -454l-270 -457h-115z" />
<glyph unicode="&#x205f;" horiz-adv-x="475" />
<glyph unicode="&#x20ac;" horiz-adv-x="1284" d="M33 532l8 103h172q0 13 -1 40t-1 42q0 57 2 84h-180l8 98h182q39 262 187 408.5t360 146.5q267 0 399 -252l-90 -69q-77 198 -295 198q-146 0 -252 -109t-135 -323h500l-10 -98h-500q-2 -25 -2 -78q0 -16 1 -45.5t1 -42.5h487l-10 -103h-467q28 -215 133 -324.5 t252 -109.5q112 0 190 58.5t120 150.5l88 -67q-49 -119 -154 -192t-262 -73q-220 0 -362 146.5t-179 410.5h-190z" />
<glyph unicode="&#x2122;" horiz-adv-x="1554" d="M45 1391v82h561v-82h-221v-654h-117v654h-223zM739 737v736h146l200 -576l201 576h150v-736h-115v588l-207 -588h-78q-71 201 -205 588v-588h-92z" />
<glyph unicode="&#x25fc;" horiz-adv-x="1044" d="M0 0v1044h1044v-1044h-1044z" />
</font>
</defs>
</svg>
