<?xml version="1.0" encoding="utf-8"?>
<!-- Generator: Adobe Illustrator 19.1.0, SVG Export Plug-In . SVG Version: 6.00 Build 0)  -->
<svg version="1.1" id="openfoundry-logo" xmlns="http://www.w3.org/2000/svg" xmlns:xlink="http://www.w3.org/1999/xlink" x="0px"
	 y="0px" viewBox="783.2 269.5 76 28" enable-background="new 783.2 269.5 76 28" xml:space="preserve">
<g>
	<path d="M790.7,277.3h8v2.1h-5.5v2.6h4.8v2h-4.8v4.7h-2.5V277.3z M803.7,280.2c2.6,0,4.3,1.7,4.3,4.4c0,2.6-1.7,4.4-4.3,4.4
		c-2.6,0-4.3-1.7-4.3-4.4C799.4,282,801.1,280.2,803.7,280.2z M803.7,287.2c1.6,0,2-1.3,2-2.6c0-1.3-0.5-2.7-2-2.7
		c-1.5,0-2,1.3-2,2.7C801.7,285.9,802.1,287.2,803.7,287.2z M817.2,288.7H815v-1.2h0c-0.6,0.9-1.6,1.4-2.5,1.4c-2.4,0-3-1.4-3-3.4
		v-5.1h2.3v4.7c0,1.4,0.4,2,1.5,2c1.2,0,1.8-0.7,1.8-2.4v-4.3h2.3V288.7z M819.1,280.5h2.2v1.2h0c0.6-0.9,1.6-1.4,2.5-1.4
		c2.4,0,3,1.4,3,3.4v5.1h-2.3v-4.7c0-1.4-0.4-2-1.5-2c-1.2,0-1.8,0.7-1.8,2.4v4.3h-2.3V280.5z M834.6,287.7L834.6,287.7
		c-0.6,0.9-1.5,1.3-2.5,1.3c-2.5,0-3.7-2.1-3.7-4.4c0-2.2,1.2-4.3,3.7-4.3c1,0,1.9,0.4,2.4,1.2h0v-4.2h2.3v11.4h-2.2V287.7z
		 M832.6,281.9c-1.5,0-2,1.3-2,2.6c0,1.3,0.6,2.7,2,2.7c1.5,0,2-1.3,2-2.7C834.5,283.2,834,281.9,832.6,281.9z M838.6,280.5h2.2v1.5
		h0c0.4-1,1.5-1.8,2.6-1.8c0.2,0,0.4,0,0.5,0.1v2.1c-0.2,0-0.5-0.1-0.8-0.1c-1.7,0-2.2,1.2-2.2,2.7v3.7h-2.3V280.5z M849.5,289.8
		c-0.5,1.3-1.3,1.9-2.8,1.9c-0.5,0-0.9,0-1.4-0.1v-1.9c0.4,0,0.9,0.1,1.3,0.1c0.8-0.1,1-0.9,0.8-1.6l-2.9-7.8h2.4l1.9,5.7h0l1.8-5.7
		h2.4L849.5,289.8z"/>
	<rect x="784.2" y="270.5" fill="none" stroke="#000000" stroke-width="2" width="74" height="26"/>
</g>
</svg>
