<svg xmlns="http://www.w3.org/2000/svg" viewBox="0 0 3000 4242.42"><title>specimen-bluu-next-bold</title><rect width="3000" height="4242.42" fill="#fff"/><path d="M859.17,899.58c223.14,0,404-180.9,404-404s-180.9-404-404-404-404,180.89-404,404,180.89,404,404,404" fill="#fff"/><path d="M2234.26,945c223.14,0,404-180.9,404-404s-180.9-404-404-404-404,180.89-404,404,180.9,404,404,404" fill="#fff"/><circle cx="859.17" cy="495.54" r="404.04" fill="none" stroke="#000" stroke-width="21.38"/><polygon points="934.6 708.22 1086.2 434.71 1163.55 397.46 1002.8 308.35 1011.35 392.47 946.61 509.27 772.56 412.79 836.98 296.57 914.33 259.31 753.58 170.21 762.13 254.32 610.21 528.41 533.44 565.98 694.19 655.09 685.38 570.07 758.13 438.81 932.18 535.29 859.43 666.55 782.66 704.13 943.41 793.23 934.6 708.22"/><circle cx="2234.26" cy="540.99" r="404.04" fill="none" stroke="#000" stroke-width="21.38"/><path d="M695.31,1478.36c203.85-90.76,295.53-329.59,204.77-533.44S570.49,649.38,366.63,740.14,71.1,1069.72,161.86,1273.58s329.59,295.54,533.45,204.77" fill="#fff"/><path d="M2470.29,1604.12c223.15,0,404-180.9,404-404s-180.89-404-404-404-404,180.89-404,404,180.9,404,404,404" fill="#fff"/><path d="M1667.12,1052.47c215.54-57.76,343.45-279.31,285.7-494.85S1673.51,214.18,1458,271.94s-343.46,279.3-285.7,494.84,279.3,343.45,494.85,285.7" fill="#fff"/><path d="M695.31,1478.36c203.85-90.76,295.53-329.59,204.77-533.44S570.49,649.38,366.63,740.14,71.1,1069.72,161.86,1273.58,491.45,1569.12,695.31,1478.36Z" fill="none" stroke="#000" stroke-width="21.38"/><polygon points="338.07 1194.37 342.39 1191.25 321.32 1044.57 369.67 999.48 614.5 1262.03 626.52 1346.65 760.93 1221.3 677.36 1203.41 432.08 940.38 480.43 895.29 626.22 926.57 629.63 922.48 530.89 816.59 239.33 1088.48 338.07 1194.37"/><circle cx="2470.29" cy="1200.08" r="404.04" fill="none" stroke="#000" stroke-width="21.38"/><path d="M1667.12,1052.47c215.54-57.76,343.45-279.31,285.7-494.85S1673.51,214.18,1458,271.94s-343.46,279.3-285.7,494.84S1451.57,1110.22,1667.12,1052.47Z" fill="none" stroke="#000" stroke-width="21.38"/><polygon points="1737.56 669.81 1730.41 671.69 1702.45 818.22 1595.2 868.24 1513.89 693.87 1677.47 617.59 1664.89 590.63 1501.32 666.91 1423.92 500.94 1525.78 453.44 1640.31 526.96 1647.5 523.61 1588.83 397.78 1300.02 532.45 1365.03 578 1497.74 862.62 1491.41 942.89 1791.6 802.91 1737.56 669.81"/><polygon points="2298.16 1282.02 2303.59 1277 2259.49 1134.49 2330.71 1039.98 2484.36 1155.77 2375.74 1299.91 2399.5 1317.81 2508.12 1173.67 2654.37 1283.88 2586.74 1373.64 2451.1 1362.49 2446.32 1368.83 2557.2 1452.38 2748.98 1197.88 2670.19 1188.19 2419.39 999.19 2387.3 925.34 2187.96 1189.87 2298.16 1282.02"/><path d="M2701.87,1738c58.18,0,96.52,87.27,96.52,190.41,0,34.38-12.56,99.17-61.48,99.17-58.18,0-95.86-87.27-95.86-190.41,0-39.67,5.95-99.17,60.82-99.17M2881,1868.26c0-79.33-49.58-155.36-143.47-155.36-123,0-180.49,99.17-180.49,184.46,0,79.34,49.58,155.37,143.47,155.37,123,0,180.49-99.17,180.49-184.46m-310.73,176.52-50.25-56.86V1818.68c0-62.15-31.73-105.78-99.17-105.78-39.67,0-82.64,20.5-109.09,61.49v-60.16l-124.29,44.3,45,50.91v178.5l-50.25,56.86h177.18l-47.6-56.86V1796.86c21.16-28.43,46.28-39,70.74-39,50.91,0,58.18,32.4,58.18,83.3v146.77l-47.6,56.86h177.18Z"/><path d="M368.21,1935l5.95,116.36c25.12,10.58,70.08,15.21,103.14,15.21,52.23,0,129.58-29.75,129.58-106.44,0-121-181.15-91.24-181.15-159.33,0-25.78,15.87-43,43.64-43.63,42.31-.66,82,31.07,105.78,74l4,0.66V1722.1L554.65,1736H481.93c-67.43,0-110.41,43-110.41,91.9,0,130.9,175.2,92.56,175.2,170.57,0,29.75-22.48,43-49.58,43-54.21,0-106.44-49.59-123.63-106.44h-5.29ZM173.61,1773.66l45,50.91v178.51l-48.92,56.86H346.82l-48.92-56.86V1729.37Zm25.78-136.19L256.25,1699l56.2-61.49-56.2-60.82Z"/><path d="M1890.79,2256.42l-124.29,44.3,45,50.91V2669l-48.92,56.86h177.18L1890.79,2669V2476.58c21.16-28.43,46.28-39,70.74-39,50.91,0,58.18,32.4,58.18,83.3v148.75l-48.26,56.2h177.18L2099.7,2669H2099V2498.4c0-62.15-31.73-105.78-99.17-105.78-39.67,0-82.64,20.49-109.09,61.48V2256.42Zm-144.12,251.23V2401.87h-79.33c-126.28,0-174.54,96.53-174.54,175.2,0,79.34,42.31,156.69,128.92,156.69,82,0,126.94-82,140.82-135.53l-7.27-2.64c-7.93,23.14-42.31,59.5-87.93,59.5-52.23,0-98.51-35-98.51-138.18,0-45,18.51-91.9,69.42-91.9s80.66,35.7,103.8,82.64h4.63Zm-499.15-106.44H1118.6l49.58,57.52v167.93c0,62.15,31.73,105.78,99.17,105.78,46.94,0,77.35-22.48,101.15-55.54v52.89l124.29-4-45-54.21v-270.4H1319.59l48.92,57.52v197.68c-17.19,19.83-40.33,31.07-62.81,31.07-50.91,0-58.18-32.4-58.18-83.3v-203ZM879.94,2600.87l5.95,116.36C911,2727.81,956,2732.44,989,2732.44c52.23,0,129.58-29.75,129.58-106.44,0-121-181.15-91.24-181.15-159.33,0-25.78,15.87-43,43.64-43.64,42.31-.66,82,31.07,105.78,74l4,0.66V2388l-24.46,13.88H993.65c-67.43,0-110.41,43-110.41,91.9,0,130.9,175.2,92.56,175.2,170.57,0,29.75-22.48,43-49.58,43-54.21,0-106.44-49.58-123.63-106.44h-5.29Z"/><path d="M2594.39,3620.55l-123,93.88,43.63,41.65V3944.5c0,75.37,39,101.81,84.63,101.81,53.55,0,89.25-27.11,121-80.66l-7.93-10.58c-14.54,28.43-45,38.35-64.79,38.35-39,0-53.55-17.19-53.55-80.66V3750.13h112.39l14.54-35.7H2594.39v-93.88Zm-96.52,417.83-50.25-56.86V3812.27c0-62.15-31.73-105.78-99.17-105.78-39.67,0-82.64,20.49-109.09,61.48v-60.16l-124.29,44.3,45,50.91v178.51l-50.25,56.86H2287l-47.6-56.86V3790.46c21.16-28.43,46.28-39,70.74-39,50.91,0,58.18,32.39,58.18,83.3v146.77l-47.6,56.86h177.18ZM1926,3731.62c58.18,0,96.53,87.27,96.53,190.4,0,34.38-12.56,99.17-61.48,99.17-58.18,0-95.86-87.27-95.86-190.41,0-39.67,5.95-99.17,60.82-99.17m179.17,130.24c0-79.33-49.58-155.36-143.46-155.36-123,0-180.49,99.17-180.49,184.45,0,79.34,49.58,155.37,143.46,155.37,123,0,180.49-99.17,180.49-184.46m-287.59-282.3h-79.34c-95.2,0-136.19,71.4-143.46,134.87h-46.94l3.31,2-3.31-1.32,46.28,41v226.11L1545.18,4039H1733.6l-60.16-56.86V3750.13h112.39l14.54-35.7H1673.44c-6.61-17.19-11.9-39-11.9-58.84,0-29.09,11.9-53.55,50.91-53.55,48.92,0,81.32,47.6,100.49,76.69h4.63v-99.17Zm-488,252.55H1201.29v-4.63c0-39.67,20.49-99.83,70.74-99.83,29.09,0,57.52,27.77,57.52,98.51v6Zm85.29,19.17h0.66l-0.66-1.32c-0.66-89.25-48.92-142.14-127.6-142.14-107.76,0-160.65,97.85-160.65,183.13,0,79.34,48.92,156.69,135.53,156.69,78.68,0,125.61-60.82,149.42-121l-9.92-4c-9.92,27.77-49.58,50.25-94.54,50.25-51.57,0-97.19-35.7-104.46-121h212.22v-0.66Zm-393.25-19.17H893.33v-4.63c0-39.67,20.49-99.83,70.74-99.83,29.09,0,57.52,27.77,57.52,98.51v6Zm85.29,19.17h0.66l-0.66-1.32c-0.66-89.25-48.92-142.14-127.6-142.14-107.76,0-160.65,97.85-160.65,183.13,0,79.34,48.92,156.69,135.53,156.69,78.67,0,125.61-60.82,149.42-121l-9.92-4c-9.92,27.77-49.59,50.25-94.54,50.25-51.57,0-97.19-35.7-104.46-121h212.22v-0.66Zm-308.08-19.83v-117H525.08l45,50.91v216.19l-48.92,56.86H710.86l-61.48-56.86V3839.38c0-67.43,0-100.49,45.62-100.49,30.41,0,69.42,23.14,98.51,92.56h5.29ZM524.43,3579.56H445.09c-95.2,0-136.19,71.4-143.46,134.87H254.68l3.31,2-3.31-1.32,46.28,41v226.11L252,4039H440.46l-60.16-56.86V3750.13H492.69l14.54-35.7H380.3c-6.61-17.19-11.9-39-11.9-58.84,0-29.09,11.9-53.55,50.91-53.55,48.92,0,81.32,47.6,100.49,76.69h4.63v-99.17Z"/><path d="M2701.92,3295.07c-16.53,17.19-37,27.77-57.52,27.77-27.77,0-49.58-13.88-49.58-45.62s3.3-60.16,107.1-101.81v119.66Zm0,73.39h128.92l-48.92-43h-0.66V3101.36l14.54-56.86H2523.41v105.78H2528c33.72-50.25,65.45-87.27,118.34-87.27,54.21,0,55.53,41,55.53,93.88-114.38,40.33-194.37,74.71-194.37,142.14,0,53.55,33.72,76,79.34,76,43.64,0,89.91-37.68,115-62.15v55.54Zm-547.77-125,6,116.36c25.12,10.58,70.08,15.21,103.14,15.21,52.23,0,129.58-29.75,129.58-106.44,0-121-181.15-91.23-181.15-159.33,0-25.78,15.87-43,43.64-43.63,42.31-.66,82,31.07,105.78,74l4,0.66V3030.62l-24.46,13.88h-72.72c-67.44,0-110.41,43-110.41,91.9,0,130.9,175.2,92.56,175.2,170.57,0,29.75-22.48,43-49.58,43-54.21,0-106.44-49.58-123.63-106.44h-5.29Zm-152.06,51.57c-16.53,17.19-37,27.77-57.52,27.77-27.77,0-49.59-13.88-49.59-45.62s3.31-60.16,107.1-101.81v119.66Zm0,73.39H2131l-48.92-43h-0.66V3101.36L2096,3044.5H1823.59v105.78h4.63c33.72-50.25,65.45-87.27,118.34-87.27,54.21,0,55.53,41,55.53,93.88-114.37,40.33-194.37,74.71-194.37,142.14,0,53.55,33.72,76,79.34,76,43.63,0,89.91-37.68,115-62.15v55.54Zm-380.81,27.77c6.61,8.6,9.26,21.16,9.26,37.68,0,31.73-34.38,72.72-108.43,72.72-59.5,0-91.24-21.82-91.24-65.45,0-18.51,7.27-33.72,21.82-45h168.59Zm-104.46-340.48c37.68,0,62.15,53.55,62.15,121.65,0,26.44-4,69.42-36.36,69.42-37.68,0-60.82-57.52-60.82-125.61,0-26.45,2.64-65.45,35-65.45m146.11-76.69-84,60.82a171.29,171.29,0,0,0-33.72-3.31c-102.47,0-148.09,68.1-148.09,125,0,39,20.49,76,61.48,93.22-25.78,15.87-61.48,38.35-61.48,78.67,0,24.46,20.49,45.62,39.67,53.55-21.82,9.26-56.2,27.77-56.2,60.16,0,46.28,43,74.71,132.23,74.71,108.43,0,167.27-69.42,167.27-146.11a107.79,107.79,0,0,0-15.21-54.21H1487.08c-23.14-2.65-36.36-11.9-36.36-31.73,0-9.26,15.21-21.16,24.46-29.75a147.68,147.68,0,0,0,39.67,5.29c102.48,0,149.42-70.74,149.42-127.6,0-23.8-7.93-46.28-23.14-64.13,14.54-30.41,21.16-53.55,24.46-93.88Zm-275.69,389.4L1337,3311.6V3142.35c0-62.15-31.73-105.78-99.17-105.78-39.67,0-82.64,20.49-109.09,61.48v-60.16l-124.29,44.3,45,50.91v178.5l-50.25,56.86h177.18l-47.6-56.86V3120.53c21.16-28.43,46.28-39,70.74-39,50.91,0,58.18,32.4,58.18,83.3V3311.6l-47.6,56.86h177.18ZM816,3082.19l45,50.91v178.5l-48.92,56.86H989.25l-48.92-56.86V3037.89ZM841.82,2946l56.86,61.48,56.2-61.48-56.2-60.82Zm-297.5-46.94L420,2943.35l45,50.91V3311.6l-48.92,56.86H593.24l-48.92-56.86V3119.21c21.16-28.43,46.28-39,70.74-39,50.91,0,58.18,32.4,58.18,83.3v148.75L625,3368.46H802.16l-48.92-56.86h-0.66V3141c0-62.15-31.73-105.78-99.17-105.78-39.67,0-82.64,20.5-109.09,61.49V2899.06ZM287.8,2950.62l-123,93.88,43.63,41.65v188.42c0,75.37,39,101.81,84.62,101.81,53.55,0,89.25-27.11,121-80.66l-7.93-10.58c-14.54,28.43-45,38.34-64.79,38.34-39,0-53.55-17.19-53.55-80.66V3080.21H400.19l14.54-35.7H287.8v-93.88Z"/><path d="M2125.79,338.81c68.49-17.71,127.43-6.32,147.29,70.49,16.89,65.29-34.2,113.33-95.31,130.5ZM2517.12,684.9l-84.07-45.18-139.1-128.6c46.88-32.61,84.81-81.34,71.24-133.83-27.48-106.25-155.39-80.68-213-65.78l-161.94,41.88,64.91,55.6,78.3,302.75-29.82,80.1,177.94-46-64.91-55.6-33.44-129.29,30.06-10.51c49.56,41.13,111.81,104.93,174.54,167.92Z"/><path d="M966.9,1911.44s-175.22-25.27-319.93,325" fill="none" stroke="#1d1d1b" stroke-width="21.38"/><path d="M1898.52,1911.44s178.44-25.74,325.81,331" fill="none" stroke="#1d1d1b" stroke-width="21.38"/><path d="M1562.57,1757.73c19.49,18.5,47.45,29.72,74.36,28,42.93-2.81,74.87-34.8,96.71-69.24q1.72-2.72,3.41-5.42c6.58-10.48,12.47-21.46,20-31.35a149.31,149.31,0,0,1,24.54-25.43,146.44,146.44,0,0,1,25.42-16.68c12.31-6.34,25.76-11.11,36-20.46,18-16.45,21.87-43.29,20.71-67.63-1.2-25.2-7.34-51.56-24.79-69.77s-43.94-25.48-69-23.94c-42.49,2.6-82.54,30.08-100.25,68.79-13.18,28.79-15.19,63.45-36.32,87a68.7,68.7,0,0,1-57.81,22c-6.26-.71-12.62-2.39-17.53-6.34-8.4-6.76-10.76-18.89-8.89-29.5s7.24-20.22,12-29.88c28.51-57.43,38.42-122.08,46.14-185.72,2.21-18.24,5.35-38.5,19.82-49.83,12.3-9.62,29.25-9.89,44.87-9.73l60.62,0.63c6.06,0.07,12.28.1,18-2,14.18-5.21,19-20.53,19.94-34.34,0.61-9.21.1-19.13,5.19-26.82,14.67-22.16,56.12-15.46,77.26-9.4,44.53,12.76,75,53.27,97.78,93.62,35.05,62.15,59.74,129.49,84.26,196.48,8.44,23.07,16.92,46.23,22,70.26,3.91,18.48,2.75,42.88-14.86,49.74-16,6.24-32.07-7.15-46.74-16.05-3-1.83-6.39-3.54-9.87-3s-6.43,3.31-8.67,6.18c-10,12.89-13.33,29.63-16,45.74s-5.27,32.84-14.27,46.46-26.51,23.17-41.86,17.6c-10.86-3.94-20.89-14.84-31.78-11-12,4.24-12.31,22.38-22.8,29.62-15.42,10.64-34.89-10-53.55-8.41-11.37,1-21.3,10.39-32.66,9.18-16.68-1.78-25.14-24.68-26.65-38.91-1.2-11.41,1.42-21.76,3.4-32.83" fill="none" stroke="#1d1d1b" stroke-linecap="round" stroke-linejoin="round" stroke-width="22.84"/><path d="M1707.44,1546.72s11.42-45.67,87.78-31.4" fill="none" stroke="#1d1d1b" stroke-linecap="round" stroke-linejoin="round" stroke-width="22.84"/><ellipse cx="1263.9" cy="1355.11" rx="93.13" ry="122.39" fill="none" stroke="#1d1d1b" stroke-linecap="round" stroke-linejoin="round" stroke-width="22.84"/><path d="M1305.65,1299.2c0,19.77-10.69,35.8-23.87,35.8s-23.86-16-23.86-35.8,10.69-35.8,23.86-35.8,23.87,16,23.87,35.8" fill="#1d1d1b"/><path d="M1534.74,1269.11s-40,41.39-52.81,94.2" fill="none" stroke="#1d1d1b" stroke-linecap="round" stroke-linejoin="round" stroke-width="22.84"/><path d="M1464.08,1304.08s32.38,0,84.34,32.83" fill="none" stroke="#1d1d1b" stroke-linecap="round" stroke-linejoin="round" stroke-width="22.84"/><path d="M1416.59,1236.28s-23.55,13.56-37.82,43.53" fill="none" stroke="#1d1d1b" stroke-linecap="round" stroke-linejoin="round" stroke-width="22.84"/><path d="M1420,1267.1s-31.52-21.93-37.22-18.46" fill="none" stroke="#1d1d1b" stroke-linecap="round" stroke-linejoin="round" stroke-width="22.84"/><path d="M1325.56,1263.4s84.75-121.32,244.62-103.24,195.07,109,195.07,109" fill="none" stroke="#1d1d1b" stroke-linecap="round" stroke-linejoin="round" stroke-width="22.84"/><path d="M1544.7,1234s41.51,1.14,38.83,29.53,20.66,29.12,27.39,14.67,9.4-45.55-5.92-61.39-54.63-19.35-60.3,17.18" fill="#1d1d1b"/><path d="M1544.7,1234s41.51,1.14,38.83,29.53,20.66,29.12,27.39,14.67,9.4-45.55-5.92-61.39S1550.37,1197.44,1544.7,1234Z" fill="none" stroke="#1d1d1b" stroke-linecap="round" stroke-linejoin="round" stroke-width="22.84"/><path d="M1394.5,1199.88s35.52-19.63,92.72,17.44c20.8,13.48-7-42.21-7-42.21" fill="#1d1d1b"/><path d="M1392,1195l0.37-.23,1.46-.8c1.17-.6,2.84-1.41,5-2.28a74.71,74.71,0,0,1,18.46-4.32,80.47,80.47,0,0,1,12.57-.35,104.83,104.83,0,0,1,13.91,1.43l7.23,1.42c2.4,0.62,4.78,1.36,7.22,2.06,4.85,1.42,9.59,3.34,14.31,5.24,4.58,2.15,9.34,4.09,13.62,6.59l6.5,3.53c0-.11,2.28,1.29,2.09,1.05a1.87,1.87,0,0,0-.67-0.32,2.44,2.44,0,0,0-.7-0.13,5.94,5.94,0,0,0-2.11,0l-0.52.1a7.14,7.14,0,0,0-.9.18,8,8,0,0,0-1.75.69,10.39,10.39,0,0,0-2.85,2.25,10.58,10.58,0,0,0-1.4,2.15,6.07,6.07,0,0,0-.34,1l-0.14.38a3.73,3.73,0,0,0-.13.71,0.13,0.13,0,0,0,0,.09,0.64,0.64,0,0,1-.07-0.33,33.1,33.1,0,0,0-1-4.12c-1-3.24-2.2-6.63-3.39-9.74-2.45-6.22-4.76-11.53-6.28-15.24l-2.43-5.74-0.09-.2a11.43,11.43,0,0,1,20.52-10l0.89,1.61c0.58,1,1.36,2.52,2.32,4.45a168.93,168.93,0,0,1,7.37,16.44,104,104,0,0,1,4.05,12.06,52,52,0,0,1,1.52,8.19,22.82,22.82,0,0,1,.08,2.9l-0.09,1.71a21.55,21.55,0,0,1-.4,2.32l-0.29,1.19c-0.19.58-.42,1.15-0.67,1.72a14,14,0,0,1-6.36,6.83,13.72,13.72,0,0,1-4.74,1.45,19,19,0,0,1-3.78,0c-0.78-.14-1.56-0.33-2.33-0.54a18.9,18.9,0,0,1-3.82-1.54,41.39,41.39,0,0,1-3.85-2.34l-5.42-3.64c-3.6-2.6-7.53-4.6-11.37-6.89-3.92-2-7.87-4.08-11.88-5.66l-6-2.37-5.93-2a88.26,88.26,0,0,0-11.46-2.67,73.36,73.36,0,0,0-10.43-1.07,61.36,61.36,0,0,0-15.5,1.11c-1.81.37-3.2,0.74-4.08,1a8.91,8.91,0,0,0-1.26.42l-0.07,0a5.5,5.5,0,0,1-5-9.75" fill="#1d1d1b"/><path d="M1187.54,1425.15c-60.38,66.89-87.55,157.94-86.64,247,0.74,71.66,16.83,149.44,62.7,207.2,54.52,68.66,147.62,92.22,232.06,84.14,95.28-9.12,184.06-90,193.27-187.64" fill="none" stroke="#1d1d1b" stroke-linecap="round" stroke-linejoin="round" stroke-width="22.84"/><path d="M1119.17,1546.72c23.83,43.51,73.37,73.78,123.62,62.23,56.43-13,103.9-52.65,144.17-92.26,18.58-18.28,56.13-60.55,84.37-33,35.84,35,24.42,108.07,10.66,150.55-17.47,53.92-54.22,101.38-101.56,132.43a229.48,229.48,0,0,1-82.86,33.91c-70.59,13.35-136-5.83-189.71-52.67" fill="none" stroke="#1d1d1b" stroke-linecap="round" stroke-linejoin="round" stroke-width="22.84"/><path d="M1100.88,1652.11s60.13,74.22,154.33,59.95,129.41-86.59,129.41-86.59" fill="none" stroke="#1d1d1b" stroke-linecap="round" stroke-linejoin="round" stroke-width="22.84"/><path d="M1140.72,1844.65c-28.14-7.18-55.62-16.56-83.52-24.45-61.31-17.34-78.42,50.37-82.93,96.92-5.16,53.22-9.37,127.85,13.06,177.26a73.71,73.71,0,0,0,17.13,24.26,54.35,54.35,0,0,0,34.16,14.34c28.23,1.63,77.18-6.42,102.11-20.32" fill="none" stroke="#1d1d1b" stroke-linecap="round" stroke-linejoin="round" stroke-width="22.84"/><path d="M1212.73,1923.67l-111.85,7.72s53.18,282.61,111.85,336.85c0,0,38.68-157,117.18-215.53,0,0,31.39-38.48,32.82-87.75" fill="none" stroke="#1d1d1b" stroke-linecap="round" stroke-linejoin="round" stroke-width="22.84"/><path d="M1341.58,2035.1s66.84,119,115.37,233.14c0,0,49.85-62.48,88.38-134.44,26.32-49.16,47.35-102.76,43.61-143.89,0,0-48.81-52.81-102.82-54.24" fill="none" stroke="#1d1d1b" stroke-linecap="round" stroke-linejoin="round" stroke-width="22.84"/><path d="M1212.73,2268.24s80.46-44.83,161.63-172.28" fill="none" stroke="#1d1d1b" stroke-linecap="round" stroke-linejoin="round" stroke-width="22.84"/><path d="M1100.88,1931.39s-82.19,120.44-96.44,187.25" fill="none" stroke="#1d1d1b" stroke-linecap="round" stroke-linejoin="round" stroke-width="22.84"/><path d="M1588.93,1989.91s70.7,84.21,95,219.81c0,0-34.5,18-138.57-75.92" fill="none" stroke="#1d1d1b" stroke-linecap="round" stroke-linejoin="round" stroke-width="22.84"/><path d="M1499.26,1923.67s155.38-63.65,252.08-50.8c0,0,62.45,93.32,103.84,213.65,0,0,75.65-204.66,0-269.11,0,0-235.5-13.6-277.61,6.65" fill="none" stroke="#1d1d1b" stroke-linecap="round" stroke-linejoin="round" stroke-width="22.84"/><path d="M1751.33,1872.87s12.61,113.62-7.64,213.66c-10,49.55-28.12,95.77-59.8,123.19" fill="none" stroke="#1d1d1b" stroke-linecap="round" stroke-linejoin="round" stroke-width="22.84"/><path d="M1855.17,2086.53s-53.11,16.69-111.48,0" fill="none" stroke="#1d1d1b" stroke-linecap="round" stroke-linejoin="round" stroke-width="22.84"/><path d="M293.28,2435.4c-27.59-21.79-61.43-35.81-96.77-37-30.38-1-85.61,1.3-89.29,41.68-2.27,24.85,19.54,38.93,39.56,47.66,20.87,9.1,41.82,17.85,62.54,27.38,53.17,24.46,106.34,50,156.27,80.65q4.09,2.51,8.14,5.08c37.09,23.57,68.51,39.28,113.51,30.46,43.21-8.47,92.2-29.59,120.92-64,29-34.74,40-80.27,52.13-122.82,8.82-31.05,27.05-58.79,48.49-82.59,19.55-21.7,48.52-37,64.88-60.84,20.17-29.43,7.51-69.66-27.43-79.08-35.26-9.51-73.21-2.44-103.7,17.31-34.47,22.32-51.46,54.83-61,93.6-45.76-36.46-115-23.62-169-28.07-38.35-3.17-78.89-12.23-113.84-28.45-50.62-23.51-107.57-3.67-116.61,42.91" fill="none" stroke="#1d1d1b" stroke-linecap="round" stroke-linejoin="round" stroke-width="21.69"/><path d="M324,2372.13s-72.32-46.1-146.44-52.43-91.3,52.43-91.3,52.43-10.85,38.52,24.41,55.42" fill="none" stroke="#1d1d1b" stroke-linecap="round" stroke-miterlimit="10" stroke-width="21.69"/><path d="M407.86,2356.31s-76.16,46.1-83.84,145.77" fill="none" stroke="#1d1d1b" stroke-linecap="round" stroke-linejoin="round" stroke-width="21.69"/><path d="M567.18,2461.39s-107.8-56.95-185.09,35.26" fill="none" stroke="#1d1d1b" stroke-linecap="round" stroke-linejoin="round" stroke-width="21.69"/><path d="M695,2389.66c21.61,13,46.29,24.34,55.19,45.8,12,28.94-11,66.56-11,99.83s23,70.9,11,99.84c-12.44,30-55.73,40.23-78.34,62.84s-32.84,65.89-62.83,78.34c-28.94,12-66.56-11-99.84-11s-70.89,23-99.83,11c-30-12.44-40.23-55.72-62.84-78.33s-65.89-32.84-78.34-62.84c-10.14-24.44,4.67-55.09,9.51-84.07" fill="none" stroke="#1d1d1b" stroke-linecap="round" stroke-linejoin="round" stroke-width="21.69"/><path d="M2706.72,2435.4c27.59-21.79,61.43-35.81,96.77-37,30.38-1,85.61,1.3,89.29,41.68,2.27,24.85-19.54,38.93-39.56,47.66-20.87,9.1-41.82,17.85-62.54,27.38-53.18,24.46-106.34,50-156.27,80.65q-4.09,2.51-8.14,5.08c-37.09,23.57-68.51,39.28-113.5,30.46-43.21-8.47-92.21-29.59-120.93-64-29-34.74-40-80.27-52.13-122.82-8.82-31.05-27.05-58.79-48.49-82.59-19.55-21.7-48.52-37-64.88-60.84-20.17-29.43-7.51-69.66,27.43-79.08,35.26-9.51,73.21-2.44,103.7,17.31,34.47,22.32,51.46,54.83,61,93.6,45.76-36.46,115-23.62,169-28.07,38.35-3.17,78.89-12.23,113.84-28.45,50.62-23.51,107.57-3.67,116.61,42.91" fill="none" stroke="#1d1d1b" stroke-linecap="round" stroke-linejoin="round" stroke-width="21.69"/><path d="M2676,2372.13s72.32-46.1,146.44-52.43,91.3,52.43,91.3,52.43,10.85,38.52-24.41,55.42" fill="none" stroke="#1d1d1b" stroke-linecap="round" stroke-miterlimit="10" stroke-width="21.69"/><path d="M2592.14,2356.31s76.16,46.1,83.84,145.77" fill="none" stroke="#1d1d1b" stroke-linecap="round" stroke-linejoin="round" stroke-width="21.69"/><path d="M2432.82,2461.39s107.8-56.95,185.09,35.26" fill="none" stroke="#1d1d1b" stroke-linecap="round" stroke-linejoin="round" stroke-width="21.69"/><path d="M2305,2389.66c-21.61,13-46.29,24.34-55.19,45.8-12,28.94,11,66.56,11,99.83s-23,70.9-11,99.84c12.44,30,55.73,40.23,78.34,62.84s32.84,65.89,62.83,78.34c28.94,12,66.56-11,99.84-11s70.9,23,99.83,11c30-12.44,40.23-55.72,62.84-78.33s65.9-32.84,78.34-62.84c10.14-24.44-4.68-55.09-9.51-84.07" fill="none" stroke="#1d1d1b" stroke-linecap="round" stroke-linejoin="round" stroke-width="21.69"/></svg>